%TF.GenerationSoftware,KiCad,Pcbnew,10.0.3*%
%TF.CreationDate,2026-06-11T12:14:28+08:00*%
%TF.ProjectId,nano-server,6e616e6f-2d73-4657-9276-65722e6b6963,rev?*%
%TF.SameCoordinates,Original*%
%TF.FileFunction,Legend,Top*%
%TF.FilePolarity,Positive*%
%FSLAX46Y46*%
G04 Gerber Fmt 4.6, Leading zero omitted, Abs format (unit mm)*
G04 Created by KiCad (PCBNEW 10.0.3) date 2026-06-11 12:14:28*
%MOMM*%
%LPD*%
G01*
G04 APERTURE LIST*
%ADD10C,0.150000*%
%ADD11C,0.220000*%
%ADD12C,0.260000*%
%ADD13C,0.120000*%
G04 APERTURE END LIST*
D10*
X113323809Y-73654819D02*
X113323809Y-72654819D01*
X113323809Y-72654819D02*
X113704761Y-72654819D01*
X113704761Y-72654819D02*
X113799999Y-72702438D01*
X113799999Y-72702438D02*
X113847618Y-72750057D01*
X113847618Y-72750057D02*
X113895237Y-72845295D01*
X113895237Y-72845295D02*
X113895237Y-72988152D01*
X113895237Y-72988152D02*
X113847618Y-73083390D01*
X113847618Y-73083390D02*
X113799999Y-73131009D01*
X113799999Y-73131009D02*
X113704761Y-73178628D01*
X113704761Y-73178628D02*
X113323809Y-73178628D01*
X114895237Y-73559580D02*
X114847618Y-73607200D01*
X114847618Y-73607200D02*
X114704761Y-73654819D01*
X114704761Y-73654819D02*
X114609523Y-73654819D01*
X114609523Y-73654819D02*
X114466666Y-73607200D01*
X114466666Y-73607200D02*
X114371428Y-73511961D01*
X114371428Y-73511961D02*
X114323809Y-73416723D01*
X114323809Y-73416723D02*
X114276190Y-73226247D01*
X114276190Y-73226247D02*
X114276190Y-73083390D01*
X114276190Y-73083390D02*
X114323809Y-72892914D01*
X114323809Y-72892914D02*
X114371428Y-72797676D01*
X114371428Y-72797676D02*
X114466666Y-72702438D01*
X114466666Y-72702438D02*
X114609523Y-72654819D01*
X114609523Y-72654819D02*
X114704761Y-72654819D01*
X114704761Y-72654819D02*
X114847618Y-72702438D01*
X114847618Y-72702438D02*
X114895237Y-72750057D01*
X115657142Y-73131009D02*
X115323809Y-73131009D01*
X115323809Y-73654819D02*
X115323809Y-72654819D01*
X115323809Y-72654819D02*
X115799999Y-72654819D01*
X116323809Y-73083390D02*
X116228571Y-73035771D01*
X116228571Y-73035771D02*
X116180952Y-72988152D01*
X116180952Y-72988152D02*
X116133333Y-72892914D01*
X116133333Y-72892914D02*
X116133333Y-72845295D01*
X116133333Y-72845295D02*
X116180952Y-72750057D01*
X116180952Y-72750057D02*
X116228571Y-72702438D01*
X116228571Y-72702438D02*
X116323809Y-72654819D01*
X116323809Y-72654819D02*
X116514285Y-72654819D01*
X116514285Y-72654819D02*
X116609523Y-72702438D01*
X116609523Y-72702438D02*
X116657142Y-72750057D01*
X116657142Y-72750057D02*
X116704761Y-72845295D01*
X116704761Y-72845295D02*
X116704761Y-72892914D01*
X116704761Y-72892914D02*
X116657142Y-72988152D01*
X116657142Y-72988152D02*
X116609523Y-73035771D01*
X116609523Y-73035771D02*
X116514285Y-73083390D01*
X116514285Y-73083390D02*
X116323809Y-73083390D01*
X116323809Y-73083390D02*
X116228571Y-73131009D01*
X116228571Y-73131009D02*
X116180952Y-73178628D01*
X116180952Y-73178628D02*
X116133333Y-73273866D01*
X116133333Y-73273866D02*
X116133333Y-73464342D01*
X116133333Y-73464342D02*
X116180952Y-73559580D01*
X116180952Y-73559580D02*
X116228571Y-73607200D01*
X116228571Y-73607200D02*
X116323809Y-73654819D01*
X116323809Y-73654819D02*
X116514285Y-73654819D01*
X116514285Y-73654819D02*
X116609523Y-73607200D01*
X116609523Y-73607200D02*
X116657142Y-73559580D01*
X116657142Y-73559580D02*
X116704761Y-73464342D01*
X116704761Y-73464342D02*
X116704761Y-73273866D01*
X116704761Y-73273866D02*
X116657142Y-73178628D01*
X116657142Y-73178628D02*
X116609523Y-73131009D01*
X116609523Y-73131009D02*
X116514285Y-73083390D01*
X117609523Y-72654819D02*
X117133333Y-72654819D01*
X117133333Y-72654819D02*
X117085714Y-73131009D01*
X117085714Y-73131009D02*
X117133333Y-73083390D01*
X117133333Y-73083390D02*
X117228571Y-73035771D01*
X117228571Y-73035771D02*
X117466666Y-73035771D01*
X117466666Y-73035771D02*
X117561904Y-73083390D01*
X117561904Y-73083390D02*
X117609523Y-73131009D01*
X117609523Y-73131009D02*
X117657142Y-73226247D01*
X117657142Y-73226247D02*
X117657142Y-73464342D01*
X117657142Y-73464342D02*
X117609523Y-73559580D01*
X117609523Y-73559580D02*
X117561904Y-73607200D01*
X117561904Y-73607200D02*
X117466666Y-73654819D01*
X117466666Y-73654819D02*
X117228571Y-73654819D01*
X117228571Y-73654819D02*
X117133333Y-73607200D01*
X117133333Y-73607200D02*
X117085714Y-73559580D01*
X117990476Y-72654819D02*
X118657142Y-72654819D01*
X118657142Y-72654819D02*
X118228571Y-73654819D01*
X119466666Y-72988152D02*
X119466666Y-73654819D01*
X119228571Y-72607200D02*
X118990476Y-73321485D01*
X118990476Y-73321485D02*
X119609523Y-73321485D01*
X119847619Y-72654819D02*
X120419047Y-72654819D01*
X120133333Y-73654819D02*
X120133333Y-72654819D01*
X124154819Y-96047618D02*
X124964342Y-96047618D01*
X124964342Y-96047618D02*
X125059580Y-95999999D01*
X125059580Y-95999999D02*
X125107200Y-95952380D01*
X125107200Y-95952380D02*
X125154819Y-95857142D01*
X125154819Y-95857142D02*
X125154819Y-95666666D01*
X125154819Y-95666666D02*
X125107200Y-95571428D01*
X125107200Y-95571428D02*
X125059580Y-95523809D01*
X125059580Y-95523809D02*
X124964342Y-95476190D01*
X124964342Y-95476190D02*
X124154819Y-95476190D01*
X125154819Y-94523809D02*
X125154819Y-94999999D01*
X125154819Y-94999999D02*
X124154819Y-94999999D01*
X125154819Y-94190475D02*
X124154819Y-94190475D01*
X124154819Y-94190475D02*
X125154819Y-93619047D01*
X125154819Y-93619047D02*
X124154819Y-93619047D01*
X124250057Y-93190475D02*
X124202438Y-93142856D01*
X124202438Y-93142856D02*
X124154819Y-93047618D01*
X124154819Y-93047618D02*
X124154819Y-92809523D01*
X124154819Y-92809523D02*
X124202438Y-92714285D01*
X124202438Y-92714285D02*
X124250057Y-92666666D01*
X124250057Y-92666666D02*
X124345295Y-92619047D01*
X124345295Y-92619047D02*
X124440533Y-92619047D01*
X124440533Y-92619047D02*
X124583390Y-92666666D01*
X124583390Y-92666666D02*
X125154819Y-93238094D01*
X125154819Y-93238094D02*
X125154819Y-92619047D01*
X124583390Y-92047618D02*
X124535771Y-92142856D01*
X124535771Y-92142856D02*
X124488152Y-92190475D01*
X124488152Y-92190475D02*
X124392914Y-92238094D01*
X124392914Y-92238094D02*
X124345295Y-92238094D01*
X124345295Y-92238094D02*
X124250057Y-92190475D01*
X124250057Y-92190475D02*
X124202438Y-92142856D01*
X124202438Y-92142856D02*
X124154819Y-92047618D01*
X124154819Y-92047618D02*
X124154819Y-91857142D01*
X124154819Y-91857142D02*
X124202438Y-91761904D01*
X124202438Y-91761904D02*
X124250057Y-91714285D01*
X124250057Y-91714285D02*
X124345295Y-91666666D01*
X124345295Y-91666666D02*
X124392914Y-91666666D01*
X124392914Y-91666666D02*
X124488152Y-91714285D01*
X124488152Y-91714285D02*
X124535771Y-91761904D01*
X124535771Y-91761904D02*
X124583390Y-91857142D01*
X124583390Y-91857142D02*
X124583390Y-92047618D01*
X124583390Y-92047618D02*
X124631009Y-92142856D01*
X124631009Y-92142856D02*
X124678628Y-92190475D01*
X124678628Y-92190475D02*
X124773866Y-92238094D01*
X124773866Y-92238094D02*
X124964342Y-92238094D01*
X124964342Y-92238094D02*
X125059580Y-92190475D01*
X125059580Y-92190475D02*
X125107200Y-92142856D01*
X125107200Y-92142856D02*
X125154819Y-92047618D01*
X125154819Y-92047618D02*
X125154819Y-91857142D01*
X125154819Y-91857142D02*
X125107200Y-91761904D01*
X125107200Y-91761904D02*
X125059580Y-91714285D01*
X125059580Y-91714285D02*
X124964342Y-91666666D01*
X124964342Y-91666666D02*
X124773866Y-91666666D01*
X124773866Y-91666666D02*
X124678628Y-91714285D01*
X124678628Y-91714285D02*
X124631009Y-91761904D01*
X124631009Y-91761904D02*
X124583390Y-91857142D01*
X124154819Y-91047618D02*
X124154819Y-90952380D01*
X124154819Y-90952380D02*
X124202438Y-90857142D01*
X124202438Y-90857142D02*
X124250057Y-90809523D01*
X124250057Y-90809523D02*
X124345295Y-90761904D01*
X124345295Y-90761904D02*
X124535771Y-90714285D01*
X124535771Y-90714285D02*
X124773866Y-90714285D01*
X124773866Y-90714285D02*
X124964342Y-90761904D01*
X124964342Y-90761904D02*
X125059580Y-90809523D01*
X125059580Y-90809523D02*
X125107200Y-90857142D01*
X125107200Y-90857142D02*
X125154819Y-90952380D01*
X125154819Y-90952380D02*
X125154819Y-91047618D01*
X125154819Y-91047618D02*
X125107200Y-91142856D01*
X125107200Y-91142856D02*
X125059580Y-91190475D01*
X125059580Y-91190475D02*
X124964342Y-91238094D01*
X124964342Y-91238094D02*
X124773866Y-91285713D01*
X124773866Y-91285713D02*
X124535771Y-91285713D01*
X124535771Y-91285713D02*
X124345295Y-91238094D01*
X124345295Y-91238094D02*
X124250057Y-91190475D01*
X124250057Y-91190475D02*
X124202438Y-91142856D01*
X124202438Y-91142856D02*
X124154819Y-91047618D01*
X124154819Y-90380951D02*
X124154819Y-89761904D01*
X124154819Y-89761904D02*
X124535771Y-90095237D01*
X124535771Y-90095237D02*
X124535771Y-89952380D01*
X124535771Y-89952380D02*
X124583390Y-89857142D01*
X124583390Y-89857142D02*
X124631009Y-89809523D01*
X124631009Y-89809523D02*
X124726247Y-89761904D01*
X124726247Y-89761904D02*
X124964342Y-89761904D01*
X124964342Y-89761904D02*
X125059580Y-89809523D01*
X125059580Y-89809523D02*
X125107200Y-89857142D01*
X125107200Y-89857142D02*
X125154819Y-89952380D01*
X125154819Y-89952380D02*
X125154819Y-90238094D01*
X125154819Y-90238094D02*
X125107200Y-90333332D01*
X125107200Y-90333332D02*
X125059580Y-90380951D01*
X124869104Y-89380951D02*
X124869104Y-88904761D01*
X125154819Y-89476189D02*
X124154819Y-89142856D01*
X124154819Y-89142856D02*
X125154819Y-88809523D01*
D11*
X61982831Y-61953940D02*
X61354259Y-61953940D01*
X61668545Y-61953940D02*
X61668545Y-60853940D01*
X61668545Y-60853940D02*
X61563783Y-61011083D01*
X61563783Y-61011083D02*
X61459021Y-61115845D01*
X61459021Y-61115845D02*
X61354259Y-61168226D01*
X62401878Y-60958702D02*
X62454259Y-60906321D01*
X62454259Y-60906321D02*
X62559021Y-60853940D01*
X62559021Y-60853940D02*
X62820926Y-60853940D01*
X62820926Y-60853940D02*
X62925688Y-60906321D01*
X62925688Y-60906321D02*
X62978069Y-60958702D01*
X62978069Y-60958702D02*
X63030450Y-61063464D01*
X63030450Y-61063464D02*
X63030450Y-61168226D01*
X63030450Y-61168226D02*
X62978069Y-61325369D01*
X62978069Y-61325369D02*
X62349497Y-61953940D01*
X62349497Y-61953940D02*
X63030450Y-61953940D01*
X63501878Y-61534893D02*
X64339974Y-61534893D01*
X65439974Y-61953940D02*
X64811402Y-61953940D01*
X65125688Y-61953940D02*
X65125688Y-60853940D01*
X65125688Y-60853940D02*
X65020926Y-61011083D01*
X65020926Y-61011083D02*
X64916164Y-61115845D01*
X64916164Y-61115845D02*
X64811402Y-61168226D01*
X66382831Y-61220607D02*
X66382831Y-61953940D01*
X66120926Y-60801560D02*
X65859021Y-61587274D01*
X65859021Y-61587274D02*
X66539974Y-61587274D01*
X66801878Y-60853940D02*
X67168545Y-61953940D01*
X67168545Y-61953940D02*
X67535212Y-60853940D01*
X61506640Y-122253940D02*
X61506640Y-123144417D01*
X61506640Y-123144417D02*
X61559021Y-123249179D01*
X61559021Y-123249179D02*
X61611402Y-123301560D01*
X61611402Y-123301560D02*
X61716164Y-123353940D01*
X61716164Y-123353940D02*
X61925688Y-123353940D01*
X61925688Y-123353940D02*
X62030450Y-123301560D01*
X62030450Y-123301560D02*
X62082831Y-123249179D01*
X62082831Y-123249179D02*
X62135212Y-123144417D01*
X62135212Y-123144417D02*
X62135212Y-122253940D01*
X62606640Y-123039655D02*
X63130450Y-123039655D01*
X62501878Y-123353940D02*
X62868545Y-122253940D01*
X62868545Y-122253940D02*
X63235212Y-123353940D01*
X64230450Y-123353940D02*
X63863783Y-122830131D01*
X63601878Y-123353940D02*
X63601878Y-122253940D01*
X63601878Y-122253940D02*
X64020926Y-122253940D01*
X64020926Y-122253940D02*
X64125688Y-122306321D01*
X64125688Y-122306321D02*
X64178069Y-122358702D01*
X64178069Y-122358702D02*
X64230450Y-122463464D01*
X64230450Y-122463464D02*
X64230450Y-122620607D01*
X64230450Y-122620607D02*
X64178069Y-122725369D01*
X64178069Y-122725369D02*
X64125688Y-122777750D01*
X64125688Y-122777750D02*
X64020926Y-122830131D01*
X64020926Y-122830131D02*
X63601878Y-122830131D01*
X64544735Y-122253940D02*
X65173307Y-122253940D01*
X64859021Y-123353940D02*
X64859021Y-122253940D01*
X66116164Y-123353940D02*
X65487592Y-123353940D01*
X65801878Y-123353940D02*
X65801878Y-122253940D01*
X65801878Y-122253940D02*
X65697116Y-122411083D01*
X65697116Y-122411083D02*
X65592354Y-122515845D01*
X65592354Y-122515845D02*
X65487592Y-122568226D01*
X61554259Y-78058702D02*
X61606640Y-78006321D01*
X61606640Y-78006321D02*
X61711402Y-77953940D01*
X61711402Y-77953940D02*
X61973307Y-77953940D01*
X61973307Y-77953940D02*
X62078069Y-78006321D01*
X62078069Y-78006321D02*
X62130450Y-78058702D01*
X62130450Y-78058702D02*
X62182831Y-78163464D01*
X62182831Y-78163464D02*
X62182831Y-78268226D01*
X62182831Y-78268226D02*
X62130450Y-78425369D01*
X62130450Y-78425369D02*
X61501878Y-79053940D01*
X61501878Y-79053940D02*
X62182831Y-79053940D01*
X63125688Y-78320607D02*
X63125688Y-79053940D01*
X62863783Y-77901560D02*
X62601878Y-78687274D01*
X62601878Y-78687274D02*
X63282831Y-78687274D01*
X63701878Y-78634893D02*
X64539974Y-78634893D01*
X65011402Y-78058702D02*
X65063783Y-78006321D01*
X65063783Y-78006321D02*
X65168545Y-77953940D01*
X65168545Y-77953940D02*
X65430450Y-77953940D01*
X65430450Y-77953940D02*
X65535212Y-78006321D01*
X65535212Y-78006321D02*
X65587593Y-78058702D01*
X65587593Y-78058702D02*
X65639974Y-78163464D01*
X65639974Y-78163464D02*
X65639974Y-78268226D01*
X65639974Y-78268226D02*
X65587593Y-78425369D01*
X65587593Y-78425369D02*
X64959021Y-79053940D01*
X64959021Y-79053940D02*
X65639974Y-79053940D01*
X66006640Y-77953940D02*
X66739974Y-77953940D01*
X66739974Y-77953940D02*
X66268545Y-79053940D01*
X67001878Y-77953940D02*
X67368545Y-79053940D01*
X67368545Y-79053940D02*
X67735212Y-77953940D01*
X61606640Y-109453940D02*
X61606640Y-110344417D01*
X61606640Y-110344417D02*
X61659021Y-110449179D01*
X61659021Y-110449179D02*
X61711402Y-110501560D01*
X61711402Y-110501560D02*
X61816164Y-110553940D01*
X61816164Y-110553940D02*
X62025688Y-110553940D01*
X62025688Y-110553940D02*
X62130450Y-110501560D01*
X62130450Y-110501560D02*
X62182831Y-110449179D01*
X62182831Y-110449179D02*
X62235212Y-110344417D01*
X62235212Y-110344417D02*
X62235212Y-109453940D01*
X62706640Y-110239655D02*
X63230450Y-110239655D01*
X62601878Y-110553940D02*
X62968545Y-109453940D01*
X62968545Y-109453940D02*
X63335212Y-110553940D01*
X64330450Y-110553940D02*
X63963783Y-110030131D01*
X63701878Y-110553940D02*
X63701878Y-109453940D01*
X63701878Y-109453940D02*
X64120926Y-109453940D01*
X64120926Y-109453940D02*
X64225688Y-109506321D01*
X64225688Y-109506321D02*
X64278069Y-109558702D01*
X64278069Y-109558702D02*
X64330450Y-109663464D01*
X64330450Y-109663464D02*
X64330450Y-109820607D01*
X64330450Y-109820607D02*
X64278069Y-109925369D01*
X64278069Y-109925369D02*
X64225688Y-109977750D01*
X64225688Y-109977750D02*
X64120926Y-110030131D01*
X64120926Y-110030131D02*
X63701878Y-110030131D01*
X64644735Y-109453940D02*
X65273307Y-109453940D01*
X64959021Y-110553940D02*
X64959021Y-109453940D01*
X65849497Y-109453940D02*
X65954259Y-109453940D01*
X65954259Y-109453940D02*
X66059021Y-109506321D01*
X66059021Y-109506321D02*
X66111402Y-109558702D01*
X66111402Y-109558702D02*
X66163783Y-109663464D01*
X66163783Y-109663464D02*
X66216164Y-109872988D01*
X66216164Y-109872988D02*
X66216164Y-110134893D01*
X66216164Y-110134893D02*
X66163783Y-110344417D01*
X66163783Y-110344417D02*
X66111402Y-110449179D01*
X66111402Y-110449179D02*
X66059021Y-110501560D01*
X66059021Y-110501560D02*
X65954259Y-110553940D01*
X65954259Y-110553940D02*
X65849497Y-110553940D01*
X65849497Y-110553940D02*
X65744735Y-110501560D01*
X65744735Y-110501560D02*
X65692354Y-110449179D01*
X65692354Y-110449179D02*
X65639973Y-110344417D01*
X65639973Y-110344417D02*
X65587592Y-110134893D01*
X65587592Y-110134893D02*
X65587592Y-109872988D01*
X65587592Y-109872988D02*
X65639973Y-109663464D01*
X65639973Y-109663464D02*
X65692354Y-109558702D01*
X65692354Y-109558702D02*
X65744735Y-109506321D01*
X65744735Y-109506321D02*
X65849497Y-109453940D01*
X62606640Y-97453940D02*
X62606640Y-96353940D01*
X63078069Y-96458702D02*
X63130450Y-96406321D01*
X63130450Y-96406321D02*
X63235212Y-96353940D01*
X63235212Y-96353940D02*
X63497117Y-96353940D01*
X63497117Y-96353940D02*
X63601879Y-96406321D01*
X63601879Y-96406321D02*
X63654260Y-96458702D01*
X63654260Y-96458702D02*
X63706641Y-96563464D01*
X63706641Y-96563464D02*
X63706641Y-96668226D01*
X63706641Y-96668226D02*
X63654260Y-96825369D01*
X63654260Y-96825369D02*
X63025688Y-97453940D01*
X63025688Y-97453940D02*
X63706641Y-97453940D01*
X64806641Y-97349179D02*
X64754260Y-97401560D01*
X64754260Y-97401560D02*
X64597117Y-97453940D01*
X64597117Y-97453940D02*
X64492355Y-97453940D01*
X64492355Y-97453940D02*
X64335212Y-97401560D01*
X64335212Y-97401560D02*
X64230450Y-97296798D01*
X64230450Y-97296798D02*
X64178069Y-97192036D01*
X64178069Y-97192036D02*
X64125688Y-96982512D01*
X64125688Y-96982512D02*
X64125688Y-96825369D01*
X64125688Y-96825369D02*
X64178069Y-96615845D01*
X64178069Y-96615845D02*
X64230450Y-96511083D01*
X64230450Y-96511083D02*
X64335212Y-96406321D01*
X64335212Y-96406321D02*
X64492355Y-96353940D01*
X64492355Y-96353940D02*
X64597117Y-96353940D01*
X64597117Y-96353940D02*
X64754260Y-96406321D01*
X64754260Y-96406321D02*
X64806641Y-96458702D01*
X63382831Y-74406321D02*
X63278069Y-74353940D01*
X63278069Y-74353940D02*
X63120926Y-74353940D01*
X63120926Y-74353940D02*
X62963783Y-74406321D01*
X62963783Y-74406321D02*
X62859021Y-74511083D01*
X62859021Y-74511083D02*
X62806640Y-74615845D01*
X62806640Y-74615845D02*
X62754259Y-74825369D01*
X62754259Y-74825369D02*
X62754259Y-74982512D01*
X62754259Y-74982512D02*
X62806640Y-75192036D01*
X62806640Y-75192036D02*
X62859021Y-75296798D01*
X62859021Y-75296798D02*
X62963783Y-75401560D01*
X62963783Y-75401560D02*
X63120926Y-75453940D01*
X63120926Y-75453940D02*
X63225688Y-75453940D01*
X63225688Y-75453940D02*
X63382831Y-75401560D01*
X63382831Y-75401560D02*
X63435212Y-75349179D01*
X63435212Y-75349179D02*
X63435212Y-74982512D01*
X63435212Y-74982512D02*
X63225688Y-74982512D01*
X63906640Y-75453940D02*
X63906640Y-74353940D01*
X63906640Y-74353940D02*
X64535212Y-75453940D01*
X64535212Y-75453940D02*
X64535212Y-74353940D01*
X65059021Y-75453940D02*
X65059021Y-74353940D01*
X65059021Y-74353940D02*
X65320926Y-74353940D01*
X65320926Y-74353940D02*
X65478069Y-74406321D01*
X65478069Y-74406321D02*
X65582831Y-74511083D01*
X65582831Y-74511083D02*
X65635212Y-74615845D01*
X65635212Y-74615845D02*
X65687593Y-74825369D01*
X65687593Y-74825369D02*
X65687593Y-74982512D01*
X65687593Y-74982512D02*
X65635212Y-75192036D01*
X65635212Y-75192036D02*
X65582831Y-75296798D01*
X65582831Y-75296798D02*
X65478069Y-75401560D01*
X65478069Y-75401560D02*
X65320926Y-75453940D01*
X65320926Y-75453940D02*
X65059021Y-75453940D01*
X63482831Y-91406321D02*
X63378069Y-91353940D01*
X63378069Y-91353940D02*
X63220926Y-91353940D01*
X63220926Y-91353940D02*
X63063783Y-91406321D01*
X63063783Y-91406321D02*
X62959021Y-91511083D01*
X62959021Y-91511083D02*
X62906640Y-91615845D01*
X62906640Y-91615845D02*
X62854259Y-91825369D01*
X62854259Y-91825369D02*
X62854259Y-91982512D01*
X62854259Y-91982512D02*
X62906640Y-92192036D01*
X62906640Y-92192036D02*
X62959021Y-92296798D01*
X62959021Y-92296798D02*
X63063783Y-92401560D01*
X63063783Y-92401560D02*
X63220926Y-92453940D01*
X63220926Y-92453940D02*
X63325688Y-92453940D01*
X63325688Y-92453940D02*
X63482831Y-92401560D01*
X63482831Y-92401560D02*
X63535212Y-92349179D01*
X63535212Y-92349179D02*
X63535212Y-91982512D01*
X63535212Y-91982512D02*
X63325688Y-91982512D01*
X64006640Y-92453940D02*
X64006640Y-91353940D01*
X64006640Y-91353940D02*
X64635212Y-92453940D01*
X64635212Y-92453940D02*
X64635212Y-91353940D01*
X65159021Y-92453940D02*
X65159021Y-91353940D01*
X65159021Y-91353940D02*
X65420926Y-91353940D01*
X65420926Y-91353940D02*
X65578069Y-91406321D01*
X65578069Y-91406321D02*
X65682831Y-91511083D01*
X65682831Y-91511083D02*
X65735212Y-91615845D01*
X65735212Y-91615845D02*
X65787593Y-91825369D01*
X65787593Y-91825369D02*
X65787593Y-91982512D01*
X65787593Y-91982512D02*
X65735212Y-92192036D01*
X65735212Y-92192036D02*
X65682831Y-92296798D01*
X65682831Y-92296798D02*
X65578069Y-92401560D01*
X65578069Y-92401560D02*
X65420926Y-92453940D01*
X65420926Y-92453940D02*
X65159021Y-92453940D01*
X66730450Y-99053940D02*
X66206640Y-99053940D01*
X66206640Y-99053940D02*
X66154259Y-99577750D01*
X66154259Y-99577750D02*
X66206640Y-99525369D01*
X66206640Y-99525369D02*
X66311402Y-99472988D01*
X66311402Y-99472988D02*
X66573307Y-99472988D01*
X66573307Y-99472988D02*
X66678069Y-99525369D01*
X66678069Y-99525369D02*
X66730450Y-99577750D01*
X66730450Y-99577750D02*
X66782831Y-99682512D01*
X66782831Y-99682512D02*
X66782831Y-99944417D01*
X66782831Y-99944417D02*
X66730450Y-100049179D01*
X66730450Y-100049179D02*
X66678069Y-100101560D01*
X66678069Y-100101560D02*
X66573307Y-100153940D01*
X66573307Y-100153940D02*
X66311402Y-100153940D01*
X66311402Y-100153940D02*
X66206640Y-100101560D01*
X66206640Y-100101560D02*
X66154259Y-100049179D01*
X67097116Y-99053940D02*
X67463783Y-100153940D01*
X67463783Y-100153940D02*
X67830450Y-99053940D01*
X66154259Y-102501560D02*
X66311402Y-102553940D01*
X66311402Y-102553940D02*
X66573307Y-102553940D01*
X66573307Y-102553940D02*
X66678069Y-102501560D01*
X66678069Y-102501560D02*
X66730450Y-102449179D01*
X66730450Y-102449179D02*
X66782831Y-102344417D01*
X66782831Y-102344417D02*
X66782831Y-102239655D01*
X66782831Y-102239655D02*
X66730450Y-102134893D01*
X66730450Y-102134893D02*
X66678069Y-102082512D01*
X66678069Y-102082512D02*
X66573307Y-102030131D01*
X66573307Y-102030131D02*
X66363783Y-101977750D01*
X66363783Y-101977750D02*
X66259021Y-101925369D01*
X66259021Y-101925369D02*
X66206640Y-101872988D01*
X66206640Y-101872988D02*
X66154259Y-101768226D01*
X66154259Y-101768226D02*
X66154259Y-101663464D01*
X66154259Y-101663464D02*
X66206640Y-101558702D01*
X66206640Y-101558702D02*
X66259021Y-101506321D01*
X66259021Y-101506321D02*
X66363783Y-101453940D01*
X66363783Y-101453940D02*
X66625688Y-101453940D01*
X66625688Y-101453940D02*
X66782831Y-101506321D01*
X67254259Y-102553940D02*
X67254259Y-101453940D01*
X67254259Y-101453940D02*
X67516164Y-101453940D01*
X67516164Y-101453940D02*
X67673307Y-101506321D01*
X67673307Y-101506321D02*
X67778069Y-101611083D01*
X67778069Y-101611083D02*
X67830450Y-101715845D01*
X67830450Y-101715845D02*
X67882831Y-101925369D01*
X67882831Y-101925369D02*
X67882831Y-102082512D01*
X67882831Y-102082512D02*
X67830450Y-102292036D01*
X67830450Y-102292036D02*
X67778069Y-102396798D01*
X67778069Y-102396798D02*
X67673307Y-102501560D01*
X67673307Y-102501560D02*
X67516164Y-102553940D01*
X67516164Y-102553940D02*
X67254259Y-102553940D01*
X68301878Y-102239655D02*
X68825688Y-102239655D01*
X68197116Y-102553940D02*
X68563783Y-101453940D01*
X68563783Y-101453940D02*
X68930450Y-102553940D01*
X66154259Y-105101560D02*
X66311402Y-105153940D01*
X66311402Y-105153940D02*
X66573307Y-105153940D01*
X66573307Y-105153940D02*
X66678069Y-105101560D01*
X66678069Y-105101560D02*
X66730450Y-105049179D01*
X66730450Y-105049179D02*
X66782831Y-104944417D01*
X66782831Y-104944417D02*
X66782831Y-104839655D01*
X66782831Y-104839655D02*
X66730450Y-104734893D01*
X66730450Y-104734893D02*
X66678069Y-104682512D01*
X66678069Y-104682512D02*
X66573307Y-104630131D01*
X66573307Y-104630131D02*
X66363783Y-104577750D01*
X66363783Y-104577750D02*
X66259021Y-104525369D01*
X66259021Y-104525369D02*
X66206640Y-104472988D01*
X66206640Y-104472988D02*
X66154259Y-104368226D01*
X66154259Y-104368226D02*
X66154259Y-104263464D01*
X66154259Y-104263464D02*
X66206640Y-104158702D01*
X66206640Y-104158702D02*
X66259021Y-104106321D01*
X66259021Y-104106321D02*
X66363783Y-104053940D01*
X66363783Y-104053940D02*
X66625688Y-104053940D01*
X66625688Y-104053940D02*
X66782831Y-104106321D01*
X67882831Y-105049179D02*
X67830450Y-105101560D01*
X67830450Y-105101560D02*
X67673307Y-105153940D01*
X67673307Y-105153940D02*
X67568545Y-105153940D01*
X67568545Y-105153940D02*
X67411402Y-105101560D01*
X67411402Y-105101560D02*
X67306640Y-104996798D01*
X67306640Y-104996798D02*
X67254259Y-104892036D01*
X67254259Y-104892036D02*
X67201878Y-104682512D01*
X67201878Y-104682512D02*
X67201878Y-104525369D01*
X67201878Y-104525369D02*
X67254259Y-104315845D01*
X67254259Y-104315845D02*
X67306640Y-104211083D01*
X67306640Y-104211083D02*
X67411402Y-104106321D01*
X67411402Y-104106321D02*
X67568545Y-104053940D01*
X67568545Y-104053940D02*
X67673307Y-104053940D01*
X67673307Y-104053940D02*
X67830450Y-104106321D01*
X67830450Y-104106321D02*
X67882831Y-104158702D01*
X68878069Y-105153940D02*
X68354259Y-105153940D01*
X68354259Y-105153940D02*
X68354259Y-104053940D01*
X66782831Y-106806321D02*
X66678069Y-106753940D01*
X66678069Y-106753940D02*
X66520926Y-106753940D01*
X66520926Y-106753940D02*
X66363783Y-106806321D01*
X66363783Y-106806321D02*
X66259021Y-106911083D01*
X66259021Y-106911083D02*
X66206640Y-107015845D01*
X66206640Y-107015845D02*
X66154259Y-107225369D01*
X66154259Y-107225369D02*
X66154259Y-107382512D01*
X66154259Y-107382512D02*
X66206640Y-107592036D01*
X66206640Y-107592036D02*
X66259021Y-107696798D01*
X66259021Y-107696798D02*
X66363783Y-107801560D01*
X66363783Y-107801560D02*
X66520926Y-107853940D01*
X66520926Y-107853940D02*
X66625688Y-107853940D01*
X66625688Y-107853940D02*
X66782831Y-107801560D01*
X66782831Y-107801560D02*
X66835212Y-107749179D01*
X66835212Y-107749179D02*
X66835212Y-107382512D01*
X66835212Y-107382512D02*
X66625688Y-107382512D01*
X67306640Y-107853940D02*
X67306640Y-106753940D01*
X67306640Y-106753940D02*
X67935212Y-107853940D01*
X67935212Y-107853940D02*
X67935212Y-106753940D01*
X68459021Y-107853940D02*
X68459021Y-106753940D01*
X68459021Y-106753940D02*
X68720926Y-106753940D01*
X68720926Y-106753940D02*
X68878069Y-106806321D01*
X68878069Y-106806321D02*
X68982831Y-106911083D01*
X68982831Y-106911083D02*
X69035212Y-107015845D01*
X69035212Y-107015845D02*
X69087593Y-107225369D01*
X69087593Y-107225369D02*
X69087593Y-107382512D01*
X69087593Y-107382512D02*
X69035212Y-107592036D01*
X69035212Y-107592036D02*
X68982831Y-107696798D01*
X68982831Y-107696798D02*
X68878069Y-107801560D01*
X68878069Y-107801560D02*
X68720926Y-107853940D01*
X68720926Y-107853940D02*
X68459021Y-107853940D01*
X66782831Y-132406321D02*
X66678069Y-132353940D01*
X66678069Y-132353940D02*
X66520926Y-132353940D01*
X66520926Y-132353940D02*
X66363783Y-132406321D01*
X66363783Y-132406321D02*
X66259021Y-132511083D01*
X66259021Y-132511083D02*
X66206640Y-132615845D01*
X66206640Y-132615845D02*
X66154259Y-132825369D01*
X66154259Y-132825369D02*
X66154259Y-132982512D01*
X66154259Y-132982512D02*
X66206640Y-133192036D01*
X66206640Y-133192036D02*
X66259021Y-133296798D01*
X66259021Y-133296798D02*
X66363783Y-133401560D01*
X66363783Y-133401560D02*
X66520926Y-133453940D01*
X66520926Y-133453940D02*
X66625688Y-133453940D01*
X66625688Y-133453940D02*
X66782831Y-133401560D01*
X66782831Y-133401560D02*
X66835212Y-133349179D01*
X66835212Y-133349179D02*
X66835212Y-132982512D01*
X66835212Y-132982512D02*
X66625688Y-132982512D01*
X67306640Y-133453940D02*
X67306640Y-132353940D01*
X67306640Y-132353940D02*
X67935212Y-133453940D01*
X67935212Y-133453940D02*
X67935212Y-132353940D01*
X68459021Y-133453940D02*
X68459021Y-132353940D01*
X68459021Y-132353940D02*
X68720926Y-132353940D01*
X68720926Y-132353940D02*
X68878069Y-132406321D01*
X68878069Y-132406321D02*
X68982831Y-132511083D01*
X68982831Y-132511083D02*
X69035212Y-132615845D01*
X69035212Y-132615845D02*
X69087593Y-132825369D01*
X69087593Y-132825369D02*
X69087593Y-132982512D01*
X69087593Y-132982512D02*
X69035212Y-133192036D01*
X69035212Y-133192036D02*
X68982831Y-133296798D01*
X68982831Y-133296798D02*
X68878069Y-133401560D01*
X68878069Y-133401560D02*
X68720926Y-133453940D01*
X68720926Y-133453940D02*
X68459021Y-133453940D01*
X66882831Y-119706321D02*
X66778069Y-119653940D01*
X66778069Y-119653940D02*
X66620926Y-119653940D01*
X66620926Y-119653940D02*
X66463783Y-119706321D01*
X66463783Y-119706321D02*
X66359021Y-119811083D01*
X66359021Y-119811083D02*
X66306640Y-119915845D01*
X66306640Y-119915845D02*
X66254259Y-120125369D01*
X66254259Y-120125369D02*
X66254259Y-120282512D01*
X66254259Y-120282512D02*
X66306640Y-120492036D01*
X66306640Y-120492036D02*
X66359021Y-120596798D01*
X66359021Y-120596798D02*
X66463783Y-120701560D01*
X66463783Y-120701560D02*
X66620926Y-120753940D01*
X66620926Y-120753940D02*
X66725688Y-120753940D01*
X66725688Y-120753940D02*
X66882831Y-120701560D01*
X66882831Y-120701560D02*
X66935212Y-120649179D01*
X66935212Y-120649179D02*
X66935212Y-120282512D01*
X66935212Y-120282512D02*
X66725688Y-120282512D01*
X67406640Y-120753940D02*
X67406640Y-119653940D01*
X67406640Y-119653940D02*
X68035212Y-120753940D01*
X68035212Y-120753940D02*
X68035212Y-119653940D01*
X68559021Y-120753940D02*
X68559021Y-119653940D01*
X68559021Y-119653940D02*
X68820926Y-119653940D01*
X68820926Y-119653940D02*
X68978069Y-119706321D01*
X68978069Y-119706321D02*
X69082831Y-119811083D01*
X69082831Y-119811083D02*
X69135212Y-119915845D01*
X69135212Y-119915845D02*
X69187593Y-120125369D01*
X69187593Y-120125369D02*
X69187593Y-120282512D01*
X69187593Y-120282512D02*
X69135212Y-120492036D01*
X69135212Y-120492036D02*
X69082831Y-120596798D01*
X69082831Y-120596798D02*
X68978069Y-120701560D01*
X68978069Y-120701560D02*
X68820926Y-120753940D01*
X68820926Y-120753940D02*
X68559021Y-120753940D01*
X66930450Y-124853940D02*
X66406640Y-124853940D01*
X66406640Y-124853940D02*
X66354259Y-125377750D01*
X66354259Y-125377750D02*
X66406640Y-125325369D01*
X66406640Y-125325369D02*
X66511402Y-125272988D01*
X66511402Y-125272988D02*
X66773307Y-125272988D01*
X66773307Y-125272988D02*
X66878069Y-125325369D01*
X66878069Y-125325369D02*
X66930450Y-125377750D01*
X66930450Y-125377750D02*
X66982831Y-125482512D01*
X66982831Y-125482512D02*
X66982831Y-125744417D01*
X66982831Y-125744417D02*
X66930450Y-125849179D01*
X66930450Y-125849179D02*
X66878069Y-125901560D01*
X66878069Y-125901560D02*
X66773307Y-125953940D01*
X66773307Y-125953940D02*
X66511402Y-125953940D01*
X66511402Y-125953940D02*
X66406640Y-125901560D01*
X66406640Y-125901560D02*
X66354259Y-125849179D01*
X67297116Y-124853940D02*
X67663783Y-125953940D01*
X67663783Y-125953940D02*
X68030450Y-124853940D01*
X67035212Y-128453940D02*
X66668545Y-127930131D01*
X66406640Y-128453940D02*
X66406640Y-127353940D01*
X66406640Y-127353940D02*
X66825688Y-127353940D01*
X66825688Y-127353940D02*
X66930450Y-127406321D01*
X66930450Y-127406321D02*
X66982831Y-127458702D01*
X66982831Y-127458702D02*
X67035212Y-127563464D01*
X67035212Y-127563464D02*
X67035212Y-127720607D01*
X67035212Y-127720607D02*
X66982831Y-127825369D01*
X66982831Y-127825369D02*
X66930450Y-127877750D01*
X66930450Y-127877750D02*
X66825688Y-127930131D01*
X66825688Y-127930131D02*
X66406640Y-127930131D01*
X67401878Y-127353940D02*
X68135212Y-128453940D01*
X68135212Y-127353940D02*
X67401878Y-128453940D01*
X66249497Y-129753940D02*
X66878069Y-129753940D01*
X66563783Y-130853940D02*
X66563783Y-129753940D01*
X67139973Y-129753940D02*
X67873307Y-130853940D01*
X67873307Y-129753940D02*
X67139973Y-130853940D01*
X67030450Y-112153940D02*
X66506640Y-112153940D01*
X66506640Y-112153940D02*
X66454259Y-112677750D01*
X66454259Y-112677750D02*
X66506640Y-112625369D01*
X66506640Y-112625369D02*
X66611402Y-112572988D01*
X66611402Y-112572988D02*
X66873307Y-112572988D01*
X66873307Y-112572988D02*
X66978069Y-112625369D01*
X66978069Y-112625369D02*
X67030450Y-112677750D01*
X67030450Y-112677750D02*
X67082831Y-112782512D01*
X67082831Y-112782512D02*
X67082831Y-113044417D01*
X67082831Y-113044417D02*
X67030450Y-113149179D01*
X67030450Y-113149179D02*
X66978069Y-113201560D01*
X66978069Y-113201560D02*
X66873307Y-113253940D01*
X66873307Y-113253940D02*
X66611402Y-113253940D01*
X66611402Y-113253940D02*
X66506640Y-113201560D01*
X66506640Y-113201560D02*
X66454259Y-113149179D01*
X67397116Y-112153940D02*
X67763783Y-113253940D01*
X67763783Y-113253940D02*
X68130450Y-112153940D01*
X67135212Y-115753940D02*
X66768545Y-115230131D01*
X66506640Y-115753940D02*
X66506640Y-114653940D01*
X66506640Y-114653940D02*
X66925688Y-114653940D01*
X66925688Y-114653940D02*
X67030450Y-114706321D01*
X67030450Y-114706321D02*
X67082831Y-114758702D01*
X67082831Y-114758702D02*
X67135212Y-114863464D01*
X67135212Y-114863464D02*
X67135212Y-115020607D01*
X67135212Y-115020607D02*
X67082831Y-115125369D01*
X67082831Y-115125369D02*
X67030450Y-115177750D01*
X67030450Y-115177750D02*
X66925688Y-115230131D01*
X66925688Y-115230131D02*
X66506640Y-115230131D01*
X67501878Y-114653940D02*
X68235212Y-115753940D01*
X68235212Y-114653940D02*
X67501878Y-115753940D01*
X66349497Y-117053940D02*
X66978069Y-117053940D01*
X66663783Y-118153940D02*
X66663783Y-117053940D01*
X67239973Y-117053940D02*
X67973307Y-118153940D01*
X67973307Y-117053940D02*
X67239973Y-118153940D01*
X67006640Y-147153940D02*
X67006640Y-146053940D01*
X67006640Y-146053940D02*
X67425688Y-146053940D01*
X67425688Y-146053940D02*
X67530450Y-146106321D01*
X67530450Y-146106321D02*
X67582831Y-146158702D01*
X67582831Y-146158702D02*
X67635212Y-146263464D01*
X67635212Y-146263464D02*
X67635212Y-146420607D01*
X67635212Y-146420607D02*
X67582831Y-146525369D01*
X67582831Y-146525369D02*
X67530450Y-146577750D01*
X67530450Y-146577750D02*
X67425688Y-146630131D01*
X67425688Y-146630131D02*
X67006640Y-146630131D01*
X68001878Y-146053940D02*
X68263783Y-147153940D01*
X68263783Y-147153940D02*
X68473307Y-146368226D01*
X68473307Y-146368226D02*
X68682831Y-147153940D01*
X68682831Y-147153940D02*
X68944736Y-146053940D01*
X69992355Y-147153940D02*
X69625688Y-146630131D01*
X69363783Y-147153940D02*
X69363783Y-146053940D01*
X69363783Y-146053940D02*
X69782831Y-146053940D01*
X69782831Y-146053940D02*
X69887593Y-146106321D01*
X69887593Y-146106321D02*
X69939974Y-146158702D01*
X69939974Y-146158702D02*
X69992355Y-146263464D01*
X69992355Y-146263464D02*
X69992355Y-146420607D01*
X69992355Y-146420607D02*
X69939974Y-146525369D01*
X69939974Y-146525369D02*
X69887593Y-146577750D01*
X69887593Y-146577750D02*
X69782831Y-146630131D01*
X69782831Y-146630131D02*
X69363783Y-146630131D01*
X74435212Y-146949179D02*
X74382831Y-147001560D01*
X74382831Y-147001560D02*
X74225688Y-147053940D01*
X74225688Y-147053940D02*
X74120926Y-147053940D01*
X74120926Y-147053940D02*
X73963783Y-147001560D01*
X73963783Y-147001560D02*
X73859021Y-146896798D01*
X73859021Y-146896798D02*
X73806640Y-146792036D01*
X73806640Y-146792036D02*
X73754259Y-146582512D01*
X73754259Y-146582512D02*
X73754259Y-146425369D01*
X73754259Y-146425369D02*
X73806640Y-146215845D01*
X73806640Y-146215845D02*
X73859021Y-146111083D01*
X73859021Y-146111083D02*
X73963783Y-146006321D01*
X73963783Y-146006321D02*
X74120926Y-145953940D01*
X74120926Y-145953940D02*
X74225688Y-145953940D01*
X74225688Y-145953940D02*
X74382831Y-146006321D01*
X74382831Y-146006321D02*
X74435212Y-146058702D01*
X75116164Y-145953940D02*
X75325688Y-145953940D01*
X75325688Y-145953940D02*
X75430450Y-146006321D01*
X75430450Y-146006321D02*
X75535212Y-146111083D01*
X75535212Y-146111083D02*
X75587593Y-146320607D01*
X75587593Y-146320607D02*
X75587593Y-146687274D01*
X75587593Y-146687274D02*
X75535212Y-146896798D01*
X75535212Y-146896798D02*
X75430450Y-147001560D01*
X75430450Y-147001560D02*
X75325688Y-147053940D01*
X75325688Y-147053940D02*
X75116164Y-147053940D01*
X75116164Y-147053940D02*
X75011402Y-147001560D01*
X75011402Y-147001560D02*
X74906640Y-146896798D01*
X74906640Y-146896798D02*
X74854259Y-146687274D01*
X74854259Y-146687274D02*
X74854259Y-146320607D01*
X74854259Y-146320607D02*
X74906640Y-146111083D01*
X74906640Y-146111083D02*
X75011402Y-146006321D01*
X75011402Y-146006321D02*
X75116164Y-145953940D01*
X76059021Y-147053940D02*
X76059021Y-145953940D01*
X76059021Y-145953940D02*
X76687593Y-147053940D01*
X76687593Y-147053940D02*
X76687593Y-145953940D01*
X79906640Y-147053940D02*
X79906640Y-145953940D01*
X79906640Y-145953940D02*
X80325688Y-145953940D01*
X80325688Y-145953940D02*
X80430450Y-146006321D01*
X80430450Y-146006321D02*
X80482831Y-146058702D01*
X80482831Y-146058702D02*
X80535212Y-146163464D01*
X80535212Y-146163464D02*
X80535212Y-146320607D01*
X80535212Y-146320607D02*
X80482831Y-146425369D01*
X80482831Y-146425369D02*
X80430450Y-146477750D01*
X80430450Y-146477750D02*
X80325688Y-146530131D01*
X80325688Y-146530131D02*
X79906640Y-146530131D01*
X80849497Y-145953940D02*
X81478069Y-145953940D01*
X81163783Y-147053940D02*
X81163783Y-145953940D01*
X81687592Y-145953940D02*
X82316164Y-145953940D01*
X82001878Y-147053940D02*
X82001878Y-145953940D01*
X92335212Y-139549179D02*
X92282831Y-139601560D01*
X92282831Y-139601560D02*
X92125688Y-139653940D01*
X92125688Y-139653940D02*
X92020926Y-139653940D01*
X92020926Y-139653940D02*
X91863783Y-139601560D01*
X91863783Y-139601560D02*
X91759021Y-139496798D01*
X91759021Y-139496798D02*
X91706640Y-139392036D01*
X91706640Y-139392036D02*
X91654259Y-139182512D01*
X91654259Y-139182512D02*
X91654259Y-139025369D01*
X91654259Y-139025369D02*
X91706640Y-138815845D01*
X91706640Y-138815845D02*
X91759021Y-138711083D01*
X91759021Y-138711083D02*
X91863783Y-138606321D01*
X91863783Y-138606321D02*
X92020926Y-138553940D01*
X92020926Y-138553940D02*
X92125688Y-138553940D01*
X92125688Y-138553940D02*
X92282831Y-138606321D01*
X92282831Y-138606321D02*
X92335212Y-138658702D01*
X92701878Y-138553940D02*
X92963783Y-139653940D01*
X92963783Y-139653940D02*
X93173307Y-138868226D01*
X93173307Y-138868226D02*
X93382831Y-139653940D01*
X93382831Y-139653940D02*
X93644736Y-138553940D01*
X105406640Y-139353940D02*
X105406640Y-138253940D01*
X105930450Y-139353940D02*
X105930450Y-138253940D01*
X105930450Y-138253940D02*
X106559022Y-139353940D01*
X106559022Y-139353940D02*
X106559022Y-138253940D01*
X117916164Y-138153940D02*
X118125688Y-138153940D01*
X118125688Y-138153940D02*
X118230450Y-138206321D01*
X118230450Y-138206321D02*
X118335212Y-138311083D01*
X118335212Y-138311083D02*
X118387593Y-138520607D01*
X118387593Y-138520607D02*
X118387593Y-138887274D01*
X118387593Y-138887274D02*
X118335212Y-139096798D01*
X118335212Y-139096798D02*
X118230450Y-139201560D01*
X118230450Y-139201560D02*
X118125688Y-139253940D01*
X118125688Y-139253940D02*
X117916164Y-139253940D01*
X117916164Y-139253940D02*
X117811402Y-139201560D01*
X117811402Y-139201560D02*
X117706640Y-139096798D01*
X117706640Y-139096798D02*
X117654259Y-138887274D01*
X117654259Y-138887274D02*
X117654259Y-138520607D01*
X117654259Y-138520607D02*
X117706640Y-138311083D01*
X117706640Y-138311083D02*
X117811402Y-138206321D01*
X117811402Y-138206321D02*
X117916164Y-138153940D01*
X118859021Y-138153940D02*
X118859021Y-139044417D01*
X118859021Y-139044417D02*
X118911402Y-139149179D01*
X118911402Y-139149179D02*
X118963783Y-139201560D01*
X118963783Y-139201560D02*
X119068545Y-139253940D01*
X119068545Y-139253940D02*
X119278069Y-139253940D01*
X119278069Y-139253940D02*
X119382831Y-139201560D01*
X119382831Y-139201560D02*
X119435212Y-139149179D01*
X119435212Y-139149179D02*
X119487593Y-139044417D01*
X119487593Y-139044417D02*
X119487593Y-138153940D01*
X119854259Y-138153940D02*
X120482831Y-138153940D01*
X120168545Y-139253940D02*
X120168545Y-138153940D01*
X131882831Y-125853940D02*
X131254259Y-125853940D01*
X131568545Y-125853940D02*
X131568545Y-124753940D01*
X131568545Y-124753940D02*
X131463783Y-124911083D01*
X131463783Y-124911083D02*
X131359021Y-125015845D01*
X131359021Y-125015845D02*
X131254259Y-125068226D01*
X132301878Y-124858702D02*
X132354259Y-124806321D01*
X132354259Y-124806321D02*
X132459021Y-124753940D01*
X132459021Y-124753940D02*
X132720926Y-124753940D01*
X132720926Y-124753940D02*
X132825688Y-124806321D01*
X132825688Y-124806321D02*
X132878069Y-124858702D01*
X132878069Y-124858702D02*
X132930450Y-124963464D01*
X132930450Y-124963464D02*
X132930450Y-125068226D01*
X132930450Y-125068226D02*
X132878069Y-125225369D01*
X132878069Y-125225369D02*
X132249497Y-125853940D01*
X132249497Y-125853940D02*
X132930450Y-125853940D01*
X133244735Y-124753940D02*
X133611402Y-125853940D01*
X133611402Y-125853940D02*
X133978069Y-124753940D01*
X131254259Y-127358702D02*
X131306640Y-127306321D01*
X131306640Y-127306321D02*
X131411402Y-127253940D01*
X131411402Y-127253940D02*
X131673307Y-127253940D01*
X131673307Y-127253940D02*
X131778069Y-127306321D01*
X131778069Y-127306321D02*
X131830450Y-127358702D01*
X131830450Y-127358702D02*
X131882831Y-127463464D01*
X131882831Y-127463464D02*
X131882831Y-127568226D01*
X131882831Y-127568226D02*
X131830450Y-127725369D01*
X131830450Y-127725369D02*
X131201878Y-128353940D01*
X131201878Y-128353940D02*
X131882831Y-128353940D01*
X132825688Y-127620607D02*
X132825688Y-128353940D01*
X132563783Y-127201560D02*
X132301878Y-127987274D01*
X132301878Y-127987274D02*
X132982831Y-127987274D01*
X133244735Y-127253940D02*
X133611402Y-128353940D01*
X133611402Y-128353940D02*
X133978069Y-127253940D01*
X131882831Y-129906321D02*
X131778069Y-129853940D01*
X131778069Y-129853940D02*
X131620926Y-129853940D01*
X131620926Y-129853940D02*
X131463783Y-129906321D01*
X131463783Y-129906321D02*
X131359021Y-130011083D01*
X131359021Y-130011083D02*
X131306640Y-130115845D01*
X131306640Y-130115845D02*
X131254259Y-130325369D01*
X131254259Y-130325369D02*
X131254259Y-130482512D01*
X131254259Y-130482512D02*
X131306640Y-130692036D01*
X131306640Y-130692036D02*
X131359021Y-130796798D01*
X131359021Y-130796798D02*
X131463783Y-130901560D01*
X131463783Y-130901560D02*
X131620926Y-130953940D01*
X131620926Y-130953940D02*
X131725688Y-130953940D01*
X131725688Y-130953940D02*
X131882831Y-130901560D01*
X131882831Y-130901560D02*
X131935212Y-130849179D01*
X131935212Y-130849179D02*
X131935212Y-130482512D01*
X131935212Y-130482512D02*
X131725688Y-130482512D01*
X132406640Y-130953940D02*
X132406640Y-129853940D01*
X132406640Y-129853940D02*
X133035212Y-130953940D01*
X133035212Y-130953940D02*
X133035212Y-129853940D01*
X133559021Y-130953940D02*
X133559021Y-129853940D01*
X133559021Y-129853940D02*
X133820926Y-129853940D01*
X133820926Y-129853940D02*
X133978069Y-129906321D01*
X133978069Y-129906321D02*
X134082831Y-130011083D01*
X134082831Y-130011083D02*
X134135212Y-130115845D01*
X134135212Y-130115845D02*
X134187593Y-130325369D01*
X134187593Y-130325369D02*
X134187593Y-130482512D01*
X134187593Y-130482512D02*
X134135212Y-130692036D01*
X134135212Y-130692036D02*
X134082831Y-130796798D01*
X134082831Y-130796798D02*
X133978069Y-130901560D01*
X133978069Y-130901560D02*
X133820926Y-130953940D01*
X133820926Y-130953940D02*
X133559021Y-130953940D01*
X132682831Y-67653940D02*
X132054259Y-67653940D01*
X132368545Y-67653940D02*
X132368545Y-66553940D01*
X132368545Y-66553940D02*
X132263783Y-66711083D01*
X132263783Y-66711083D02*
X132159021Y-66815845D01*
X132159021Y-66815845D02*
X132054259Y-66868226D01*
X133101878Y-66658702D02*
X133154259Y-66606321D01*
X133154259Y-66606321D02*
X133259021Y-66553940D01*
X133259021Y-66553940D02*
X133520926Y-66553940D01*
X133520926Y-66553940D02*
X133625688Y-66606321D01*
X133625688Y-66606321D02*
X133678069Y-66658702D01*
X133678069Y-66658702D02*
X133730450Y-66763464D01*
X133730450Y-66763464D02*
X133730450Y-66868226D01*
X133730450Y-66868226D02*
X133678069Y-67025369D01*
X133678069Y-67025369D02*
X133049497Y-67653940D01*
X133049497Y-67653940D02*
X133730450Y-67653940D01*
X134044735Y-66553940D02*
X134411402Y-67653940D01*
X134411402Y-67653940D02*
X134778069Y-66553940D01*
X132054259Y-69158702D02*
X132106640Y-69106321D01*
X132106640Y-69106321D02*
X132211402Y-69053940D01*
X132211402Y-69053940D02*
X132473307Y-69053940D01*
X132473307Y-69053940D02*
X132578069Y-69106321D01*
X132578069Y-69106321D02*
X132630450Y-69158702D01*
X132630450Y-69158702D02*
X132682831Y-69263464D01*
X132682831Y-69263464D02*
X132682831Y-69368226D01*
X132682831Y-69368226D02*
X132630450Y-69525369D01*
X132630450Y-69525369D02*
X132001878Y-70153940D01*
X132001878Y-70153940D02*
X132682831Y-70153940D01*
X133625688Y-69420607D02*
X133625688Y-70153940D01*
X133363783Y-69001560D02*
X133101878Y-69787274D01*
X133101878Y-69787274D02*
X133782831Y-69787274D01*
X134044735Y-69053940D02*
X134411402Y-70153940D01*
X134411402Y-70153940D02*
X134778069Y-69053940D01*
X132682831Y-71706321D02*
X132578069Y-71653940D01*
X132578069Y-71653940D02*
X132420926Y-71653940D01*
X132420926Y-71653940D02*
X132263783Y-71706321D01*
X132263783Y-71706321D02*
X132159021Y-71811083D01*
X132159021Y-71811083D02*
X132106640Y-71915845D01*
X132106640Y-71915845D02*
X132054259Y-72125369D01*
X132054259Y-72125369D02*
X132054259Y-72282512D01*
X132054259Y-72282512D02*
X132106640Y-72492036D01*
X132106640Y-72492036D02*
X132159021Y-72596798D01*
X132159021Y-72596798D02*
X132263783Y-72701560D01*
X132263783Y-72701560D02*
X132420926Y-72753940D01*
X132420926Y-72753940D02*
X132525688Y-72753940D01*
X132525688Y-72753940D02*
X132682831Y-72701560D01*
X132682831Y-72701560D02*
X132735212Y-72649179D01*
X132735212Y-72649179D02*
X132735212Y-72282512D01*
X132735212Y-72282512D02*
X132525688Y-72282512D01*
X133206640Y-72753940D02*
X133206640Y-71653940D01*
X133206640Y-71653940D02*
X133835212Y-72753940D01*
X133835212Y-72753940D02*
X133835212Y-71653940D01*
X134359021Y-72753940D02*
X134359021Y-71653940D01*
X134359021Y-71653940D02*
X134620926Y-71653940D01*
X134620926Y-71653940D02*
X134778069Y-71706321D01*
X134778069Y-71706321D02*
X134882831Y-71811083D01*
X134882831Y-71811083D02*
X134935212Y-71915845D01*
X134935212Y-71915845D02*
X134987593Y-72125369D01*
X134987593Y-72125369D02*
X134987593Y-72282512D01*
X134987593Y-72282512D02*
X134935212Y-72492036D01*
X134935212Y-72492036D02*
X134882831Y-72596798D01*
X134882831Y-72596798D02*
X134778069Y-72701560D01*
X134778069Y-72701560D02*
X134620926Y-72753940D01*
X134620926Y-72753940D02*
X134359021Y-72753940D01*
X136116164Y-121553940D02*
X136325688Y-121553940D01*
X136325688Y-121553940D02*
X136430450Y-121606321D01*
X136430450Y-121606321D02*
X136535212Y-121711083D01*
X136535212Y-121711083D02*
X136587593Y-121920607D01*
X136587593Y-121920607D02*
X136587593Y-122287274D01*
X136587593Y-122287274D02*
X136535212Y-122496798D01*
X136535212Y-122496798D02*
X136430450Y-122601560D01*
X136430450Y-122601560D02*
X136325688Y-122653940D01*
X136325688Y-122653940D02*
X136116164Y-122653940D01*
X136116164Y-122653940D02*
X136011402Y-122601560D01*
X136011402Y-122601560D02*
X135906640Y-122496798D01*
X135906640Y-122496798D02*
X135854259Y-122287274D01*
X135854259Y-122287274D02*
X135854259Y-121920607D01*
X135854259Y-121920607D02*
X135906640Y-121711083D01*
X135906640Y-121711083D02*
X136011402Y-121606321D01*
X136011402Y-121606321D02*
X136116164Y-121553940D01*
X137059021Y-121553940D02*
X137059021Y-122444417D01*
X137059021Y-122444417D02*
X137111402Y-122549179D01*
X137111402Y-122549179D02*
X137163783Y-122601560D01*
X137163783Y-122601560D02*
X137268545Y-122653940D01*
X137268545Y-122653940D02*
X137478069Y-122653940D01*
X137478069Y-122653940D02*
X137582831Y-122601560D01*
X137582831Y-122601560D02*
X137635212Y-122549179D01*
X137635212Y-122549179D02*
X137687593Y-122444417D01*
X137687593Y-122444417D02*
X137687593Y-121553940D01*
X138054259Y-121553940D02*
X138682831Y-121553940D01*
X138368545Y-122653940D02*
X138368545Y-121553940D01*
X138997116Y-121658702D02*
X139049497Y-121606321D01*
X139049497Y-121606321D02*
X139154259Y-121553940D01*
X139154259Y-121553940D02*
X139416164Y-121553940D01*
X139416164Y-121553940D02*
X139520926Y-121606321D01*
X139520926Y-121606321D02*
X139573307Y-121658702D01*
X139573307Y-121658702D02*
X139625688Y-121763464D01*
X139625688Y-121763464D02*
X139625688Y-121868226D01*
X139625688Y-121868226D02*
X139573307Y-122025369D01*
X139573307Y-122025369D02*
X138944735Y-122653940D01*
X138944735Y-122653940D02*
X139625688Y-122653940D01*
X136416164Y-62853940D02*
X136625688Y-62853940D01*
X136625688Y-62853940D02*
X136730450Y-62906321D01*
X136730450Y-62906321D02*
X136835212Y-63011083D01*
X136835212Y-63011083D02*
X136887593Y-63220607D01*
X136887593Y-63220607D02*
X136887593Y-63587274D01*
X136887593Y-63587274D02*
X136835212Y-63796798D01*
X136835212Y-63796798D02*
X136730450Y-63901560D01*
X136730450Y-63901560D02*
X136625688Y-63953940D01*
X136625688Y-63953940D02*
X136416164Y-63953940D01*
X136416164Y-63953940D02*
X136311402Y-63901560D01*
X136311402Y-63901560D02*
X136206640Y-63796798D01*
X136206640Y-63796798D02*
X136154259Y-63587274D01*
X136154259Y-63587274D02*
X136154259Y-63220607D01*
X136154259Y-63220607D02*
X136206640Y-63011083D01*
X136206640Y-63011083D02*
X136311402Y-62906321D01*
X136311402Y-62906321D02*
X136416164Y-62853940D01*
X137359021Y-62853940D02*
X137359021Y-63744417D01*
X137359021Y-63744417D02*
X137411402Y-63849179D01*
X137411402Y-63849179D02*
X137463783Y-63901560D01*
X137463783Y-63901560D02*
X137568545Y-63953940D01*
X137568545Y-63953940D02*
X137778069Y-63953940D01*
X137778069Y-63953940D02*
X137882831Y-63901560D01*
X137882831Y-63901560D02*
X137935212Y-63849179D01*
X137935212Y-63849179D02*
X137987593Y-63744417D01*
X137987593Y-63744417D02*
X137987593Y-62853940D01*
X138354259Y-62853940D02*
X138982831Y-62853940D01*
X138668545Y-63953940D02*
X138668545Y-62853940D01*
X139925688Y-63953940D02*
X139297116Y-63953940D01*
X139611402Y-63953940D02*
X139611402Y-62853940D01*
X139611402Y-62853940D02*
X139506640Y-63011083D01*
X139506640Y-63011083D02*
X139401878Y-63115845D01*
X139401878Y-63115845D02*
X139297116Y-63168226D01*
X137306640Y-51353940D02*
X137306640Y-50253940D01*
X137306640Y-50253940D02*
X137725688Y-50253940D01*
X137725688Y-50253940D02*
X137830450Y-50306321D01*
X137830450Y-50306321D02*
X137882831Y-50358702D01*
X137882831Y-50358702D02*
X137935212Y-50463464D01*
X137935212Y-50463464D02*
X137935212Y-50620607D01*
X137935212Y-50620607D02*
X137882831Y-50725369D01*
X137882831Y-50725369D02*
X137830450Y-50777750D01*
X137830450Y-50777750D02*
X137725688Y-50830131D01*
X137725688Y-50830131D02*
X137306640Y-50830131D01*
X138249497Y-50253940D02*
X138878069Y-50253940D01*
X138563783Y-51353940D02*
X138563783Y-50253940D01*
X139087592Y-50253940D02*
X139716164Y-50253940D01*
X139401878Y-51353940D02*
X139401878Y-50253940D01*
X180516164Y-96953940D02*
X180725688Y-96953940D01*
X180725688Y-96953940D02*
X180830450Y-97006321D01*
X180830450Y-97006321D02*
X180935212Y-97111083D01*
X180935212Y-97111083D02*
X180987593Y-97320607D01*
X180987593Y-97320607D02*
X180987593Y-97687274D01*
X180987593Y-97687274D02*
X180935212Y-97896798D01*
X180935212Y-97896798D02*
X180830450Y-98001560D01*
X180830450Y-98001560D02*
X180725688Y-98053940D01*
X180725688Y-98053940D02*
X180516164Y-98053940D01*
X180516164Y-98053940D02*
X180411402Y-98001560D01*
X180411402Y-98001560D02*
X180306640Y-97896798D01*
X180306640Y-97896798D02*
X180254259Y-97687274D01*
X180254259Y-97687274D02*
X180254259Y-97320607D01*
X180254259Y-97320607D02*
X180306640Y-97111083D01*
X180306640Y-97111083D02*
X180411402Y-97006321D01*
X180411402Y-97006321D02*
X180516164Y-96953940D01*
X181459021Y-96953940D02*
X181459021Y-97844417D01*
X181459021Y-97844417D02*
X181511402Y-97949179D01*
X181511402Y-97949179D02*
X181563783Y-98001560D01*
X181563783Y-98001560D02*
X181668545Y-98053940D01*
X181668545Y-98053940D02*
X181878069Y-98053940D01*
X181878069Y-98053940D02*
X181982831Y-98001560D01*
X181982831Y-98001560D02*
X182035212Y-97949179D01*
X182035212Y-97949179D02*
X182087593Y-97844417D01*
X182087593Y-97844417D02*
X182087593Y-96953940D01*
X182454259Y-96953940D02*
X183082831Y-96953940D01*
X182768545Y-98053940D02*
X182768545Y-96953940D01*
X183397116Y-97058702D02*
X183449497Y-97006321D01*
X183449497Y-97006321D02*
X183554259Y-96953940D01*
X183554259Y-96953940D02*
X183816164Y-96953940D01*
X183816164Y-96953940D02*
X183920926Y-97006321D01*
X183920926Y-97006321D02*
X183973307Y-97058702D01*
X183973307Y-97058702D02*
X184025688Y-97163464D01*
X184025688Y-97163464D02*
X184025688Y-97268226D01*
X184025688Y-97268226D02*
X183973307Y-97425369D01*
X183973307Y-97425369D02*
X183344735Y-98053940D01*
X183344735Y-98053940D02*
X184025688Y-98053940D01*
X180616164Y-46453940D02*
X180825688Y-46453940D01*
X180825688Y-46453940D02*
X180930450Y-46506321D01*
X180930450Y-46506321D02*
X181035212Y-46611083D01*
X181035212Y-46611083D02*
X181087593Y-46820607D01*
X181087593Y-46820607D02*
X181087593Y-47187274D01*
X181087593Y-47187274D02*
X181035212Y-47396798D01*
X181035212Y-47396798D02*
X180930450Y-47501560D01*
X180930450Y-47501560D02*
X180825688Y-47553940D01*
X180825688Y-47553940D02*
X180616164Y-47553940D01*
X180616164Y-47553940D02*
X180511402Y-47501560D01*
X180511402Y-47501560D02*
X180406640Y-47396798D01*
X180406640Y-47396798D02*
X180354259Y-47187274D01*
X180354259Y-47187274D02*
X180354259Y-46820607D01*
X180354259Y-46820607D02*
X180406640Y-46611083D01*
X180406640Y-46611083D02*
X180511402Y-46506321D01*
X180511402Y-46506321D02*
X180616164Y-46453940D01*
X181559021Y-46453940D02*
X181559021Y-47344417D01*
X181559021Y-47344417D02*
X181611402Y-47449179D01*
X181611402Y-47449179D02*
X181663783Y-47501560D01*
X181663783Y-47501560D02*
X181768545Y-47553940D01*
X181768545Y-47553940D02*
X181978069Y-47553940D01*
X181978069Y-47553940D02*
X182082831Y-47501560D01*
X182082831Y-47501560D02*
X182135212Y-47449179D01*
X182135212Y-47449179D02*
X182187593Y-47344417D01*
X182187593Y-47344417D02*
X182187593Y-46453940D01*
X182554259Y-46453940D02*
X183182831Y-46453940D01*
X182868545Y-47553940D02*
X182868545Y-46453940D01*
X184125688Y-47553940D02*
X183497116Y-47553940D01*
X183811402Y-47553940D02*
X183811402Y-46453940D01*
X183811402Y-46453940D02*
X183706640Y-46611083D01*
X183706640Y-46611083D02*
X183601878Y-46715845D01*
X183601878Y-46715845D02*
X183497116Y-46768226D01*
X188482831Y-91406321D02*
X188378069Y-91353940D01*
X188378069Y-91353940D02*
X188220926Y-91353940D01*
X188220926Y-91353940D02*
X188063783Y-91406321D01*
X188063783Y-91406321D02*
X187959021Y-91511083D01*
X187959021Y-91511083D02*
X187906640Y-91615845D01*
X187906640Y-91615845D02*
X187854259Y-91825369D01*
X187854259Y-91825369D02*
X187854259Y-91982512D01*
X187854259Y-91982512D02*
X187906640Y-92192036D01*
X187906640Y-92192036D02*
X187959021Y-92296798D01*
X187959021Y-92296798D02*
X188063783Y-92401560D01*
X188063783Y-92401560D02*
X188220926Y-92453940D01*
X188220926Y-92453940D02*
X188325688Y-92453940D01*
X188325688Y-92453940D02*
X188482831Y-92401560D01*
X188482831Y-92401560D02*
X188535212Y-92349179D01*
X188535212Y-92349179D02*
X188535212Y-91982512D01*
X188535212Y-91982512D02*
X188325688Y-91982512D01*
X189006640Y-92453940D02*
X189006640Y-91353940D01*
X189006640Y-91353940D02*
X189635212Y-92453940D01*
X189635212Y-92453940D02*
X189635212Y-91353940D01*
X190159021Y-92453940D02*
X190159021Y-91353940D01*
X190159021Y-91353940D02*
X190420926Y-91353940D01*
X190420926Y-91353940D02*
X190578069Y-91406321D01*
X190578069Y-91406321D02*
X190682831Y-91511083D01*
X190682831Y-91511083D02*
X190735212Y-91615845D01*
X190735212Y-91615845D02*
X190787593Y-91825369D01*
X190787593Y-91825369D02*
X190787593Y-91982512D01*
X190787593Y-91982512D02*
X190735212Y-92192036D01*
X190735212Y-92192036D02*
X190682831Y-92296798D01*
X190682831Y-92296798D02*
X190578069Y-92401560D01*
X190578069Y-92401560D02*
X190420926Y-92453940D01*
X190420926Y-92453940D02*
X190159021Y-92453940D01*
X188582831Y-141506321D02*
X188478069Y-141453940D01*
X188478069Y-141453940D02*
X188320926Y-141453940D01*
X188320926Y-141453940D02*
X188163783Y-141506321D01*
X188163783Y-141506321D02*
X188059021Y-141611083D01*
X188059021Y-141611083D02*
X188006640Y-141715845D01*
X188006640Y-141715845D02*
X187954259Y-141925369D01*
X187954259Y-141925369D02*
X187954259Y-142082512D01*
X187954259Y-142082512D02*
X188006640Y-142292036D01*
X188006640Y-142292036D02*
X188059021Y-142396798D01*
X188059021Y-142396798D02*
X188163783Y-142501560D01*
X188163783Y-142501560D02*
X188320926Y-142553940D01*
X188320926Y-142553940D02*
X188425688Y-142553940D01*
X188425688Y-142553940D02*
X188582831Y-142501560D01*
X188582831Y-142501560D02*
X188635212Y-142449179D01*
X188635212Y-142449179D02*
X188635212Y-142082512D01*
X188635212Y-142082512D02*
X188425688Y-142082512D01*
X189106640Y-142553940D02*
X189106640Y-141453940D01*
X189106640Y-141453940D02*
X189735212Y-142553940D01*
X189735212Y-142553940D02*
X189735212Y-141453940D01*
X190259021Y-142553940D02*
X190259021Y-141453940D01*
X190259021Y-141453940D02*
X190520926Y-141453940D01*
X190520926Y-141453940D02*
X190678069Y-141506321D01*
X190678069Y-141506321D02*
X190782831Y-141611083D01*
X190782831Y-141611083D02*
X190835212Y-141715845D01*
X190835212Y-141715845D02*
X190887593Y-141925369D01*
X190887593Y-141925369D02*
X190887593Y-142082512D01*
X190887593Y-142082512D02*
X190835212Y-142292036D01*
X190835212Y-142292036D02*
X190782831Y-142396798D01*
X190782831Y-142396798D02*
X190678069Y-142501560D01*
X190678069Y-142501560D02*
X190520926Y-142553940D01*
X190520926Y-142553940D02*
X190259021Y-142553940D01*
X189382831Y-52553940D02*
X188754259Y-52553940D01*
X189068545Y-52553940D02*
X189068545Y-51453940D01*
X189068545Y-51453940D02*
X188963783Y-51611083D01*
X188963783Y-51611083D02*
X188859021Y-51715845D01*
X188859021Y-51715845D02*
X188754259Y-51768226D01*
X188754259Y-56530131D02*
X188806640Y-56477750D01*
X188806640Y-56477750D02*
X188911402Y-56425369D01*
X188911402Y-56425369D02*
X189173307Y-56425369D01*
X189173307Y-56425369D02*
X189278069Y-56477750D01*
X189278069Y-56477750D02*
X189330450Y-56530131D01*
X189330450Y-56530131D02*
X189382831Y-56634893D01*
X189382831Y-56634893D02*
X189382831Y-56739655D01*
X189382831Y-56739655D02*
X189330450Y-56896798D01*
X189330450Y-56896798D02*
X188701878Y-57525369D01*
X188701878Y-57525369D02*
X189382831Y-57525369D01*
X188701878Y-61396797D02*
X189382831Y-61396797D01*
X189382831Y-61396797D02*
X189016164Y-61815845D01*
X189016164Y-61815845D02*
X189173307Y-61815845D01*
X189173307Y-61815845D02*
X189278069Y-61868226D01*
X189278069Y-61868226D02*
X189330450Y-61920607D01*
X189330450Y-61920607D02*
X189382831Y-62025369D01*
X189382831Y-62025369D02*
X189382831Y-62287274D01*
X189382831Y-62287274D02*
X189330450Y-62392036D01*
X189330450Y-62392036D02*
X189278069Y-62444417D01*
X189278069Y-62444417D02*
X189173307Y-62496797D01*
X189173307Y-62496797D02*
X188859021Y-62496797D01*
X188859021Y-62496797D02*
X188754259Y-62444417D01*
X188754259Y-62444417D02*
X188701878Y-62392036D01*
X189278069Y-66734893D02*
X189278069Y-67468226D01*
X189016164Y-66315846D02*
X188754259Y-67101560D01*
X188754259Y-67101560D02*
X189435212Y-67101560D01*
X189330450Y-71339654D02*
X188806640Y-71339654D01*
X188806640Y-71339654D02*
X188754259Y-71863464D01*
X188754259Y-71863464D02*
X188806640Y-71811083D01*
X188806640Y-71811083D02*
X188911402Y-71758702D01*
X188911402Y-71758702D02*
X189173307Y-71758702D01*
X189173307Y-71758702D02*
X189278069Y-71811083D01*
X189278069Y-71811083D02*
X189330450Y-71863464D01*
X189330450Y-71863464D02*
X189382831Y-71968226D01*
X189382831Y-71968226D02*
X189382831Y-72230131D01*
X189382831Y-72230131D02*
X189330450Y-72334893D01*
X189330450Y-72334893D02*
X189278069Y-72387274D01*
X189278069Y-72387274D02*
X189173307Y-72439654D01*
X189173307Y-72439654D02*
X188911402Y-72439654D01*
X188911402Y-72439654D02*
X188806640Y-72387274D01*
X188806640Y-72387274D02*
X188754259Y-72334893D01*
X189278069Y-76311083D02*
X189068545Y-76311083D01*
X189068545Y-76311083D02*
X188963783Y-76363464D01*
X188963783Y-76363464D02*
X188911402Y-76415845D01*
X188911402Y-76415845D02*
X188806640Y-76572988D01*
X188806640Y-76572988D02*
X188754259Y-76782512D01*
X188754259Y-76782512D02*
X188754259Y-77201560D01*
X188754259Y-77201560D02*
X188806640Y-77306322D01*
X188806640Y-77306322D02*
X188859021Y-77358703D01*
X188859021Y-77358703D02*
X188963783Y-77411083D01*
X188963783Y-77411083D02*
X189173307Y-77411083D01*
X189173307Y-77411083D02*
X189278069Y-77358703D01*
X189278069Y-77358703D02*
X189330450Y-77306322D01*
X189330450Y-77306322D02*
X189382831Y-77201560D01*
X189382831Y-77201560D02*
X189382831Y-76939655D01*
X189382831Y-76939655D02*
X189330450Y-76834893D01*
X189330450Y-76834893D02*
X189278069Y-76782512D01*
X189278069Y-76782512D02*
X189173307Y-76730131D01*
X189173307Y-76730131D02*
X188963783Y-76730131D01*
X188963783Y-76730131D02*
X188859021Y-76782512D01*
X188859021Y-76782512D02*
X188806640Y-76834893D01*
X188806640Y-76834893D02*
X188754259Y-76939655D01*
X188701878Y-81282511D02*
X189435212Y-81282511D01*
X189435212Y-81282511D02*
X188963783Y-82382511D01*
X188963783Y-86725369D02*
X188859021Y-86672988D01*
X188859021Y-86672988D02*
X188806640Y-86620607D01*
X188806640Y-86620607D02*
X188754259Y-86515845D01*
X188754259Y-86515845D02*
X188754259Y-86463464D01*
X188754259Y-86463464D02*
X188806640Y-86358702D01*
X188806640Y-86358702D02*
X188859021Y-86306321D01*
X188859021Y-86306321D02*
X188963783Y-86253940D01*
X188963783Y-86253940D02*
X189173307Y-86253940D01*
X189173307Y-86253940D02*
X189278069Y-86306321D01*
X189278069Y-86306321D02*
X189330450Y-86358702D01*
X189330450Y-86358702D02*
X189382831Y-86463464D01*
X189382831Y-86463464D02*
X189382831Y-86515845D01*
X189382831Y-86515845D02*
X189330450Y-86620607D01*
X189330450Y-86620607D02*
X189278069Y-86672988D01*
X189278069Y-86672988D02*
X189173307Y-86725369D01*
X189173307Y-86725369D02*
X188963783Y-86725369D01*
X188963783Y-86725369D02*
X188859021Y-86777750D01*
X188859021Y-86777750D02*
X188806640Y-86830131D01*
X188806640Y-86830131D02*
X188754259Y-86934893D01*
X188754259Y-86934893D02*
X188754259Y-87144417D01*
X188754259Y-87144417D02*
X188806640Y-87249179D01*
X188806640Y-87249179D02*
X188859021Y-87301560D01*
X188859021Y-87301560D02*
X188963783Y-87353940D01*
X188963783Y-87353940D02*
X189173307Y-87353940D01*
X189173307Y-87353940D02*
X189278069Y-87301560D01*
X189278069Y-87301560D02*
X189330450Y-87249179D01*
X189330450Y-87249179D02*
X189382831Y-87144417D01*
X189382831Y-87144417D02*
X189382831Y-86934893D01*
X189382831Y-86934893D02*
X189330450Y-86830131D01*
X189330450Y-86830131D02*
X189278069Y-86777750D01*
X189278069Y-86777750D02*
X189173307Y-86725369D01*
X189482831Y-102639654D02*
X188854259Y-102639654D01*
X189168545Y-102639654D02*
X189168545Y-101539654D01*
X189168545Y-101539654D02*
X189063783Y-101696797D01*
X189063783Y-101696797D02*
X188959021Y-101801559D01*
X188959021Y-101801559D02*
X188854259Y-101853940D01*
X188854259Y-106615845D02*
X188906640Y-106563464D01*
X188906640Y-106563464D02*
X189011402Y-106511083D01*
X189011402Y-106511083D02*
X189273307Y-106511083D01*
X189273307Y-106511083D02*
X189378069Y-106563464D01*
X189378069Y-106563464D02*
X189430450Y-106615845D01*
X189430450Y-106615845D02*
X189482831Y-106720607D01*
X189482831Y-106720607D02*
X189482831Y-106825369D01*
X189482831Y-106825369D02*
X189430450Y-106982512D01*
X189430450Y-106982512D02*
X188801878Y-107611083D01*
X188801878Y-107611083D02*
X189482831Y-107611083D01*
X188801878Y-111482511D02*
X189482831Y-111482511D01*
X189482831Y-111482511D02*
X189116164Y-111901559D01*
X189116164Y-111901559D02*
X189273307Y-111901559D01*
X189273307Y-111901559D02*
X189378069Y-111953940D01*
X189378069Y-111953940D02*
X189430450Y-112006321D01*
X189430450Y-112006321D02*
X189482831Y-112111083D01*
X189482831Y-112111083D02*
X189482831Y-112372988D01*
X189482831Y-112372988D02*
X189430450Y-112477750D01*
X189430450Y-112477750D02*
X189378069Y-112530131D01*
X189378069Y-112530131D02*
X189273307Y-112582511D01*
X189273307Y-112582511D02*
X188959021Y-112582511D01*
X188959021Y-112582511D02*
X188854259Y-112530131D01*
X188854259Y-112530131D02*
X188801878Y-112477750D01*
X189378069Y-116820607D02*
X189378069Y-117553940D01*
X189116164Y-116401560D02*
X188854259Y-117187274D01*
X188854259Y-117187274D02*
X189535212Y-117187274D01*
X189430450Y-121425368D02*
X188906640Y-121425368D01*
X188906640Y-121425368D02*
X188854259Y-121949178D01*
X188854259Y-121949178D02*
X188906640Y-121896797D01*
X188906640Y-121896797D02*
X189011402Y-121844416D01*
X189011402Y-121844416D02*
X189273307Y-121844416D01*
X189273307Y-121844416D02*
X189378069Y-121896797D01*
X189378069Y-121896797D02*
X189430450Y-121949178D01*
X189430450Y-121949178D02*
X189482831Y-122053940D01*
X189482831Y-122053940D02*
X189482831Y-122315845D01*
X189482831Y-122315845D02*
X189430450Y-122420607D01*
X189430450Y-122420607D02*
X189378069Y-122472988D01*
X189378069Y-122472988D02*
X189273307Y-122525368D01*
X189273307Y-122525368D02*
X189011402Y-122525368D01*
X189011402Y-122525368D02*
X188906640Y-122472988D01*
X188906640Y-122472988D02*
X188854259Y-122420607D01*
X189378069Y-126396797D02*
X189168545Y-126396797D01*
X189168545Y-126396797D02*
X189063783Y-126449178D01*
X189063783Y-126449178D02*
X189011402Y-126501559D01*
X189011402Y-126501559D02*
X188906640Y-126658702D01*
X188906640Y-126658702D02*
X188854259Y-126868226D01*
X188854259Y-126868226D02*
X188854259Y-127287274D01*
X188854259Y-127287274D02*
X188906640Y-127392036D01*
X188906640Y-127392036D02*
X188959021Y-127444417D01*
X188959021Y-127444417D02*
X189063783Y-127496797D01*
X189063783Y-127496797D02*
X189273307Y-127496797D01*
X189273307Y-127496797D02*
X189378069Y-127444417D01*
X189378069Y-127444417D02*
X189430450Y-127392036D01*
X189430450Y-127392036D02*
X189482831Y-127287274D01*
X189482831Y-127287274D02*
X189482831Y-127025369D01*
X189482831Y-127025369D02*
X189430450Y-126920607D01*
X189430450Y-126920607D02*
X189378069Y-126868226D01*
X189378069Y-126868226D02*
X189273307Y-126815845D01*
X189273307Y-126815845D02*
X189063783Y-126815845D01*
X189063783Y-126815845D02*
X188959021Y-126868226D01*
X188959021Y-126868226D02*
X188906640Y-126920607D01*
X188906640Y-126920607D02*
X188854259Y-127025369D01*
X188801878Y-131368225D02*
X189535212Y-131368225D01*
X189535212Y-131368225D02*
X189063783Y-132468225D01*
X189063783Y-136811083D02*
X188959021Y-136758702D01*
X188959021Y-136758702D02*
X188906640Y-136706321D01*
X188906640Y-136706321D02*
X188854259Y-136601559D01*
X188854259Y-136601559D02*
X188854259Y-136549178D01*
X188854259Y-136549178D02*
X188906640Y-136444416D01*
X188906640Y-136444416D02*
X188959021Y-136392035D01*
X188959021Y-136392035D02*
X189063783Y-136339654D01*
X189063783Y-136339654D02*
X189273307Y-136339654D01*
X189273307Y-136339654D02*
X189378069Y-136392035D01*
X189378069Y-136392035D02*
X189430450Y-136444416D01*
X189430450Y-136444416D02*
X189482831Y-136549178D01*
X189482831Y-136549178D02*
X189482831Y-136601559D01*
X189482831Y-136601559D02*
X189430450Y-136706321D01*
X189430450Y-136706321D02*
X189378069Y-136758702D01*
X189378069Y-136758702D02*
X189273307Y-136811083D01*
X189273307Y-136811083D02*
X189063783Y-136811083D01*
X189063783Y-136811083D02*
X188959021Y-136863464D01*
X188959021Y-136863464D02*
X188906640Y-136915845D01*
X188906640Y-136915845D02*
X188854259Y-137020607D01*
X188854259Y-137020607D02*
X188854259Y-137230131D01*
X188854259Y-137230131D02*
X188906640Y-137334893D01*
X188906640Y-137334893D02*
X188959021Y-137387274D01*
X188959021Y-137387274D02*
X189063783Y-137439654D01*
X189063783Y-137439654D02*
X189273307Y-137439654D01*
X189273307Y-137439654D02*
X189378069Y-137387274D01*
X189378069Y-137387274D02*
X189430450Y-137334893D01*
X189430450Y-137334893D02*
X189482831Y-137230131D01*
X189482831Y-137230131D02*
X189482831Y-137020607D01*
X189482831Y-137020607D02*
X189430450Y-136915845D01*
X189430450Y-136915845D02*
X189378069Y-136863464D01*
X189378069Y-136863464D02*
X189273307Y-136811083D01*
X201853940Y-103893359D02*
X200753940Y-103893359D01*
X201853940Y-103421930D02*
X201277750Y-103421930D01*
X201277750Y-103421930D02*
X201172988Y-103474311D01*
X201172988Y-103474311D02*
X201120607Y-103579073D01*
X201120607Y-103579073D02*
X201120607Y-103736216D01*
X201120607Y-103736216D02*
X201172988Y-103840978D01*
X201172988Y-103840978D02*
X201225369Y-103893359D01*
X201120607Y-103055264D02*
X201120607Y-102636216D01*
X200753940Y-102898121D02*
X201696798Y-102898121D01*
X201696798Y-102898121D02*
X201801560Y-102845740D01*
X201801560Y-102845740D02*
X201853940Y-102740978D01*
X201853940Y-102740978D02*
X201853940Y-102636216D01*
X201120607Y-102426693D02*
X201120607Y-102007645D01*
X200753940Y-102269550D02*
X201696798Y-102269550D01*
X201696798Y-102269550D02*
X201801560Y-102217169D01*
X201801560Y-102217169D02*
X201853940Y-102112407D01*
X201853940Y-102112407D02*
X201853940Y-102007645D01*
X201120607Y-101640979D02*
X202220607Y-101640979D01*
X201172988Y-101640979D02*
X201120607Y-101536217D01*
X201120607Y-101536217D02*
X201120607Y-101326693D01*
X201120607Y-101326693D02*
X201172988Y-101221931D01*
X201172988Y-101221931D02*
X201225369Y-101169550D01*
X201225369Y-101169550D02*
X201330131Y-101117169D01*
X201330131Y-101117169D02*
X201644417Y-101117169D01*
X201644417Y-101117169D02*
X201749179Y-101169550D01*
X201749179Y-101169550D02*
X201801560Y-101221931D01*
X201801560Y-101221931D02*
X201853940Y-101326693D01*
X201853940Y-101326693D02*
X201853940Y-101536217D01*
X201853940Y-101536217D02*
X201801560Y-101640979D01*
X201801560Y-100698122D02*
X201853940Y-100593360D01*
X201853940Y-100593360D02*
X201853940Y-100383836D01*
X201853940Y-100383836D02*
X201801560Y-100279074D01*
X201801560Y-100279074D02*
X201696798Y-100226693D01*
X201696798Y-100226693D02*
X201644417Y-100226693D01*
X201644417Y-100226693D02*
X201539655Y-100279074D01*
X201539655Y-100279074D02*
X201487274Y-100383836D01*
X201487274Y-100383836D02*
X201487274Y-100540979D01*
X201487274Y-100540979D02*
X201434893Y-100645741D01*
X201434893Y-100645741D02*
X201330131Y-100698122D01*
X201330131Y-100698122D02*
X201277750Y-100698122D01*
X201277750Y-100698122D02*
X201172988Y-100645741D01*
X201172988Y-100645741D02*
X201120607Y-100540979D01*
X201120607Y-100540979D02*
X201120607Y-100383836D01*
X201120607Y-100383836D02*
X201172988Y-100279074D01*
X201749179Y-99755265D02*
X201801560Y-99702884D01*
X201801560Y-99702884D02*
X201853940Y-99755265D01*
X201853940Y-99755265D02*
X201801560Y-99807646D01*
X201801560Y-99807646D02*
X201749179Y-99755265D01*
X201749179Y-99755265D02*
X201853940Y-99755265D01*
X201172988Y-99755265D02*
X201225369Y-99702884D01*
X201225369Y-99702884D02*
X201277750Y-99755265D01*
X201277750Y-99755265D02*
X201225369Y-99807646D01*
X201225369Y-99807646D02*
X201172988Y-99755265D01*
X201172988Y-99755265D02*
X201277750Y-99755265D01*
X200701560Y-98445740D02*
X202115845Y-99388598D01*
X200701560Y-97293359D02*
X202115845Y-98236217D01*
X201853940Y-96926693D02*
X201120607Y-96926693D01*
X201330131Y-96926693D02*
X201225369Y-96874312D01*
X201225369Y-96874312D02*
X201172988Y-96821931D01*
X201172988Y-96821931D02*
X201120607Y-96717169D01*
X201120607Y-96717169D02*
X201120607Y-96612407D01*
X201853940Y-95774312D02*
X201277750Y-95774312D01*
X201277750Y-95774312D02*
X201172988Y-95826693D01*
X201172988Y-95826693D02*
X201120607Y-95931455D01*
X201120607Y-95931455D02*
X201120607Y-96140979D01*
X201120607Y-96140979D02*
X201172988Y-96245741D01*
X201801560Y-95774312D02*
X201853940Y-95879074D01*
X201853940Y-95879074D02*
X201853940Y-96140979D01*
X201853940Y-96140979D02*
X201801560Y-96245741D01*
X201801560Y-96245741D02*
X201696798Y-96298122D01*
X201696798Y-96298122D02*
X201592036Y-96298122D01*
X201592036Y-96298122D02*
X201487274Y-96245741D01*
X201487274Y-96245741D02*
X201434893Y-96140979D01*
X201434893Y-96140979D02*
X201434893Y-95879074D01*
X201434893Y-95879074D02*
X201382512Y-95774312D01*
X200753940Y-95040979D02*
X200753940Y-94936217D01*
X200753940Y-94936217D02*
X200806321Y-94831455D01*
X200806321Y-94831455D02*
X200858702Y-94779074D01*
X200858702Y-94779074D02*
X200963464Y-94726693D01*
X200963464Y-94726693D02*
X201172988Y-94674312D01*
X201172988Y-94674312D02*
X201434893Y-94674312D01*
X201434893Y-94674312D02*
X201644417Y-94726693D01*
X201644417Y-94726693D02*
X201749179Y-94779074D01*
X201749179Y-94779074D02*
X201801560Y-94831455D01*
X201801560Y-94831455D02*
X201853940Y-94936217D01*
X201853940Y-94936217D02*
X201853940Y-95040979D01*
X201853940Y-95040979D02*
X201801560Y-95145741D01*
X201801560Y-95145741D02*
X201749179Y-95198122D01*
X201749179Y-95198122D02*
X201644417Y-95250503D01*
X201644417Y-95250503D02*
X201434893Y-95302884D01*
X201434893Y-95302884D02*
X201172988Y-95302884D01*
X201172988Y-95302884D02*
X200963464Y-95250503D01*
X200963464Y-95250503D02*
X200858702Y-95198122D01*
X200858702Y-95198122D02*
X200806321Y-95145741D01*
X200806321Y-95145741D02*
X200753940Y-95040979D01*
X201801560Y-94255265D02*
X201853940Y-94150503D01*
X201853940Y-94150503D02*
X201853940Y-93940979D01*
X201853940Y-93940979D02*
X201801560Y-93836217D01*
X201801560Y-93836217D02*
X201696798Y-93783836D01*
X201696798Y-93783836D02*
X201644417Y-93783836D01*
X201644417Y-93783836D02*
X201539655Y-93836217D01*
X201539655Y-93836217D02*
X201487274Y-93940979D01*
X201487274Y-93940979D02*
X201487274Y-94098122D01*
X201487274Y-94098122D02*
X201434893Y-94202884D01*
X201434893Y-94202884D02*
X201330131Y-94255265D01*
X201330131Y-94255265D02*
X201277750Y-94255265D01*
X201277750Y-94255265D02*
X201172988Y-94202884D01*
X201172988Y-94202884D02*
X201120607Y-94098122D01*
X201120607Y-94098122D02*
X201120607Y-93940979D01*
X201120607Y-93940979D02*
X201172988Y-93836217D01*
X201853940Y-93312408D02*
X201120607Y-93312408D01*
X201225369Y-93312408D02*
X201172988Y-93260027D01*
X201172988Y-93260027D02*
X201120607Y-93155265D01*
X201120607Y-93155265D02*
X201120607Y-92998122D01*
X201120607Y-92998122D02*
X201172988Y-92893360D01*
X201172988Y-92893360D02*
X201277750Y-92840979D01*
X201277750Y-92840979D02*
X201853940Y-92840979D01*
X201277750Y-92840979D02*
X201172988Y-92788598D01*
X201172988Y-92788598D02*
X201120607Y-92683836D01*
X201120607Y-92683836D02*
X201120607Y-92526693D01*
X201120607Y-92526693D02*
X201172988Y-92421932D01*
X201172988Y-92421932D02*
X201277750Y-92369551D01*
X201277750Y-92369551D02*
X201853940Y-92369551D01*
X201801560Y-91898122D02*
X201853940Y-91793360D01*
X201853940Y-91793360D02*
X201853940Y-91583836D01*
X201853940Y-91583836D02*
X201801560Y-91479074D01*
X201801560Y-91479074D02*
X201696798Y-91426693D01*
X201696798Y-91426693D02*
X201644417Y-91426693D01*
X201644417Y-91426693D02*
X201539655Y-91479074D01*
X201539655Y-91479074D02*
X201487274Y-91583836D01*
X201487274Y-91583836D02*
X201487274Y-91740979D01*
X201487274Y-91740979D02*
X201434893Y-91845741D01*
X201434893Y-91845741D02*
X201330131Y-91898122D01*
X201330131Y-91898122D02*
X201277750Y-91898122D01*
X201277750Y-91898122D02*
X201172988Y-91845741D01*
X201172988Y-91845741D02*
X201120607Y-91740979D01*
X201120607Y-91740979D02*
X201120607Y-91583836D01*
X201120607Y-91583836D02*
X201172988Y-91479074D01*
X201749179Y-90955265D02*
X201801560Y-90902884D01*
X201801560Y-90902884D02*
X201853940Y-90955265D01*
X201853940Y-90955265D02*
X201801560Y-91007646D01*
X201801560Y-91007646D02*
X201749179Y-90955265D01*
X201749179Y-90955265D02*
X201853940Y-90955265D01*
X201801560Y-89960026D02*
X201853940Y-90064788D01*
X201853940Y-90064788D02*
X201853940Y-90274312D01*
X201853940Y-90274312D02*
X201801560Y-90379074D01*
X201801560Y-90379074D02*
X201749179Y-90431455D01*
X201749179Y-90431455D02*
X201644417Y-90483836D01*
X201644417Y-90483836D02*
X201330131Y-90483836D01*
X201330131Y-90483836D02*
X201225369Y-90431455D01*
X201225369Y-90431455D02*
X201172988Y-90379074D01*
X201172988Y-90379074D02*
X201120607Y-90274312D01*
X201120607Y-90274312D02*
X201120607Y-90064788D01*
X201120607Y-90064788D02*
X201172988Y-89960026D01*
X201853940Y-89331455D02*
X201801560Y-89436217D01*
X201801560Y-89436217D02*
X201749179Y-89488598D01*
X201749179Y-89488598D02*
X201644417Y-89540979D01*
X201644417Y-89540979D02*
X201330131Y-89540979D01*
X201330131Y-89540979D02*
X201225369Y-89488598D01*
X201225369Y-89488598D02*
X201172988Y-89436217D01*
X201172988Y-89436217D02*
X201120607Y-89331455D01*
X201120607Y-89331455D02*
X201120607Y-89174312D01*
X201120607Y-89174312D02*
X201172988Y-89069550D01*
X201172988Y-89069550D02*
X201225369Y-89017169D01*
X201225369Y-89017169D02*
X201330131Y-88964788D01*
X201330131Y-88964788D02*
X201644417Y-88964788D01*
X201644417Y-88964788D02*
X201749179Y-89017169D01*
X201749179Y-89017169D02*
X201801560Y-89069550D01*
X201801560Y-89069550D02*
X201853940Y-89174312D01*
X201853940Y-89174312D02*
X201853940Y-89331455D01*
X201853940Y-88493360D02*
X201120607Y-88493360D01*
X201225369Y-88493360D02*
X201172988Y-88440979D01*
X201172988Y-88440979D02*
X201120607Y-88336217D01*
X201120607Y-88336217D02*
X201120607Y-88179074D01*
X201120607Y-88179074D02*
X201172988Y-88074312D01*
X201172988Y-88074312D02*
X201277750Y-88021931D01*
X201277750Y-88021931D02*
X201853940Y-88021931D01*
X201277750Y-88021931D02*
X201172988Y-87969550D01*
X201172988Y-87969550D02*
X201120607Y-87864788D01*
X201120607Y-87864788D02*
X201120607Y-87707645D01*
X201120607Y-87707645D02*
X201172988Y-87602884D01*
X201172988Y-87602884D02*
X201277750Y-87550503D01*
X201277750Y-87550503D02*
X201853940Y-87550503D01*
D12*
X153980575Y-98227384D02*
X153980575Y-96927384D01*
X153980575Y-96927384D02*
X154723432Y-98227384D01*
X154723432Y-98227384D02*
X154723432Y-96927384D01*
X155280576Y-97855956D02*
X155899623Y-97855956D01*
X155156766Y-98227384D02*
X155590099Y-96927384D01*
X155590099Y-96927384D02*
X156023433Y-98227384D01*
X156456766Y-98227384D02*
X156456766Y-96927384D01*
X156456766Y-96927384D02*
X157199623Y-98227384D01*
X157199623Y-98227384D02*
X157199623Y-96927384D01*
X158066290Y-96927384D02*
X158313909Y-96927384D01*
X158313909Y-96927384D02*
X158437719Y-96989289D01*
X158437719Y-96989289D02*
X158561528Y-97113099D01*
X158561528Y-97113099D02*
X158623433Y-97360718D01*
X158623433Y-97360718D02*
X158623433Y-97794051D01*
X158623433Y-97794051D02*
X158561528Y-98041670D01*
X158561528Y-98041670D02*
X158437719Y-98165480D01*
X158437719Y-98165480D02*
X158313909Y-98227384D01*
X158313909Y-98227384D02*
X158066290Y-98227384D01*
X158066290Y-98227384D02*
X157942481Y-98165480D01*
X157942481Y-98165480D02*
X157818671Y-98041670D01*
X157818671Y-98041670D02*
X157756767Y-97794051D01*
X157756767Y-97794051D02*
X157756767Y-97360718D01*
X157756767Y-97360718D02*
X157818671Y-97113099D01*
X157818671Y-97113099D02*
X157942481Y-96989289D01*
X157942481Y-96989289D02*
X158066290Y-96927384D01*
X160109148Y-98165480D02*
X160294862Y-98227384D01*
X160294862Y-98227384D02*
X160604386Y-98227384D01*
X160604386Y-98227384D02*
X160728195Y-98165480D01*
X160728195Y-98165480D02*
X160790100Y-98103575D01*
X160790100Y-98103575D02*
X160852005Y-97979765D01*
X160852005Y-97979765D02*
X160852005Y-97855956D01*
X160852005Y-97855956D02*
X160790100Y-97732146D01*
X160790100Y-97732146D02*
X160728195Y-97670241D01*
X160728195Y-97670241D02*
X160604386Y-97608337D01*
X160604386Y-97608337D02*
X160356767Y-97546432D01*
X160356767Y-97546432D02*
X160232957Y-97484527D01*
X160232957Y-97484527D02*
X160171052Y-97422622D01*
X160171052Y-97422622D02*
X160109148Y-97298813D01*
X160109148Y-97298813D02*
X160109148Y-97175003D01*
X160109148Y-97175003D02*
X160171052Y-97051194D01*
X160171052Y-97051194D02*
X160232957Y-96989289D01*
X160232957Y-96989289D02*
X160356767Y-96927384D01*
X160356767Y-96927384D02*
X160666290Y-96927384D01*
X160666290Y-96927384D02*
X160852005Y-96989289D01*
X161409147Y-97546432D02*
X161842481Y-97546432D01*
X162028195Y-98227384D02*
X161409147Y-98227384D01*
X161409147Y-98227384D02*
X161409147Y-96927384D01*
X161409147Y-96927384D02*
X162028195Y-96927384D01*
X163328194Y-98227384D02*
X162894861Y-97608337D01*
X162585337Y-98227384D02*
X162585337Y-96927384D01*
X162585337Y-96927384D02*
X163080575Y-96927384D01*
X163080575Y-96927384D02*
X163204385Y-96989289D01*
X163204385Y-96989289D02*
X163266290Y-97051194D01*
X163266290Y-97051194D02*
X163328194Y-97175003D01*
X163328194Y-97175003D02*
X163328194Y-97360718D01*
X163328194Y-97360718D02*
X163266290Y-97484527D01*
X163266290Y-97484527D02*
X163204385Y-97546432D01*
X163204385Y-97546432D02*
X163080575Y-97608337D01*
X163080575Y-97608337D02*
X162585337Y-97608337D01*
X163699623Y-96927384D02*
X164132956Y-98227384D01*
X164132956Y-98227384D02*
X164566290Y-96927384D01*
X164999623Y-97546432D02*
X165432957Y-97546432D01*
X165618671Y-98227384D02*
X164999623Y-98227384D01*
X164999623Y-98227384D02*
X164999623Y-96927384D01*
X164999623Y-96927384D02*
X165618671Y-96927384D01*
X166918670Y-98227384D02*
X166485337Y-97608337D01*
X166175813Y-98227384D02*
X166175813Y-96927384D01*
X166175813Y-96927384D02*
X166671051Y-96927384D01*
X166671051Y-96927384D02*
X166794861Y-96989289D01*
X166794861Y-96989289D02*
X166856766Y-97051194D01*
X166856766Y-97051194D02*
X166918670Y-97175003D01*
X166918670Y-97175003D02*
X166918670Y-97360718D01*
X166918670Y-97360718D02*
X166856766Y-97484527D01*
X166856766Y-97484527D02*
X166794861Y-97546432D01*
X166794861Y-97546432D02*
X166671051Y-97608337D01*
X166671051Y-97608337D02*
X166175813Y-97608337D01*
D10*
X98954819Y-96647618D02*
X99764342Y-96647618D01*
X99764342Y-96647618D02*
X99859580Y-96599999D01*
X99859580Y-96599999D02*
X99907200Y-96552380D01*
X99907200Y-96552380D02*
X99954819Y-96457142D01*
X99954819Y-96457142D02*
X99954819Y-96266666D01*
X99954819Y-96266666D02*
X99907200Y-96171428D01*
X99907200Y-96171428D02*
X99859580Y-96123809D01*
X99859580Y-96123809D02*
X99764342Y-96076190D01*
X99764342Y-96076190D02*
X98954819Y-96076190D01*
X99954819Y-95123809D02*
X99954819Y-95599999D01*
X99954819Y-95599999D02*
X98954819Y-95599999D01*
X99954819Y-94790475D02*
X98954819Y-94790475D01*
X98954819Y-94790475D02*
X99954819Y-94219047D01*
X99954819Y-94219047D02*
X98954819Y-94219047D01*
X99050057Y-93790475D02*
X99002438Y-93742856D01*
X99002438Y-93742856D02*
X98954819Y-93647618D01*
X98954819Y-93647618D02*
X98954819Y-93409523D01*
X98954819Y-93409523D02*
X99002438Y-93314285D01*
X99002438Y-93314285D02*
X99050057Y-93266666D01*
X99050057Y-93266666D02*
X99145295Y-93219047D01*
X99145295Y-93219047D02*
X99240533Y-93219047D01*
X99240533Y-93219047D02*
X99383390Y-93266666D01*
X99383390Y-93266666D02*
X99954819Y-93838094D01*
X99954819Y-93838094D02*
X99954819Y-93219047D01*
X99383390Y-92647618D02*
X99335771Y-92742856D01*
X99335771Y-92742856D02*
X99288152Y-92790475D01*
X99288152Y-92790475D02*
X99192914Y-92838094D01*
X99192914Y-92838094D02*
X99145295Y-92838094D01*
X99145295Y-92838094D02*
X99050057Y-92790475D01*
X99050057Y-92790475D02*
X99002438Y-92742856D01*
X99002438Y-92742856D02*
X98954819Y-92647618D01*
X98954819Y-92647618D02*
X98954819Y-92457142D01*
X98954819Y-92457142D02*
X99002438Y-92361904D01*
X99002438Y-92361904D02*
X99050057Y-92314285D01*
X99050057Y-92314285D02*
X99145295Y-92266666D01*
X99145295Y-92266666D02*
X99192914Y-92266666D01*
X99192914Y-92266666D02*
X99288152Y-92314285D01*
X99288152Y-92314285D02*
X99335771Y-92361904D01*
X99335771Y-92361904D02*
X99383390Y-92457142D01*
X99383390Y-92457142D02*
X99383390Y-92647618D01*
X99383390Y-92647618D02*
X99431009Y-92742856D01*
X99431009Y-92742856D02*
X99478628Y-92790475D01*
X99478628Y-92790475D02*
X99573866Y-92838094D01*
X99573866Y-92838094D02*
X99764342Y-92838094D01*
X99764342Y-92838094D02*
X99859580Y-92790475D01*
X99859580Y-92790475D02*
X99907200Y-92742856D01*
X99907200Y-92742856D02*
X99954819Y-92647618D01*
X99954819Y-92647618D02*
X99954819Y-92457142D01*
X99954819Y-92457142D02*
X99907200Y-92361904D01*
X99907200Y-92361904D02*
X99859580Y-92314285D01*
X99859580Y-92314285D02*
X99764342Y-92266666D01*
X99764342Y-92266666D02*
X99573866Y-92266666D01*
X99573866Y-92266666D02*
X99478628Y-92314285D01*
X99478628Y-92314285D02*
X99431009Y-92361904D01*
X99431009Y-92361904D02*
X99383390Y-92457142D01*
X98954819Y-91647618D02*
X98954819Y-91552380D01*
X98954819Y-91552380D02*
X99002438Y-91457142D01*
X99002438Y-91457142D02*
X99050057Y-91409523D01*
X99050057Y-91409523D02*
X99145295Y-91361904D01*
X99145295Y-91361904D02*
X99335771Y-91314285D01*
X99335771Y-91314285D02*
X99573866Y-91314285D01*
X99573866Y-91314285D02*
X99764342Y-91361904D01*
X99764342Y-91361904D02*
X99859580Y-91409523D01*
X99859580Y-91409523D02*
X99907200Y-91457142D01*
X99907200Y-91457142D02*
X99954819Y-91552380D01*
X99954819Y-91552380D02*
X99954819Y-91647618D01*
X99954819Y-91647618D02*
X99907200Y-91742856D01*
X99907200Y-91742856D02*
X99859580Y-91790475D01*
X99859580Y-91790475D02*
X99764342Y-91838094D01*
X99764342Y-91838094D02*
X99573866Y-91885713D01*
X99573866Y-91885713D02*
X99335771Y-91885713D01*
X99335771Y-91885713D02*
X99145295Y-91838094D01*
X99145295Y-91838094D02*
X99050057Y-91790475D01*
X99050057Y-91790475D02*
X99002438Y-91742856D01*
X99002438Y-91742856D02*
X98954819Y-91647618D01*
X98954819Y-90980951D02*
X98954819Y-90361904D01*
X98954819Y-90361904D02*
X99335771Y-90695237D01*
X99335771Y-90695237D02*
X99335771Y-90552380D01*
X99335771Y-90552380D02*
X99383390Y-90457142D01*
X99383390Y-90457142D02*
X99431009Y-90409523D01*
X99431009Y-90409523D02*
X99526247Y-90361904D01*
X99526247Y-90361904D02*
X99764342Y-90361904D01*
X99764342Y-90361904D02*
X99859580Y-90409523D01*
X99859580Y-90409523D02*
X99907200Y-90457142D01*
X99907200Y-90457142D02*
X99954819Y-90552380D01*
X99954819Y-90552380D02*
X99954819Y-90838094D01*
X99954819Y-90838094D02*
X99907200Y-90933332D01*
X99907200Y-90933332D02*
X99859580Y-90980951D01*
X99669104Y-89980951D02*
X99669104Y-89504761D01*
X99954819Y-90076189D02*
X98954819Y-89742856D01*
X98954819Y-89742856D02*
X99954819Y-89409523D01*
X110609523Y-106359580D02*
X110561904Y-106407200D01*
X110561904Y-106407200D02*
X110419047Y-106454819D01*
X110419047Y-106454819D02*
X110323809Y-106454819D01*
X110323809Y-106454819D02*
X110180952Y-106407200D01*
X110180952Y-106407200D02*
X110085714Y-106311961D01*
X110085714Y-106311961D02*
X110038095Y-106216723D01*
X110038095Y-106216723D02*
X109990476Y-106026247D01*
X109990476Y-106026247D02*
X109990476Y-105883390D01*
X109990476Y-105883390D02*
X110038095Y-105692914D01*
X110038095Y-105692914D02*
X110085714Y-105597676D01*
X110085714Y-105597676D02*
X110180952Y-105502438D01*
X110180952Y-105502438D02*
X110323809Y-105454819D01*
X110323809Y-105454819D02*
X110419047Y-105454819D01*
X110419047Y-105454819D02*
X110561904Y-105502438D01*
X110561904Y-105502438D02*
X110609523Y-105550057D01*
X111038095Y-106454819D02*
X111038095Y-105454819D01*
X111038095Y-105454819D02*
X111371428Y-106169104D01*
X111371428Y-106169104D02*
X111704761Y-105454819D01*
X111704761Y-105454819D02*
X111704761Y-106454819D01*
X112704761Y-106454819D02*
X112133333Y-106454819D01*
X112419047Y-106454819D02*
X112419047Y-105454819D01*
X112419047Y-105454819D02*
X112323809Y-105597676D01*
X112323809Y-105597676D02*
X112228571Y-105692914D01*
X112228571Y-105692914D02*
X112133333Y-105740533D01*
X113323809Y-105454819D02*
X113419047Y-105454819D01*
X113419047Y-105454819D02*
X113514285Y-105502438D01*
X113514285Y-105502438D02*
X113561904Y-105550057D01*
X113561904Y-105550057D02*
X113609523Y-105645295D01*
X113609523Y-105645295D02*
X113657142Y-105835771D01*
X113657142Y-105835771D02*
X113657142Y-106073866D01*
X113657142Y-106073866D02*
X113609523Y-106264342D01*
X113609523Y-106264342D02*
X113561904Y-106359580D01*
X113561904Y-106359580D02*
X113514285Y-106407200D01*
X113514285Y-106407200D02*
X113419047Y-106454819D01*
X113419047Y-106454819D02*
X113323809Y-106454819D01*
X113323809Y-106454819D02*
X113228571Y-106407200D01*
X113228571Y-106407200D02*
X113180952Y-106359580D01*
X113180952Y-106359580D02*
X113133333Y-106264342D01*
X113133333Y-106264342D02*
X113085714Y-106073866D01*
X113085714Y-106073866D02*
X113085714Y-105835771D01*
X113085714Y-105835771D02*
X113133333Y-105645295D01*
X113133333Y-105645295D02*
X113180952Y-105550057D01*
X113180952Y-105550057D02*
X113228571Y-105502438D01*
X113228571Y-105502438D02*
X113323809Y-105454819D01*
X114228571Y-105883390D02*
X114133333Y-105835771D01*
X114133333Y-105835771D02*
X114085714Y-105788152D01*
X114085714Y-105788152D02*
X114038095Y-105692914D01*
X114038095Y-105692914D02*
X114038095Y-105645295D01*
X114038095Y-105645295D02*
X114085714Y-105550057D01*
X114085714Y-105550057D02*
X114133333Y-105502438D01*
X114133333Y-105502438D02*
X114228571Y-105454819D01*
X114228571Y-105454819D02*
X114419047Y-105454819D01*
X114419047Y-105454819D02*
X114514285Y-105502438D01*
X114514285Y-105502438D02*
X114561904Y-105550057D01*
X114561904Y-105550057D02*
X114609523Y-105645295D01*
X114609523Y-105645295D02*
X114609523Y-105692914D01*
X114609523Y-105692914D02*
X114561904Y-105788152D01*
X114561904Y-105788152D02*
X114514285Y-105835771D01*
X114514285Y-105835771D02*
X114419047Y-105883390D01*
X114419047Y-105883390D02*
X114228571Y-105883390D01*
X114228571Y-105883390D02*
X114133333Y-105931009D01*
X114133333Y-105931009D02*
X114085714Y-105978628D01*
X114085714Y-105978628D02*
X114038095Y-106073866D01*
X114038095Y-106073866D02*
X114038095Y-106264342D01*
X114038095Y-106264342D02*
X114085714Y-106359580D01*
X114085714Y-106359580D02*
X114133333Y-106407200D01*
X114133333Y-106407200D02*
X114228571Y-106454819D01*
X114228571Y-106454819D02*
X114419047Y-106454819D01*
X114419047Y-106454819D02*
X114514285Y-106407200D01*
X114514285Y-106407200D02*
X114561904Y-106359580D01*
X114561904Y-106359580D02*
X114609523Y-106264342D01*
X114609523Y-106264342D02*
X114609523Y-106073866D01*
X114609523Y-106073866D02*
X114561904Y-105978628D01*
X114561904Y-105978628D02*
X114514285Y-105931009D01*
X114514285Y-105931009D02*
X114419047Y-105883390D01*
X115371428Y-105931009D02*
X115514285Y-105978628D01*
X115514285Y-105978628D02*
X115561904Y-106026247D01*
X115561904Y-106026247D02*
X115609523Y-106121485D01*
X115609523Y-106121485D02*
X115609523Y-106264342D01*
X115609523Y-106264342D02*
X115561904Y-106359580D01*
X115561904Y-106359580D02*
X115514285Y-106407200D01*
X115514285Y-106407200D02*
X115419047Y-106454819D01*
X115419047Y-106454819D02*
X115038095Y-106454819D01*
X115038095Y-106454819D02*
X115038095Y-105454819D01*
X115038095Y-105454819D02*
X115371428Y-105454819D01*
X115371428Y-105454819D02*
X115466666Y-105502438D01*
X115466666Y-105502438D02*
X115514285Y-105550057D01*
X115514285Y-105550057D02*
X115561904Y-105645295D01*
X115561904Y-105645295D02*
X115561904Y-105740533D01*
X115561904Y-105740533D02*
X115514285Y-105835771D01*
X115514285Y-105835771D02*
X115466666Y-105883390D01*
X115466666Y-105883390D02*
X115371428Y-105931009D01*
X115371428Y-105931009D02*
X115038095Y-105931009D01*
X98523809Y-73754819D02*
X98523809Y-72754819D01*
X98523809Y-72754819D02*
X98904761Y-72754819D01*
X98904761Y-72754819D02*
X98999999Y-72802438D01*
X98999999Y-72802438D02*
X99047618Y-72850057D01*
X99047618Y-72850057D02*
X99095237Y-72945295D01*
X99095237Y-72945295D02*
X99095237Y-73088152D01*
X99095237Y-73088152D02*
X99047618Y-73183390D01*
X99047618Y-73183390D02*
X98999999Y-73231009D01*
X98999999Y-73231009D02*
X98904761Y-73278628D01*
X98904761Y-73278628D02*
X98523809Y-73278628D01*
X100095237Y-73659580D02*
X100047618Y-73707200D01*
X100047618Y-73707200D02*
X99904761Y-73754819D01*
X99904761Y-73754819D02*
X99809523Y-73754819D01*
X99809523Y-73754819D02*
X99666666Y-73707200D01*
X99666666Y-73707200D02*
X99571428Y-73611961D01*
X99571428Y-73611961D02*
X99523809Y-73516723D01*
X99523809Y-73516723D02*
X99476190Y-73326247D01*
X99476190Y-73326247D02*
X99476190Y-73183390D01*
X99476190Y-73183390D02*
X99523809Y-72992914D01*
X99523809Y-72992914D02*
X99571428Y-72897676D01*
X99571428Y-72897676D02*
X99666666Y-72802438D01*
X99666666Y-72802438D02*
X99809523Y-72754819D01*
X99809523Y-72754819D02*
X99904761Y-72754819D01*
X99904761Y-72754819D02*
X100047618Y-72802438D01*
X100047618Y-72802438D02*
X100095237Y-72850057D01*
X100857142Y-73231009D02*
X100523809Y-73231009D01*
X100523809Y-73754819D02*
X100523809Y-72754819D01*
X100523809Y-72754819D02*
X100999999Y-72754819D01*
X101523809Y-73183390D02*
X101428571Y-73135771D01*
X101428571Y-73135771D02*
X101380952Y-73088152D01*
X101380952Y-73088152D02*
X101333333Y-72992914D01*
X101333333Y-72992914D02*
X101333333Y-72945295D01*
X101333333Y-72945295D02*
X101380952Y-72850057D01*
X101380952Y-72850057D02*
X101428571Y-72802438D01*
X101428571Y-72802438D02*
X101523809Y-72754819D01*
X101523809Y-72754819D02*
X101714285Y-72754819D01*
X101714285Y-72754819D02*
X101809523Y-72802438D01*
X101809523Y-72802438D02*
X101857142Y-72850057D01*
X101857142Y-72850057D02*
X101904761Y-72945295D01*
X101904761Y-72945295D02*
X101904761Y-72992914D01*
X101904761Y-72992914D02*
X101857142Y-73088152D01*
X101857142Y-73088152D02*
X101809523Y-73135771D01*
X101809523Y-73135771D02*
X101714285Y-73183390D01*
X101714285Y-73183390D02*
X101523809Y-73183390D01*
X101523809Y-73183390D02*
X101428571Y-73231009D01*
X101428571Y-73231009D02*
X101380952Y-73278628D01*
X101380952Y-73278628D02*
X101333333Y-73373866D01*
X101333333Y-73373866D02*
X101333333Y-73564342D01*
X101333333Y-73564342D02*
X101380952Y-73659580D01*
X101380952Y-73659580D02*
X101428571Y-73707200D01*
X101428571Y-73707200D02*
X101523809Y-73754819D01*
X101523809Y-73754819D02*
X101714285Y-73754819D01*
X101714285Y-73754819D02*
X101809523Y-73707200D01*
X101809523Y-73707200D02*
X101857142Y-73659580D01*
X101857142Y-73659580D02*
X101904761Y-73564342D01*
X101904761Y-73564342D02*
X101904761Y-73373866D01*
X101904761Y-73373866D02*
X101857142Y-73278628D01*
X101857142Y-73278628D02*
X101809523Y-73231009D01*
X101809523Y-73231009D02*
X101714285Y-73183390D01*
X102809523Y-72754819D02*
X102333333Y-72754819D01*
X102333333Y-72754819D02*
X102285714Y-73231009D01*
X102285714Y-73231009D02*
X102333333Y-73183390D01*
X102333333Y-73183390D02*
X102428571Y-73135771D01*
X102428571Y-73135771D02*
X102666666Y-73135771D01*
X102666666Y-73135771D02*
X102761904Y-73183390D01*
X102761904Y-73183390D02*
X102809523Y-73231009D01*
X102809523Y-73231009D02*
X102857142Y-73326247D01*
X102857142Y-73326247D02*
X102857142Y-73564342D01*
X102857142Y-73564342D02*
X102809523Y-73659580D01*
X102809523Y-73659580D02*
X102761904Y-73707200D01*
X102761904Y-73707200D02*
X102666666Y-73754819D01*
X102666666Y-73754819D02*
X102428571Y-73754819D01*
X102428571Y-73754819D02*
X102333333Y-73707200D01*
X102333333Y-73707200D02*
X102285714Y-73659580D01*
X103190476Y-72754819D02*
X103857142Y-72754819D01*
X103857142Y-72754819D02*
X103428571Y-73754819D01*
X104666666Y-73088152D02*
X104666666Y-73754819D01*
X104428571Y-72707200D02*
X104190476Y-73421485D01*
X104190476Y-73421485D02*
X104809523Y-73421485D01*
X105047619Y-72754819D02*
X105619047Y-72754819D01*
X105333333Y-73754819D02*
X105333333Y-72754819D01*
X80958095Y-79114819D02*
X80958095Y-78114819D01*
X81529523Y-79114819D02*
X81100952Y-78543390D01*
X81529523Y-78114819D02*
X80958095Y-78686247D01*
X80638095Y-64714819D02*
X80638095Y-63714819D01*
X81209523Y-64714819D02*
X80780952Y-64143390D01*
X81209523Y-63714819D02*
X80638095Y-64286247D01*
%TO.C,U7*%
D13*
X95340000Y-86515000D02*
X103060000Y-86515000D01*
X95340000Y-86760000D02*
X95340000Y-86515000D01*
X95340000Y-98285000D02*
X95340000Y-98040000D01*
X103060000Y-86515000D02*
X103060000Y-86760000D01*
X103060000Y-98040000D02*
X103060000Y-98285000D01*
X103060000Y-98285000D02*
X95340000Y-98285000D01*
X94550000Y-86760000D02*
X94210000Y-86290000D01*
X94890000Y-86290000D01*
X94550000Y-86760000D01*
G36*
X94550000Y-86760000D02*
G01*
X94210000Y-86290000D01*
X94890000Y-86290000D01*
X94550000Y-86760000D01*
G37*
%TO.C,C5*%
X74531252Y-88250000D02*
X73108748Y-88250000D01*
X74531252Y-90070000D02*
X73108748Y-90070000D01*
%TO.C,U13*%
X113027500Y-95990000D02*
X114847500Y-95990000D01*
X113027500Y-96040000D02*
X113027500Y-95990000D01*
X113027500Y-99110000D02*
X113027500Y-99060000D01*
X114847500Y-95990000D02*
X114847500Y-96040000D01*
X114847500Y-99060000D02*
X114847500Y-99110000D01*
X114847500Y-99110000D02*
X113027500Y-99110000D01*
X112487500Y-96040000D02*
X112247500Y-95710000D01*
X112727500Y-95710000D01*
X112487500Y-96040000D01*
G36*
X112487500Y-96040000D02*
G01*
X112247500Y-95710000D01*
X112727500Y-95710000D01*
X112487500Y-96040000D01*
G37*
%TO.C,C6*%
X74531252Y-90850000D02*
X73108748Y-90850000D01*
X74531252Y-92670000D02*
X73108748Y-92670000D01*
%TO.C,C2*%
X74531252Y-72250000D02*
X73108748Y-72250000D01*
X74531252Y-74070000D02*
X73108748Y-74070000D01*
%TO.C,R5*%
X98510000Y-109199564D02*
X98510000Y-107745436D01*
X100330000Y-109199564D02*
X100330000Y-107745436D01*
%TO.C,C18*%
X97508748Y-103900000D02*
X98931252Y-103900000D01*
X97508748Y-105720000D02*
X98931252Y-105720000D01*
%TO.C,U5*%
X87752500Y-92406667D02*
X89572500Y-92406667D01*
X87752500Y-92456667D02*
X87752500Y-92406667D01*
X87752500Y-95526667D02*
X87752500Y-95476667D01*
X89572500Y-92406667D02*
X89572500Y-92456667D01*
X89572500Y-95476667D02*
X89572500Y-95526667D01*
X89572500Y-95526667D02*
X87752500Y-95526667D01*
X87212500Y-92456667D02*
X86972500Y-92126667D01*
X87452500Y-92126667D01*
X87212500Y-92456667D01*
G36*
X87212500Y-92456667D02*
G01*
X86972500Y-92126667D01*
X87452500Y-92126667D01*
X87212500Y-92456667D01*
G37*
%TO.C,Q1*%
X137985000Y-110800000D02*
X138985000Y-110800000D01*
X137985000Y-112320000D02*
X137985000Y-110800000D01*
X138035000Y-112320000D02*
X137985000Y-112320000D01*
X139935000Y-112320000D02*
X139155000Y-112320000D01*
X140105000Y-110800000D02*
X141105000Y-110800000D01*
X141105000Y-110800000D02*
X141105000Y-112320000D01*
X141105000Y-112320000D02*
X141055000Y-112320000D01*
X139165000Y-112860000D02*
X139495000Y-112620000D01*
X139495000Y-113100000D01*
X139165000Y-112860000D01*
G36*
X139495000Y-113100000D02*
G01*
X139165000Y-112860000D01*
X139495000Y-112620000D01*
X139495000Y-113100000D01*
G37*
%TO.C,K23*%
X160170000Y-81410000D02*
X176270000Y-81410000D01*
X160170000Y-92510000D02*
X160170000Y-81410000D01*
X176270000Y-81410000D02*
X176270000Y-92510000D01*
X176270000Y-92510000D02*
X160170000Y-92510000D01*
%TO.C,R3*%
X135311252Y-113890000D02*
X133888748Y-113890000D01*
X135311252Y-115710000D02*
X133888748Y-115710000D01*
%TO.C,K22*%
X143170000Y-81210000D02*
X159270000Y-81210000D01*
X143170000Y-92310000D02*
X143170000Y-81210000D01*
X159270000Y-81210000D02*
X159270000Y-92310000D01*
X159270000Y-92310000D02*
X143170000Y-92310000D01*
%TO.C,K4*%
X142970000Y-115030000D02*
X159070000Y-115030000D01*
X142970000Y-126130000D02*
X142970000Y-115030000D01*
X159070000Y-115030000D02*
X159070000Y-126130000D01*
X159070000Y-126130000D02*
X142970000Y-126130000D01*
%TO.C,K18*%
X160170000Y-57676667D02*
X176270000Y-57676667D01*
X160170000Y-68776667D02*
X160170000Y-57676667D01*
X176270000Y-57676667D02*
X176270000Y-68776667D01*
X176270000Y-68776667D02*
X160170000Y-68776667D01*
%TO.C,C8*%
X75236252Y-117490000D02*
X73813748Y-117490000D01*
X75236252Y-119310000D02*
X73813748Y-119310000D01*
%TO.C,J11*%
X135165000Y-65440000D02*
X136545000Y-65440000D01*
X135165000Y-66820000D02*
X135165000Y-65440000D01*
X135165000Y-68090000D02*
X135165000Y-73280000D01*
X135165000Y-68090000D02*
X137815000Y-68090000D01*
X135165000Y-73280000D02*
X140465000Y-73280000D01*
X137815000Y-65440000D02*
X140465000Y-65440000D01*
X137815000Y-68090000D02*
X137815000Y-65440000D01*
X140465000Y-65440000D02*
X140465000Y-73280000D01*
%TO.C,R4*%
X133888748Y-111290000D02*
X135311252Y-111290000D01*
X133888748Y-113110000D02*
X135311252Y-113110000D01*
%TO.C,C4*%
X74406252Y-85650000D02*
X72983748Y-85650000D01*
X74406252Y-87470000D02*
X72983748Y-87470000D01*
%TO.C,D3*%
X65565000Y-150740000D02*
X65565000Y-149360000D01*
X66945000Y-150740000D02*
X65565000Y-150740000D01*
X68215000Y-147980000D02*
X70865000Y-147980000D01*
X68215000Y-150740000D02*
X68215000Y-147980000D01*
X68215000Y-150740000D02*
X70865000Y-150740000D01*
X70865000Y-150740000D02*
X70865000Y-147980000D01*
%TO.C,R33*%
X75496252Y-135920000D02*
X74073748Y-135920000D01*
X75496252Y-137740000D02*
X74073748Y-137740000D01*
%TO.C,R15*%
X68492936Y-93850000D02*
X69947064Y-93850000D01*
X68492936Y-95670000D02*
X69947064Y-95670000D01*
%TO.C,D4*%
X78965000Y-150740000D02*
X78965000Y-149360000D01*
X80345000Y-150740000D02*
X78965000Y-150740000D01*
X81615000Y-147980000D02*
X84265000Y-147980000D01*
X81615000Y-150740000D02*
X81615000Y-147980000D01*
X81615000Y-150740000D02*
X84265000Y-150740000D01*
X84265000Y-150740000D02*
X84265000Y-147980000D01*
%TO.C,C29*%
X133865225Y-137485000D02*
X134365225Y-137485000D01*
X134115225Y-137235000D02*
X134115225Y-137735000D01*
X136670000Y-136380000D02*
X136670000Y-141540000D01*
X136710000Y-136380000D02*
X136710000Y-141540000D01*
X136750000Y-136381000D02*
X136750000Y-141539000D01*
X136790000Y-136383000D02*
X136790000Y-141537000D01*
X136830000Y-136385000D02*
X136830000Y-141535000D01*
X136870000Y-136388000D02*
X136870000Y-141532000D01*
X136910000Y-136391000D02*
X136910000Y-137920000D01*
X136910000Y-140000000D02*
X136910000Y-141529000D01*
X136950000Y-136395000D02*
X136950000Y-137920000D01*
X136950000Y-140000000D02*
X136950000Y-141525000D01*
X136990000Y-136400000D02*
X136990000Y-137920000D01*
X136990000Y-140000000D02*
X136990000Y-141520000D01*
X137030000Y-136405000D02*
X137030000Y-137920000D01*
X137030000Y-140000000D02*
X137030000Y-141515000D01*
X137070000Y-136411000D02*
X137070000Y-137920000D01*
X137070000Y-140000000D02*
X137070000Y-141509000D01*
X137110000Y-136417000D02*
X137110000Y-137920000D01*
X137110000Y-140000000D02*
X137110000Y-141503000D01*
X137150000Y-136424000D02*
X137150000Y-137920000D01*
X137150000Y-140000000D02*
X137150000Y-141496000D01*
X137190000Y-136432000D02*
X137190000Y-137920000D01*
X137190000Y-140000000D02*
X137190000Y-141488000D01*
X137230000Y-136441000D02*
X137230000Y-137920000D01*
X137230000Y-140000000D02*
X137230000Y-141479000D01*
X137270000Y-136450000D02*
X137270000Y-137920000D01*
X137270000Y-140000000D02*
X137270000Y-141470000D01*
X137310000Y-136459000D02*
X137310000Y-137920000D01*
X137310000Y-140000000D02*
X137310000Y-141461000D01*
X137350000Y-136470000D02*
X137350000Y-137920000D01*
X137350000Y-140000000D02*
X137350000Y-141450000D01*
X137390000Y-136481000D02*
X137390000Y-137920000D01*
X137390000Y-140000000D02*
X137390000Y-141439000D01*
X137430000Y-136493000D02*
X137430000Y-137920000D01*
X137430000Y-140000000D02*
X137430000Y-141427000D01*
X137470000Y-136505000D02*
X137470000Y-137920000D01*
X137470000Y-140000000D02*
X137470000Y-141415000D01*
X137510000Y-136518000D02*
X137510000Y-137920000D01*
X137510000Y-140000000D02*
X137510000Y-141402000D01*
X137550000Y-136532000D02*
X137550000Y-137920000D01*
X137550000Y-140000000D02*
X137550000Y-141388000D01*
X137590000Y-136547000D02*
X137590000Y-137920000D01*
X137590000Y-140000000D02*
X137590000Y-141373000D01*
X137630000Y-136562000D02*
X137630000Y-137920000D01*
X137630000Y-140000000D02*
X137630000Y-141358000D01*
X137670000Y-136578000D02*
X137670000Y-137920000D01*
X137670000Y-140000000D02*
X137670000Y-141342000D01*
X137710000Y-136595000D02*
X137710000Y-137920000D01*
X137710000Y-140000000D02*
X137710000Y-141325000D01*
X137750000Y-136613000D02*
X137750000Y-137920000D01*
X137750000Y-140000000D02*
X137750000Y-141307000D01*
X137790000Y-136631000D02*
X137790000Y-137920000D01*
X137790000Y-140000000D02*
X137790000Y-141289000D01*
X137830000Y-136651000D02*
X137830000Y-137920000D01*
X137830000Y-140000000D02*
X137830000Y-141269000D01*
X137870000Y-136671000D02*
X137870000Y-137920000D01*
X137870000Y-140000000D02*
X137870000Y-141249000D01*
X137910000Y-136692000D02*
X137910000Y-137920000D01*
X137910000Y-140000000D02*
X137910000Y-141228000D01*
X137950000Y-136714000D02*
X137950000Y-137920000D01*
X137950000Y-140000000D02*
X137950000Y-141206000D01*
X137990000Y-136737000D02*
X137990000Y-137920000D01*
X137990000Y-140000000D02*
X137990000Y-141183000D01*
X138030000Y-136761000D02*
X138030000Y-137920000D01*
X138030000Y-140000000D02*
X138030000Y-141159000D01*
X138070000Y-136785000D02*
X138070000Y-137920000D01*
X138070000Y-140000000D02*
X138070000Y-141135000D01*
X138110000Y-136811000D02*
X138110000Y-137920000D01*
X138110000Y-140000000D02*
X138110000Y-141109000D01*
X138150000Y-136838000D02*
X138150000Y-137920000D01*
X138150000Y-140000000D02*
X138150000Y-141082000D01*
X138190000Y-136866000D02*
X138190000Y-137920000D01*
X138190000Y-140000000D02*
X138190000Y-141054000D01*
X138230000Y-136895000D02*
X138230000Y-137920000D01*
X138230000Y-140000000D02*
X138230000Y-141025000D01*
X138270000Y-136925000D02*
X138270000Y-137920000D01*
X138270000Y-140000000D02*
X138270000Y-140995000D01*
X138310000Y-136957000D02*
X138310000Y-137920000D01*
X138310000Y-140000000D02*
X138310000Y-140963000D01*
X138350000Y-136990000D02*
X138350000Y-137920000D01*
X138350000Y-140000000D02*
X138350000Y-140930000D01*
X138390000Y-137024000D02*
X138390000Y-137920000D01*
X138390000Y-140000000D02*
X138390000Y-140896000D01*
X138430000Y-137059000D02*
X138430000Y-137920000D01*
X138430000Y-140000000D02*
X138430000Y-140861000D01*
X138470000Y-137096000D02*
X138470000Y-137920000D01*
X138470000Y-140000000D02*
X138470000Y-140824000D01*
X138510000Y-137135000D02*
X138510000Y-137920000D01*
X138510000Y-140000000D02*
X138510000Y-140785000D01*
X138550000Y-137175000D02*
X138550000Y-137920000D01*
X138550000Y-140000000D02*
X138550000Y-140745000D01*
X138590000Y-137217000D02*
X138590000Y-137920000D01*
X138590000Y-140000000D02*
X138590000Y-140703000D01*
X138630000Y-137261000D02*
X138630000Y-137920000D01*
X138630000Y-140000000D02*
X138630000Y-140659000D01*
X138670000Y-137308000D02*
X138670000Y-137920000D01*
X138670000Y-140000000D02*
X138670000Y-140612000D01*
X138710000Y-137356000D02*
X138710000Y-137920000D01*
X138710000Y-140000000D02*
X138710000Y-140564000D01*
X138750000Y-137407000D02*
X138750000Y-137920000D01*
X138750000Y-140000000D02*
X138750000Y-140513000D01*
X138790000Y-137461000D02*
X138790000Y-137920000D01*
X138790000Y-140000000D02*
X138790000Y-140459000D01*
X138830000Y-137517000D02*
X138830000Y-137920000D01*
X138830000Y-140000000D02*
X138830000Y-140403000D01*
X138870000Y-137577000D02*
X138870000Y-137920000D01*
X138870000Y-140000000D02*
X138870000Y-140343000D01*
X138910000Y-137641000D02*
X138910000Y-137920000D01*
X138910000Y-140000000D02*
X138910000Y-140279000D01*
X138950000Y-137709000D02*
X138950000Y-137920000D01*
X138950000Y-140000000D02*
X138950000Y-140211000D01*
X138990000Y-137783000D02*
X138990000Y-140137000D01*
X139030000Y-137862000D02*
X139030000Y-140058000D01*
X139070000Y-137949000D02*
X139070000Y-139971000D01*
X139110000Y-138046000D02*
X139110000Y-139874000D01*
X139150000Y-138155000D02*
X139150000Y-139765000D01*
X139190000Y-138283000D02*
X139190000Y-139637000D01*
X139230000Y-138443000D02*
X139230000Y-139477000D01*
X139270000Y-138677000D02*
X139270000Y-139243000D01*
X139290000Y-138960000D02*
G75*
G02*
X134050000Y-138960000I-2620000J0D01*
G01*
X134050000Y-138960000D02*
G75*
G02*
X139290000Y-138960000I2620000J0D01*
G01*
%TO.C,J17*%
X62165000Y-98270000D02*
X63545000Y-98270000D01*
X62165000Y-99650000D02*
X62165000Y-98270000D01*
X62165000Y-100920000D02*
X62165000Y-108650000D01*
X62165000Y-100920000D02*
X64925000Y-100920000D01*
X62165000Y-108650000D02*
X64925000Y-108650000D01*
X64925000Y-100920000D02*
X64925000Y-108650000D01*
%TO.C,K3*%
X160370000Y-103030000D02*
X176470000Y-103030000D01*
X160370000Y-114130000D02*
X160370000Y-103030000D01*
X176470000Y-103030000D02*
X176470000Y-114130000D01*
X176470000Y-114130000D02*
X160370000Y-114130000D01*
%TO.C,C14*%
X89311252Y-101090000D02*
X87888748Y-101090000D01*
X89311252Y-102910000D02*
X87888748Y-102910000D01*
%TO.C,U1*%
X80090000Y-110090000D02*
X90310000Y-110090000D01*
X80090000Y-111470000D02*
X90310000Y-111470000D01*
X80090000Y-114710000D02*
X80090000Y-110090000D01*
X83350000Y-110090000D02*
X83350000Y-111470000D01*
X87050000Y-110090000D02*
X87050000Y-111470000D01*
X90310000Y-110090000D02*
X90310000Y-114710000D01*
X90310000Y-114710000D02*
X80090000Y-114710000D01*
%TO.C,K2*%
X160170000Y-45810000D02*
X176270000Y-45810000D01*
X160170000Y-56910000D02*
X160170000Y-45810000D01*
X176270000Y-45810000D02*
X176270000Y-56910000D01*
X176270000Y-56910000D02*
X160170000Y-56910000D01*
%TO.C,J3*%
X126000000Y-78440000D02*
X126000000Y-50440000D01*
X126000000Y-81040000D02*
X126000000Y-79710000D01*
X127330000Y-81040000D02*
X126000000Y-81040000D01*
X128600000Y-78440000D02*
X126000000Y-78440000D01*
X128600000Y-81040000D02*
X128600000Y-78440000D01*
X131200000Y-50440000D02*
X126000000Y-50440000D01*
X131200000Y-81040000D02*
X128600000Y-81040000D01*
X131200000Y-81040000D02*
X131200000Y-50440000D01*
%TO.C,R6*%
X138292936Y-148250000D02*
X139747064Y-148250000D01*
X138292936Y-150070000D02*
X139747064Y-150070000D01*
%TO.C,C28*%
X113180000Y-114850000D02*
X111651000Y-114850000D01*
X113180000Y-114890000D02*
X111655000Y-114890000D01*
X113180000Y-114930000D02*
X111660000Y-114930000D01*
X113180000Y-114970000D02*
X111665000Y-114970000D01*
X113180000Y-115010000D02*
X111671000Y-115010000D01*
X113180000Y-115050000D02*
X111677000Y-115050000D01*
X113180000Y-115090000D02*
X111684000Y-115090000D01*
X113180000Y-115130000D02*
X111692000Y-115130000D01*
X113180000Y-115170000D02*
X111701000Y-115170000D01*
X113180000Y-115210000D02*
X111710000Y-115210000D01*
X113180000Y-115250000D02*
X111719000Y-115250000D01*
X113180000Y-115290000D02*
X111730000Y-115290000D01*
X113180000Y-115330000D02*
X111741000Y-115330000D01*
X113180000Y-115370000D02*
X111753000Y-115370000D01*
X113180000Y-115410000D02*
X111765000Y-115410000D01*
X113180000Y-115450000D02*
X111778000Y-115450000D01*
X113180000Y-115490000D02*
X111792000Y-115490000D01*
X113180000Y-115530000D02*
X111807000Y-115530000D01*
X113180000Y-115570000D02*
X111822000Y-115570000D01*
X113180000Y-115610000D02*
X111838000Y-115610000D01*
X113180000Y-115650000D02*
X111855000Y-115650000D01*
X113180000Y-115690000D02*
X111873000Y-115690000D01*
X113180000Y-115730000D02*
X111891000Y-115730000D01*
X113180000Y-115770000D02*
X111911000Y-115770000D01*
X113180000Y-115810000D02*
X111931000Y-115810000D01*
X113180000Y-115850000D02*
X111952000Y-115850000D01*
X113180000Y-115890000D02*
X111974000Y-115890000D01*
X113180000Y-115930000D02*
X111997000Y-115930000D01*
X113180000Y-115970000D02*
X112021000Y-115970000D01*
X113180000Y-116010000D02*
X112045000Y-116010000D01*
X113180000Y-116050000D02*
X112071000Y-116050000D01*
X113180000Y-116090000D02*
X112098000Y-116090000D01*
X113180000Y-116130000D02*
X112126000Y-116130000D01*
X113180000Y-116170000D02*
X112155000Y-116170000D01*
X113180000Y-116210000D02*
X112185000Y-116210000D01*
X113180000Y-116250000D02*
X112217000Y-116250000D01*
X113180000Y-116290000D02*
X112250000Y-116290000D01*
X113180000Y-116330000D02*
X112284000Y-116330000D01*
X113180000Y-116370000D02*
X112319000Y-116370000D01*
X113180000Y-116410000D02*
X112356000Y-116410000D01*
X113180000Y-116450000D02*
X112395000Y-116450000D01*
X113180000Y-116490000D02*
X112435000Y-116490000D01*
X113180000Y-116530000D02*
X112477000Y-116530000D01*
X113180000Y-116570000D02*
X112521000Y-116570000D01*
X113180000Y-116610000D02*
X112568000Y-116610000D01*
X113180000Y-116650000D02*
X112616000Y-116650000D01*
X113180000Y-116690000D02*
X112667000Y-116690000D01*
X113180000Y-116730000D02*
X112721000Y-116730000D01*
X113180000Y-116770000D02*
X112777000Y-116770000D01*
X113180000Y-116810000D02*
X112837000Y-116810000D01*
X113180000Y-116850000D02*
X112901000Y-116850000D01*
X113180000Y-116890000D02*
X112969000Y-116890000D01*
X114503000Y-117210000D02*
X113937000Y-117210000D01*
X114737000Y-117170000D02*
X113703000Y-117170000D01*
X114897000Y-117130000D02*
X113543000Y-117130000D01*
X115025000Y-117090000D02*
X113415000Y-117090000D01*
X115134000Y-117050000D02*
X113306000Y-117050000D01*
X115231000Y-117010000D02*
X113209000Y-117010000D01*
X115318000Y-116970000D02*
X113122000Y-116970000D01*
X115397000Y-116930000D02*
X113043000Y-116930000D01*
X115471000Y-116890000D02*
X115260000Y-116890000D01*
X115539000Y-116850000D02*
X115260000Y-116850000D01*
X115603000Y-116810000D02*
X115260000Y-116810000D01*
X115663000Y-116770000D02*
X115260000Y-116770000D01*
X115695000Y-111805225D02*
X115695000Y-112305225D01*
X115719000Y-116730000D02*
X115260000Y-116730000D01*
X115773000Y-116690000D02*
X115260000Y-116690000D01*
X115824000Y-116650000D02*
X115260000Y-116650000D01*
X115872000Y-116610000D02*
X115260000Y-116610000D01*
X115919000Y-116570000D02*
X115260000Y-116570000D01*
X115945000Y-112055225D02*
X115445000Y-112055225D01*
X115963000Y-116530000D02*
X115260000Y-116530000D01*
X116005000Y-116490000D02*
X115260000Y-116490000D01*
X116045000Y-116450000D02*
X115260000Y-116450000D01*
X116084000Y-116410000D02*
X115260000Y-116410000D01*
X116121000Y-116370000D02*
X115260000Y-116370000D01*
X116156000Y-116330000D02*
X115260000Y-116330000D01*
X116190000Y-116290000D02*
X115260000Y-116290000D01*
X116223000Y-116250000D02*
X115260000Y-116250000D01*
X116255000Y-116210000D02*
X115260000Y-116210000D01*
X116285000Y-116170000D02*
X115260000Y-116170000D01*
X116314000Y-116130000D02*
X115260000Y-116130000D01*
X116342000Y-116090000D02*
X115260000Y-116090000D01*
X116369000Y-116050000D02*
X115260000Y-116050000D01*
X116395000Y-116010000D02*
X115260000Y-116010000D01*
X116419000Y-115970000D02*
X115260000Y-115970000D01*
X116443000Y-115930000D02*
X115260000Y-115930000D01*
X116466000Y-115890000D02*
X115260000Y-115890000D01*
X116488000Y-115850000D02*
X115260000Y-115850000D01*
X116509000Y-115810000D02*
X115260000Y-115810000D01*
X116529000Y-115770000D02*
X115260000Y-115770000D01*
X116549000Y-115730000D02*
X115260000Y-115730000D01*
X116567000Y-115690000D02*
X115260000Y-115690000D01*
X116585000Y-115650000D02*
X115260000Y-115650000D01*
X116602000Y-115610000D02*
X115260000Y-115610000D01*
X116618000Y-115570000D02*
X115260000Y-115570000D01*
X116633000Y-115530000D02*
X115260000Y-115530000D01*
X116648000Y-115490000D02*
X115260000Y-115490000D01*
X116662000Y-115450000D02*
X115260000Y-115450000D01*
X116675000Y-115410000D02*
X115260000Y-115410000D01*
X116687000Y-115370000D02*
X115260000Y-115370000D01*
X116699000Y-115330000D02*
X115260000Y-115330000D01*
X116710000Y-115290000D02*
X115260000Y-115290000D01*
X116721000Y-115250000D02*
X115260000Y-115250000D01*
X116730000Y-115210000D02*
X115260000Y-115210000D01*
X116739000Y-115170000D02*
X115260000Y-115170000D01*
X116748000Y-115130000D02*
X115260000Y-115130000D01*
X116756000Y-115090000D02*
X115260000Y-115090000D01*
X116763000Y-115050000D02*
X115260000Y-115050000D01*
X116769000Y-115010000D02*
X115260000Y-115010000D01*
X116775000Y-114970000D02*
X115260000Y-114970000D01*
X116780000Y-114930000D02*
X115260000Y-114930000D01*
X116785000Y-114890000D02*
X115260000Y-114890000D01*
X116789000Y-114850000D02*
X115260000Y-114850000D01*
X116792000Y-114810000D02*
X111648000Y-114810000D01*
X116795000Y-114770000D02*
X111645000Y-114770000D01*
X116797000Y-114730000D02*
X111643000Y-114730000D01*
X116799000Y-114690000D02*
X111641000Y-114690000D01*
X116800000Y-114610000D02*
X111640000Y-114610000D01*
X116800000Y-114650000D02*
X111640000Y-114650000D01*
X116840000Y-114610000D02*
G75*
G02*
X111600000Y-114610000I-2620000J0D01*
G01*
X111600000Y-114610000D02*
G75*
G02*
X116840000Y-114610000I2620000J0D01*
G01*
%TO.C,C26*%
X107131252Y-115450000D02*
X105708748Y-115450000D01*
X107131252Y-117270000D02*
X105708748Y-117270000D01*
%TO.C,Y1*%
X101385000Y-111285000D02*
X101385000Y-105035000D01*
X106255000Y-105035000D02*
X106255000Y-111285000D01*
X101385000Y-105035000D02*
G75*
G02*
X106255000Y-105035000I2435000J0D01*
G01*
X106255000Y-111285000D02*
G75*
G02*
X101385000Y-111285000I-2435000J0D01*
G01*
%TO.C,J8*%
X120400000Y-138300000D02*
X126600000Y-138300000D01*
X120400000Y-147200000D02*
X120400000Y-138300000D01*
X120400000Y-153000000D02*
X120400000Y-149800000D01*
X120900000Y-153000000D02*
X120400000Y-153000000D01*
X120900000Y-155500000D02*
X120900000Y-153000000D01*
X126100000Y-153000000D02*
X126100000Y-155500000D01*
X126100000Y-155500000D02*
X120900000Y-155500000D01*
X126600000Y-138300000D02*
X126600000Y-139500000D01*
X126600000Y-142700000D02*
X126600000Y-149200000D01*
X126600000Y-149200000D02*
X128600000Y-149200000D01*
X126600000Y-151800000D02*
X126600000Y-153000000D01*
X126600000Y-151800000D02*
X128600000Y-151800000D01*
X126600000Y-153000000D02*
X126100000Y-153000000D01*
%TO.C,U9*%
X111540000Y-69340000D02*
X111795000Y-69340000D01*
X111540000Y-77060000D02*
X111540000Y-69340000D01*
X111795000Y-77060000D02*
X111540000Y-77060000D01*
X121805000Y-69340000D02*
X122060000Y-69340000D01*
X122060000Y-69340000D02*
X122060000Y-77060000D01*
X122060000Y-77060000D02*
X121805000Y-77060000D01*
X121810000Y-68550000D02*
X122280000Y-68210000D01*
X122280000Y-68890000D01*
X121810000Y-68550000D01*
G36*
X122280000Y-68890000D02*
G01*
X121810000Y-68550000D01*
X122280000Y-68210000D01*
X122280000Y-68890000D01*
G37*
%TO.C,C12*%
X75511252Y-129490000D02*
X74088748Y-129490000D01*
X75511252Y-131310000D02*
X74088748Y-131310000D01*
%TO.C,R11*%
X95892936Y-115450000D02*
X97347064Y-115450000D01*
X95892936Y-117270000D02*
X97347064Y-117270000D01*
%TO.C,T1*%
X111560000Y-118510000D02*
X129660000Y-118510000D01*
X111560000Y-136610000D02*
X111560000Y-118510000D01*
X129660000Y-118510000D02*
X129660000Y-136610000D01*
X129660000Y-136610000D02*
X111560000Y-136610000D01*
%TO.C,U4*%
X87752500Y-88623333D02*
X89572500Y-88623333D01*
X87752500Y-88673333D02*
X87752500Y-88623333D01*
X87752500Y-91743333D02*
X87752500Y-91693333D01*
X89572500Y-88623333D02*
X89572500Y-88673333D01*
X89572500Y-91693333D02*
X89572500Y-91743333D01*
X89572500Y-91743333D02*
X87752500Y-91743333D01*
X87212500Y-88673333D02*
X86972500Y-88343333D01*
X87452500Y-88343333D01*
X87212500Y-88673333D01*
G36*
X87212500Y-88673333D02*
G01*
X86972500Y-88343333D01*
X87452500Y-88343333D01*
X87212500Y-88673333D01*
G37*
%TO.C,R14*%
X63292936Y-93850000D02*
X64747064Y-93850000D01*
X63292936Y-95670000D02*
X64747064Y-95670000D01*
%TO.C,C10*%
X75511252Y-124290000D02*
X74088748Y-124290000D01*
X75511252Y-126110000D02*
X74088748Y-126110000D01*
%TO.C,R13*%
X129510000Y-113832936D02*
X129510000Y-115287064D01*
X131330000Y-113832936D02*
X131330000Y-115287064D01*
%TO.C,U3*%
X87752500Y-84840000D02*
X89572500Y-84840000D01*
X87752500Y-84890000D02*
X87752500Y-84840000D01*
X87752500Y-87960000D02*
X87752500Y-87910000D01*
X89572500Y-84840000D02*
X89572500Y-84890000D01*
X89572500Y-87910000D02*
X89572500Y-87960000D01*
X89572500Y-87960000D02*
X87752500Y-87960000D01*
X87212500Y-84890000D02*
X86972500Y-84560000D01*
X87452500Y-84560000D01*
X87212500Y-84890000D01*
G36*
X87212500Y-84890000D02*
G01*
X86972500Y-84560000D01*
X87452500Y-84560000D01*
X87212500Y-84890000D01*
G37*
%TO.C,K24*%
X160150000Y-69650000D02*
X176250000Y-69650000D01*
X160150000Y-80750000D02*
X160150000Y-69650000D01*
X176250000Y-69650000D02*
X176250000Y-80750000D01*
X176250000Y-80750000D02*
X160150000Y-80750000D01*
%TO.C,U8*%
X109190000Y-102390000D02*
X109640000Y-102390000D01*
X109190000Y-102840000D02*
X109190000Y-102390000D01*
X109190000Y-109610000D02*
X109190000Y-109160000D01*
X109640000Y-109610000D02*
X109190000Y-109610000D01*
X115960000Y-102390000D02*
X116410000Y-102390000D01*
X116410000Y-102390000D02*
X116410000Y-102840000D01*
X116410000Y-109160000D02*
X116410000Y-109610000D01*
X116410000Y-109610000D02*
X115960000Y-109610000D01*
X108550000Y-102840000D02*
X108210000Y-102370000D01*
X108890000Y-102370000D01*
X108550000Y-102840000D01*
G36*
X108550000Y-102840000D02*
G01*
X108210000Y-102370000D01*
X108890000Y-102370000D01*
X108550000Y-102840000D01*
G37*
%TO.C,J5*%
X136040000Y-48740000D02*
X136040000Y-47360000D01*
X137420000Y-48740000D02*
X136040000Y-48740000D01*
X138690000Y-45980000D02*
X141340000Y-45980000D01*
X138690000Y-48740000D02*
X138690000Y-45980000D01*
X138690000Y-48740000D02*
X141340000Y-48740000D01*
X141340000Y-48740000D02*
X141340000Y-45980000D01*
%TO.C,R7*%
X121335436Y-102090000D02*
X122789564Y-102090000D01*
X121335436Y-103910000D02*
X122789564Y-103910000D01*
%TO.C,J18*%
X94100000Y-138300000D02*
X100300000Y-138300000D01*
X94100000Y-147200000D02*
X94100000Y-138300000D01*
X94100000Y-153000000D02*
X94100000Y-149800000D01*
X94600000Y-153000000D02*
X94100000Y-153000000D01*
X94600000Y-155500000D02*
X94600000Y-153000000D01*
X99800000Y-153000000D02*
X99800000Y-155500000D01*
X99800000Y-155500000D02*
X94600000Y-155500000D01*
X100300000Y-138300000D02*
X100300000Y-139500000D01*
X100300000Y-142700000D02*
X100300000Y-149200000D01*
X100300000Y-149200000D02*
X102300000Y-149200000D01*
X100300000Y-151800000D02*
X100300000Y-153000000D01*
X100300000Y-151800000D02*
X102300000Y-151800000D01*
X100300000Y-153000000D02*
X99800000Y-153000000D01*
%TO.C,C30*%
X138731252Y-117650000D02*
X137308748Y-117650000D01*
X138731252Y-119470000D02*
X137308748Y-119470000D01*
%TO.C,J12*%
X178300000Y-99040000D02*
X186340000Y-99040000D01*
X178300000Y-101860000D02*
X178300000Y-99040000D01*
X178300000Y-144780000D02*
X178300000Y-102460000D01*
X180420000Y-99040000D02*
X180420000Y-100280000D01*
X180420000Y-104040000D02*
X180420000Y-106617000D01*
X180420000Y-107703000D02*
X180420000Y-111617000D01*
X180420000Y-112703000D02*
X180420000Y-116617000D01*
X180420000Y-117703000D02*
X180420000Y-121617000D01*
X180420000Y-122703000D02*
X180420000Y-126617000D01*
X180420000Y-127703000D02*
X180420000Y-131617000D01*
X180420000Y-132703000D02*
X180420000Y-136617000D01*
X180420000Y-137703000D02*
X180420000Y-141617000D01*
X180420000Y-142703000D02*
X180420000Y-144780000D01*
X181720000Y-99040000D02*
X181720000Y-100280000D01*
X181720000Y-104040000D02*
X181720000Y-105348000D01*
X181720000Y-108972000D02*
X181720000Y-110348000D01*
X181720000Y-113972000D02*
X181720000Y-115348000D01*
X181720000Y-118972000D02*
X181720000Y-120348000D01*
X181720000Y-123972000D02*
X181720000Y-125348000D01*
X181720000Y-128972000D02*
X181720000Y-130348000D01*
X181720000Y-133972000D02*
X181720000Y-135348000D01*
X181720000Y-138972000D02*
X181720000Y-140348000D01*
X181720000Y-143972000D02*
X181720000Y-144780000D01*
X182720000Y-99040000D02*
X182720000Y-100280000D01*
X182720000Y-104040000D02*
X182720000Y-105348000D01*
X182720000Y-108972000D02*
X182720000Y-110348000D01*
X182720000Y-113972000D02*
X182720000Y-115348000D01*
X182720000Y-118972000D02*
X182720000Y-120348000D01*
X182720000Y-123972000D02*
X182720000Y-125348000D01*
X182720000Y-128972000D02*
X182720000Y-130348000D01*
X182720000Y-133972000D02*
X182720000Y-135348000D01*
X182720000Y-138972000D02*
X182720000Y-140348000D01*
X182720000Y-143972000D02*
X182720000Y-144780000D01*
X186340000Y-99040000D02*
X186340000Y-144780000D01*
X186340000Y-144780000D02*
X178300000Y-144780000D01*
X178300000Y-102160000D02*
X177690000Y-102600000D01*
X177690000Y-101720000D01*
X178300000Y-102160000D01*
G36*
X178300000Y-102160000D02*
G01*
X177690000Y-102600000D01*
X177690000Y-101720000D01*
X178300000Y-102160000D01*
G37*
%TO.C,J10*%
X60500000Y-80040000D02*
X68540000Y-80040000D01*
X60500000Y-82860000D02*
X60500000Y-80040000D01*
X60500000Y-90780000D02*
X60500000Y-83460000D01*
X62620000Y-80040000D02*
X62620000Y-81280000D01*
X62620000Y-85040000D02*
X62620000Y-87617000D01*
X62620000Y-88703000D02*
X62620000Y-90780000D01*
X63920000Y-80040000D02*
X63920000Y-81280000D01*
X63920000Y-85040000D02*
X63920000Y-86348000D01*
X63920000Y-89972000D02*
X63920000Y-90780000D01*
X64920000Y-80040000D02*
X64920000Y-81280000D01*
X64920000Y-85040000D02*
X64920000Y-86348000D01*
X64920000Y-89972000D02*
X64920000Y-90780000D01*
X68540000Y-80040000D02*
X68540000Y-90780000D01*
X68540000Y-90780000D02*
X60500000Y-90780000D01*
X60500000Y-83160000D02*
X59890000Y-83600000D01*
X59890000Y-82720000D01*
X60500000Y-83160000D01*
G36*
X60500000Y-83160000D02*
G01*
X59890000Y-83600000D01*
X59890000Y-82720000D01*
X60500000Y-83160000D01*
G37*
%TO.C,C23*%
X127108748Y-104450000D02*
X128531252Y-104450000D01*
X127108748Y-106270000D02*
X128531252Y-106270000D01*
%TO.C,U6*%
X87752500Y-96190000D02*
X89572500Y-96190000D01*
X87752500Y-96240000D02*
X87752500Y-96190000D01*
X87752500Y-99310000D02*
X87752500Y-99260000D01*
X89572500Y-96190000D02*
X89572500Y-96240000D01*
X89572500Y-99260000D02*
X89572500Y-99310000D01*
X89572500Y-99310000D02*
X87752500Y-99310000D01*
X87212500Y-96240000D02*
X86972500Y-95910000D01*
X87452500Y-95910000D01*
X87212500Y-96240000D01*
G36*
X87212500Y-96240000D02*
G01*
X86972500Y-95910000D01*
X87452500Y-95910000D01*
X87212500Y-96240000D01*
G37*
%TO.C,D2*%
X72365000Y-150740000D02*
X72365000Y-149360000D01*
X73745000Y-150740000D02*
X72365000Y-150740000D01*
X75015000Y-147980000D02*
X77665000Y-147980000D01*
X75015000Y-150740000D02*
X75015000Y-147980000D01*
X75015000Y-150740000D02*
X77665000Y-150740000D01*
X77665000Y-150740000D02*
X77665000Y-147980000D01*
%TO.C,L4*%
X121272936Y-106890000D02*
X122727064Y-106890000D01*
X121272936Y-108710000D02*
X122727064Y-108710000D01*
%TO.C,R2*%
X74108748Y-132850000D02*
X75531252Y-132850000D01*
X74108748Y-134670000D02*
X75531252Y-134670000D01*
%TO.C,D25*%
X83185000Y-137965000D02*
X87070000Y-137965000D01*
X87070000Y-135695000D02*
X83185000Y-135695000D01*
X87070000Y-137965000D02*
X87070000Y-135695000D01*
%TO.C,U2*%
X97140000Y-69140000D02*
X97395000Y-69140000D01*
X97140000Y-76860000D02*
X97140000Y-69140000D01*
X97395000Y-76860000D02*
X97140000Y-76860000D01*
X107405000Y-69140000D02*
X107660000Y-69140000D01*
X107660000Y-69140000D02*
X107660000Y-76860000D01*
X107660000Y-76860000D02*
X107405000Y-76860000D01*
X107410000Y-68350000D02*
X107880000Y-68010000D01*
X107880000Y-68690000D01*
X107410000Y-68350000D01*
G36*
X107880000Y-68690000D02*
G01*
X107410000Y-68350000D01*
X107880000Y-68010000D01*
X107880000Y-68690000D01*
G37*
%TO.C,D8*%
X72400000Y-76560000D02*
X73420000Y-76560000D01*
X77840000Y-78030000D02*
X77840000Y-75090000D01*
X77960000Y-78030000D02*
X77960000Y-75090000D01*
X78080000Y-78030000D02*
X78080000Y-75090000D01*
X79880000Y-76560000D02*
X78860000Y-76560000D01*
X73420000Y-75090000D02*
X78860000Y-75090000D01*
X78860000Y-78030000D01*
X73420000Y-78030000D01*
X73420000Y-75090000D01*
%TO.C,J9*%
X107200000Y-138300000D02*
X113400000Y-138300000D01*
X107200000Y-147200000D02*
X107200000Y-138300000D01*
X107200000Y-153000000D02*
X107200000Y-149800000D01*
X107700000Y-153000000D02*
X107200000Y-153000000D01*
X107700000Y-155500000D02*
X107700000Y-153000000D01*
X112900000Y-153000000D02*
X112900000Y-155500000D01*
X112900000Y-155500000D02*
X107700000Y-155500000D01*
X113400000Y-138300000D02*
X113400000Y-139500000D01*
X113400000Y-142700000D02*
X113400000Y-149200000D01*
X113400000Y-149200000D02*
X115400000Y-149200000D01*
X113400000Y-151800000D02*
X113400000Y-153000000D01*
X113400000Y-151800000D02*
X115400000Y-151800000D01*
X113400000Y-153000000D02*
X112900000Y-153000000D01*
%TO.C,J1*%
X60300000Y-63040000D02*
X68340000Y-63040000D01*
X60300000Y-65860000D02*
X60300000Y-63040000D01*
X60300000Y-73780000D02*
X60300000Y-66460000D01*
X62420000Y-63040000D02*
X62420000Y-64280000D01*
X62420000Y-68040000D02*
X62420000Y-70617000D01*
X62420000Y-71703000D02*
X62420000Y-73780000D01*
X63720000Y-63040000D02*
X63720000Y-64280000D01*
X63720000Y-68040000D02*
X63720000Y-69348000D01*
X63720000Y-72972000D02*
X63720000Y-73780000D01*
X64720000Y-63040000D02*
X64720000Y-64280000D01*
X64720000Y-68040000D02*
X64720000Y-69348000D01*
X64720000Y-72972000D02*
X64720000Y-73780000D01*
X68340000Y-63040000D02*
X68340000Y-73780000D01*
X68340000Y-73780000D02*
X60300000Y-73780000D01*
X60300000Y-66160000D02*
X59690000Y-66600000D01*
X59690000Y-65720000D01*
X60300000Y-66160000D01*
G36*
X60300000Y-66160000D02*
G01*
X59690000Y-66600000D01*
X59690000Y-65720000D01*
X60300000Y-66160000D01*
G37*
%TO.C,K19*%
X143170000Y-45820000D02*
X159270000Y-45820000D01*
X143170000Y-56920000D02*
X143170000Y-45820000D01*
X159270000Y-45820000D02*
X159270000Y-56920000D01*
X159270000Y-56920000D02*
X143170000Y-56920000D01*
%TO.C,K7*%
X160370000Y-127410000D02*
X176470000Y-127410000D01*
X160370000Y-138510000D02*
X160370000Y-127410000D01*
X176470000Y-127410000D02*
X176470000Y-138510000D01*
X176470000Y-138510000D02*
X160370000Y-138510000D01*
%TO.C,T2*%
X92160000Y-118510000D02*
X110260000Y-118510000D01*
X92160000Y-136610000D02*
X92160000Y-118510000D01*
X110260000Y-118510000D02*
X110260000Y-136610000D01*
X110260000Y-136610000D02*
X92160000Y-136610000D01*
%TO.C,C24*%
X127108748Y-107050000D02*
X128531252Y-107050000D01*
X127108748Y-108870000D02*
X128531252Y-108870000D01*
%TO.C,C19*%
X97546248Y-111300000D02*
X98968752Y-111300000D01*
X97546248Y-113120000D02*
X98968752Y-113120000D01*
%TO.C,C32*%
X112586252Y-81690000D02*
X111163748Y-81690000D01*
X112586252Y-83510000D02*
X111163748Y-83510000D01*
%TO.C,K5*%
X160370000Y-115030000D02*
X176470000Y-115030000D01*
X160370000Y-126130000D02*
X160370000Y-115030000D01*
X176470000Y-115030000D02*
X176470000Y-126130000D01*
X176470000Y-126130000D02*
X160370000Y-126130000D01*
%TO.C,C21*%
X124310000Y-115471252D02*
X124310000Y-114048748D01*
X126130000Y-115471252D02*
X126130000Y-114048748D01*
%TO.C,D1*%
X72080000Y-62160000D02*
X73100000Y-62160000D01*
X77520000Y-63630000D02*
X77520000Y-60690000D01*
X77640000Y-63630000D02*
X77640000Y-60690000D01*
X77760000Y-63630000D02*
X77760000Y-60690000D01*
X79560000Y-62160000D02*
X78540000Y-62160000D01*
X73100000Y-60690000D02*
X78540000Y-60690000D01*
X78540000Y-63630000D01*
X73100000Y-63630000D01*
X73100000Y-60690000D01*
%TO.C,D5*%
X133050000Y-110910000D02*
X137460000Y-110910000D01*
X137460000Y-108690000D02*
X133050000Y-108690000D01*
X137460000Y-110910000D02*
X137460000Y-108690000D01*
%TO.C,C1*%
X71175113Y-68843000D02*
X71175113Y-68277000D01*
X71215113Y-69077000D02*
X71215113Y-68043000D01*
X71255113Y-69237000D02*
X71255113Y-67883000D01*
X71295113Y-69365000D02*
X71295113Y-67755000D01*
X71335113Y-69474000D02*
X71335113Y-67646000D01*
X71375113Y-69571000D02*
X71375113Y-67549000D01*
X71415113Y-69658000D02*
X71415113Y-67462000D01*
X71455113Y-69737000D02*
X71455113Y-67383000D01*
X71495113Y-67520000D02*
X71495113Y-67309000D01*
X71495113Y-69811000D02*
X71495113Y-69600000D01*
X71535113Y-67520000D02*
X71535113Y-67241000D01*
X71535113Y-69879000D02*
X71535113Y-69600000D01*
X71575113Y-67520000D02*
X71575113Y-67177000D01*
X71575113Y-69943000D02*
X71575113Y-69600000D01*
X71615113Y-67520000D02*
X71615113Y-67117000D01*
X71615113Y-70003000D02*
X71615113Y-69600000D01*
X71655113Y-67520000D02*
X71655113Y-67061000D01*
X71655113Y-70059000D02*
X71655113Y-69600000D01*
X71695113Y-67520000D02*
X71695113Y-67007000D01*
X71695113Y-70113000D02*
X71695113Y-69600000D01*
X71735113Y-67520000D02*
X71735113Y-66956000D01*
X71735113Y-70164000D02*
X71735113Y-69600000D01*
X71775113Y-67520000D02*
X71775113Y-66908000D01*
X71775113Y-70212000D02*
X71775113Y-69600000D01*
X71815113Y-67520000D02*
X71815113Y-66861000D01*
X71815113Y-70259000D02*
X71815113Y-69600000D01*
X71855113Y-67520000D02*
X71855113Y-66817000D01*
X71855113Y-70303000D02*
X71855113Y-69600000D01*
X71895113Y-67520000D02*
X71895113Y-66775000D01*
X71895113Y-70345000D02*
X71895113Y-69600000D01*
X71935113Y-67520000D02*
X71935113Y-66735000D01*
X71935113Y-70385000D02*
X71935113Y-69600000D01*
X71975113Y-67520000D02*
X71975113Y-66696000D01*
X71975113Y-70424000D02*
X71975113Y-69600000D01*
X72015113Y-67520000D02*
X72015113Y-66659000D01*
X72015113Y-70461000D02*
X72015113Y-69600000D01*
X72055113Y-67520000D02*
X72055113Y-66624000D01*
X72055113Y-70496000D02*
X72055113Y-69600000D01*
X72095113Y-67520000D02*
X72095113Y-66590000D01*
X72095113Y-70530000D02*
X72095113Y-69600000D01*
X72135113Y-67520000D02*
X72135113Y-66557000D01*
X72135113Y-70563000D02*
X72135113Y-69600000D01*
X72175113Y-67520000D02*
X72175113Y-66525000D01*
X72175113Y-70595000D02*
X72175113Y-69600000D01*
X72215113Y-67520000D02*
X72215113Y-66495000D01*
X72215113Y-70625000D02*
X72215113Y-69600000D01*
X72255113Y-67520000D02*
X72255113Y-66466000D01*
X72255113Y-70654000D02*
X72255113Y-69600000D01*
X72295113Y-67520000D02*
X72295113Y-66438000D01*
X72295113Y-70682000D02*
X72295113Y-69600000D01*
X72335113Y-67520000D02*
X72335113Y-66411000D01*
X72335113Y-70709000D02*
X72335113Y-69600000D01*
X72375113Y-67520000D02*
X72375113Y-66385000D01*
X72375113Y-70735000D02*
X72375113Y-69600000D01*
X72415113Y-67520000D02*
X72415113Y-66361000D01*
X72415113Y-70759000D02*
X72415113Y-69600000D01*
X72455113Y-67520000D02*
X72455113Y-66337000D01*
X72455113Y-70783000D02*
X72455113Y-69600000D01*
X72495113Y-67520000D02*
X72495113Y-66314000D01*
X72495113Y-70806000D02*
X72495113Y-69600000D01*
X72535113Y-67520000D02*
X72535113Y-66292000D01*
X72535113Y-70828000D02*
X72535113Y-69600000D01*
X72575113Y-67520000D02*
X72575113Y-66271000D01*
X72575113Y-70849000D02*
X72575113Y-69600000D01*
X72615113Y-67520000D02*
X72615113Y-66251000D01*
X72615113Y-70869000D02*
X72615113Y-69600000D01*
X72655113Y-67520000D02*
X72655113Y-66231000D01*
X72655113Y-70889000D02*
X72655113Y-69600000D01*
X72695113Y-67520000D02*
X72695113Y-66213000D01*
X72695113Y-70907000D02*
X72695113Y-69600000D01*
X72735113Y-67520000D02*
X72735113Y-66195000D01*
X72735113Y-70925000D02*
X72735113Y-69600000D01*
X72775113Y-67520000D02*
X72775113Y-66178000D01*
X72775113Y-70942000D02*
X72775113Y-69600000D01*
X72815113Y-67520000D02*
X72815113Y-66162000D01*
X72815113Y-70958000D02*
X72815113Y-69600000D01*
X72855113Y-67520000D02*
X72855113Y-66147000D01*
X72855113Y-70973000D02*
X72855113Y-69600000D01*
X72895113Y-67520000D02*
X72895113Y-66132000D01*
X72895113Y-70988000D02*
X72895113Y-69600000D01*
X72935113Y-67520000D02*
X72935113Y-66118000D01*
X72935113Y-71002000D02*
X72935113Y-69600000D01*
X72975113Y-67520000D02*
X72975113Y-66105000D01*
X72975113Y-71015000D02*
X72975113Y-69600000D01*
X73015113Y-67520000D02*
X73015113Y-66093000D01*
X73015113Y-71027000D02*
X73015113Y-69600000D01*
X73055113Y-67520000D02*
X73055113Y-66081000D01*
X73055113Y-71039000D02*
X73055113Y-69600000D01*
X73095113Y-67520000D02*
X73095113Y-66070000D01*
X73095113Y-71050000D02*
X73095113Y-69600000D01*
X73135113Y-67520000D02*
X73135113Y-66059000D01*
X73135113Y-71061000D02*
X73135113Y-69600000D01*
X73175113Y-67520000D02*
X73175113Y-66050000D01*
X73175113Y-71070000D02*
X73175113Y-69600000D01*
X73215113Y-67520000D02*
X73215113Y-66041000D01*
X73215113Y-71079000D02*
X73215113Y-69600000D01*
X73255113Y-67520000D02*
X73255113Y-66032000D01*
X73255113Y-71088000D02*
X73255113Y-69600000D01*
X73295113Y-67520000D02*
X73295113Y-66024000D01*
X73295113Y-71096000D02*
X73295113Y-69600000D01*
X73335113Y-67520000D02*
X73335113Y-66017000D01*
X73335113Y-71103000D02*
X73335113Y-69600000D01*
X73375113Y-67520000D02*
X73375113Y-66011000D01*
X73375113Y-71109000D02*
X73375113Y-69600000D01*
X73415113Y-67520000D02*
X73415113Y-66005000D01*
X73415113Y-71115000D02*
X73415113Y-69600000D01*
X73455113Y-67520000D02*
X73455113Y-66000000D01*
X73455113Y-71120000D02*
X73455113Y-69600000D01*
X73495113Y-67520000D02*
X73495113Y-65995000D01*
X73495113Y-71125000D02*
X73495113Y-69600000D01*
X73535113Y-67520000D02*
X73535113Y-65991000D01*
X73535113Y-71129000D02*
X73535113Y-69600000D01*
X73575113Y-71132000D02*
X73575113Y-65988000D01*
X73615113Y-71135000D02*
X73615113Y-65985000D01*
X73655113Y-71137000D02*
X73655113Y-65983000D01*
X73695113Y-71139000D02*
X73695113Y-65981000D01*
X73735113Y-71140000D02*
X73735113Y-65980000D01*
X73775113Y-71140000D02*
X73775113Y-65980000D01*
X76329888Y-70285000D02*
X76329888Y-69785000D01*
X76579888Y-70035000D02*
X76079888Y-70035000D01*
X76395113Y-68560000D02*
G75*
G02*
X71155113Y-68560000I-2620000J0D01*
G01*
X71155113Y-68560000D02*
G75*
G02*
X76395113Y-68560000I2620000J0D01*
G01*
%TO.C,J2*%
X90600000Y-78440000D02*
X90600000Y-50440000D01*
X90600000Y-81040000D02*
X90600000Y-79710000D01*
X91930000Y-81040000D02*
X90600000Y-81040000D01*
X93200000Y-78440000D02*
X90600000Y-78440000D01*
X93200000Y-81040000D02*
X93200000Y-78440000D01*
X95800000Y-50440000D02*
X90600000Y-50440000D01*
X95800000Y-81040000D02*
X93200000Y-81040000D01*
X95800000Y-81040000D02*
X95800000Y-50440000D01*
%TO.C,U10*%
X113027500Y-84440000D02*
X114847500Y-84440000D01*
X113027500Y-84490000D02*
X113027500Y-84440000D01*
X113027500Y-87560000D02*
X113027500Y-87510000D01*
X114847500Y-84440000D02*
X114847500Y-84490000D01*
X114847500Y-87510000D02*
X114847500Y-87560000D01*
X114847500Y-87560000D02*
X113027500Y-87560000D01*
X112487500Y-84490000D02*
X112247500Y-84160000D01*
X112727500Y-84160000D01*
X112487500Y-84490000D01*
G36*
X112487500Y-84490000D02*
G01*
X112247500Y-84160000D01*
X112727500Y-84160000D01*
X112487500Y-84490000D01*
G37*
%TO.C,U14*%
X120940000Y-86515000D02*
X128660000Y-86515000D01*
X120940000Y-86760000D02*
X120940000Y-86515000D01*
X120940000Y-98285000D02*
X120940000Y-98040000D01*
X128660000Y-86515000D02*
X128660000Y-86760000D01*
X128660000Y-98040000D02*
X128660000Y-98285000D01*
X128660000Y-98285000D02*
X120940000Y-98285000D01*
X120150000Y-86760000D02*
X119810000Y-86290000D01*
X120490000Y-86290000D01*
X120150000Y-86760000D01*
G36*
X120150000Y-86760000D02*
G01*
X119810000Y-86290000D01*
X120490000Y-86290000D01*
X120150000Y-86760000D01*
G37*
%TO.C,K10*%
X142970000Y-103030000D02*
X159070000Y-103030000D01*
X142970000Y-114130000D02*
X142970000Y-103030000D01*
X159070000Y-103030000D02*
X159070000Y-114130000D01*
X159070000Y-114130000D02*
X142970000Y-114130000D01*
%TO.C,K20*%
X143170000Y-57616667D02*
X159270000Y-57616667D01*
X143170000Y-68716667D02*
X143170000Y-57616667D01*
X159270000Y-57616667D02*
X159270000Y-68716667D01*
X159270000Y-68716667D02*
X143170000Y-68716667D01*
%TO.C,C3*%
X71175113Y-82243000D02*
X71175113Y-81677000D01*
X71215113Y-82477000D02*
X71215113Y-81443000D01*
X71255113Y-82637000D02*
X71255113Y-81283000D01*
X71295113Y-82765000D02*
X71295113Y-81155000D01*
X71335113Y-82874000D02*
X71335113Y-81046000D01*
X71375113Y-82971000D02*
X71375113Y-80949000D01*
X71415113Y-83058000D02*
X71415113Y-80862000D01*
X71455113Y-83137000D02*
X71455113Y-80783000D01*
X71495113Y-80920000D02*
X71495113Y-80709000D01*
X71495113Y-83211000D02*
X71495113Y-83000000D01*
X71535113Y-80920000D02*
X71535113Y-80641000D01*
X71535113Y-83279000D02*
X71535113Y-83000000D01*
X71575113Y-80920000D02*
X71575113Y-80577000D01*
X71575113Y-83343000D02*
X71575113Y-83000000D01*
X71615113Y-80920000D02*
X71615113Y-80517000D01*
X71615113Y-83403000D02*
X71615113Y-83000000D01*
X71655113Y-80920000D02*
X71655113Y-80461000D01*
X71655113Y-83459000D02*
X71655113Y-83000000D01*
X71695113Y-80920000D02*
X71695113Y-80407000D01*
X71695113Y-83513000D02*
X71695113Y-83000000D01*
X71735113Y-80920000D02*
X71735113Y-80356000D01*
X71735113Y-83564000D02*
X71735113Y-83000000D01*
X71775113Y-80920000D02*
X71775113Y-80308000D01*
X71775113Y-83612000D02*
X71775113Y-83000000D01*
X71815113Y-80920000D02*
X71815113Y-80261000D01*
X71815113Y-83659000D02*
X71815113Y-83000000D01*
X71855113Y-80920000D02*
X71855113Y-80217000D01*
X71855113Y-83703000D02*
X71855113Y-83000000D01*
X71895113Y-80920000D02*
X71895113Y-80175000D01*
X71895113Y-83745000D02*
X71895113Y-83000000D01*
X71935113Y-80920000D02*
X71935113Y-80135000D01*
X71935113Y-83785000D02*
X71935113Y-83000000D01*
X71975113Y-80920000D02*
X71975113Y-80096000D01*
X71975113Y-83824000D02*
X71975113Y-83000000D01*
X72015113Y-80920000D02*
X72015113Y-80059000D01*
X72015113Y-83861000D02*
X72015113Y-83000000D01*
X72055113Y-80920000D02*
X72055113Y-80024000D01*
X72055113Y-83896000D02*
X72055113Y-83000000D01*
X72095113Y-80920000D02*
X72095113Y-79990000D01*
X72095113Y-83930000D02*
X72095113Y-83000000D01*
X72135113Y-80920000D02*
X72135113Y-79957000D01*
X72135113Y-83963000D02*
X72135113Y-83000000D01*
X72175113Y-80920000D02*
X72175113Y-79925000D01*
X72175113Y-83995000D02*
X72175113Y-83000000D01*
X72215113Y-80920000D02*
X72215113Y-79895000D01*
X72215113Y-84025000D02*
X72215113Y-83000000D01*
X72255113Y-80920000D02*
X72255113Y-79866000D01*
X72255113Y-84054000D02*
X72255113Y-83000000D01*
X72295113Y-80920000D02*
X72295113Y-79838000D01*
X72295113Y-84082000D02*
X72295113Y-83000000D01*
X72335113Y-80920000D02*
X72335113Y-79811000D01*
X72335113Y-84109000D02*
X72335113Y-83000000D01*
X72375113Y-80920000D02*
X72375113Y-79785000D01*
X72375113Y-84135000D02*
X72375113Y-83000000D01*
X72415113Y-80920000D02*
X72415113Y-79761000D01*
X72415113Y-84159000D02*
X72415113Y-83000000D01*
X72455113Y-80920000D02*
X72455113Y-79737000D01*
X72455113Y-84183000D02*
X72455113Y-83000000D01*
X72495113Y-80920000D02*
X72495113Y-79714000D01*
X72495113Y-84206000D02*
X72495113Y-83000000D01*
X72535113Y-80920000D02*
X72535113Y-79692000D01*
X72535113Y-84228000D02*
X72535113Y-83000000D01*
X72575113Y-80920000D02*
X72575113Y-79671000D01*
X72575113Y-84249000D02*
X72575113Y-83000000D01*
X72615113Y-80920000D02*
X72615113Y-79651000D01*
X72615113Y-84269000D02*
X72615113Y-83000000D01*
X72655113Y-80920000D02*
X72655113Y-79631000D01*
X72655113Y-84289000D02*
X72655113Y-83000000D01*
X72695113Y-80920000D02*
X72695113Y-79613000D01*
X72695113Y-84307000D02*
X72695113Y-83000000D01*
X72735113Y-80920000D02*
X72735113Y-79595000D01*
X72735113Y-84325000D02*
X72735113Y-83000000D01*
X72775113Y-80920000D02*
X72775113Y-79578000D01*
X72775113Y-84342000D02*
X72775113Y-83000000D01*
X72815113Y-80920000D02*
X72815113Y-79562000D01*
X72815113Y-84358000D02*
X72815113Y-83000000D01*
X72855113Y-80920000D02*
X72855113Y-79547000D01*
X72855113Y-84373000D02*
X72855113Y-83000000D01*
X72895113Y-80920000D02*
X72895113Y-79532000D01*
X72895113Y-84388000D02*
X72895113Y-83000000D01*
X72935113Y-80920000D02*
X72935113Y-79518000D01*
X72935113Y-84402000D02*
X72935113Y-83000000D01*
X72975113Y-80920000D02*
X72975113Y-79505000D01*
X72975113Y-84415000D02*
X72975113Y-83000000D01*
X73015113Y-80920000D02*
X73015113Y-79493000D01*
X73015113Y-84427000D02*
X73015113Y-83000000D01*
X73055113Y-80920000D02*
X73055113Y-79481000D01*
X73055113Y-84439000D02*
X73055113Y-83000000D01*
X73095113Y-80920000D02*
X73095113Y-79470000D01*
X73095113Y-84450000D02*
X73095113Y-83000000D01*
X73135113Y-80920000D02*
X73135113Y-79459000D01*
X73135113Y-84461000D02*
X73135113Y-83000000D01*
X73175113Y-80920000D02*
X73175113Y-79450000D01*
X73175113Y-84470000D02*
X73175113Y-83000000D01*
X73215113Y-80920000D02*
X73215113Y-79441000D01*
X73215113Y-84479000D02*
X73215113Y-83000000D01*
X73255113Y-80920000D02*
X73255113Y-79432000D01*
X73255113Y-84488000D02*
X73255113Y-83000000D01*
X73295113Y-80920000D02*
X73295113Y-79424000D01*
X73295113Y-84496000D02*
X73295113Y-83000000D01*
X73335113Y-80920000D02*
X73335113Y-79417000D01*
X73335113Y-84503000D02*
X73335113Y-83000000D01*
X73375113Y-80920000D02*
X73375113Y-79411000D01*
X73375113Y-84509000D02*
X73375113Y-83000000D01*
X73415113Y-80920000D02*
X73415113Y-79405000D01*
X73415113Y-84515000D02*
X73415113Y-83000000D01*
X73455113Y-80920000D02*
X73455113Y-79400000D01*
X73455113Y-84520000D02*
X73455113Y-83000000D01*
X73495113Y-80920000D02*
X73495113Y-79395000D01*
X73495113Y-84525000D02*
X73495113Y-83000000D01*
X73535113Y-80920000D02*
X73535113Y-79391000D01*
X73535113Y-84529000D02*
X73535113Y-83000000D01*
X73575113Y-84532000D02*
X73575113Y-79388000D01*
X73615113Y-84535000D02*
X73615113Y-79385000D01*
X73655113Y-84537000D02*
X73655113Y-79383000D01*
X73695113Y-84539000D02*
X73695113Y-79381000D01*
X73735113Y-84540000D02*
X73735113Y-79380000D01*
X73775113Y-84540000D02*
X73775113Y-79380000D01*
X76329888Y-83685000D02*
X76329888Y-83185000D01*
X76579888Y-83435000D02*
X76079888Y-83435000D01*
X76395113Y-81960000D02*
G75*
G02*
X71155113Y-81960000I-2620000J0D01*
G01*
X71155113Y-81960000D02*
G75*
G02*
X76395113Y-81960000I2620000J0D01*
G01*
%TO.C,K1*%
X131650000Y-89650000D02*
X142750000Y-89650000D01*
X131650000Y-105750000D02*
X131650000Y-89650000D01*
X142750000Y-89650000D02*
X142750000Y-105750000D01*
X142750000Y-105750000D02*
X131650000Y-105750000D01*
%TO.C,K8*%
X142970000Y-139430000D02*
X159070000Y-139430000D01*
X142970000Y-150530000D02*
X142970000Y-139430000D01*
X159070000Y-139430000D02*
X159070000Y-150530000D01*
X159070000Y-150530000D02*
X142970000Y-150530000D01*
%TO.C,R10*%
X102147064Y-115450000D02*
X100692936Y-115450000D01*
X102147064Y-117270000D02*
X100692936Y-117270000D01*
%TO.C,D7*%
X131735000Y-145025000D02*
X131735000Y-147295000D01*
X131735000Y-147295000D02*
X135620000Y-147295000D01*
X135620000Y-145025000D02*
X131735000Y-145025000D01*
%TO.C,C31*%
X122690000Y-72488748D02*
X122690000Y-73911252D01*
X124510000Y-72488748D02*
X124510000Y-73911252D01*
%TO.C,J7*%
X178100000Y-48840000D02*
X186140000Y-48840000D01*
X178100000Y-51660000D02*
X178100000Y-48840000D01*
X178100000Y-94580000D02*
X178100000Y-52260000D01*
X180220000Y-48840000D02*
X180220000Y-50080000D01*
X180220000Y-53840000D02*
X180220000Y-56417000D01*
X180220000Y-57503000D02*
X180220000Y-61417000D01*
X180220000Y-62503000D02*
X180220000Y-66417000D01*
X180220000Y-67503000D02*
X180220000Y-71417000D01*
X180220000Y-72503000D02*
X180220000Y-76417000D01*
X180220000Y-77503000D02*
X180220000Y-81417000D01*
X180220000Y-82503000D02*
X180220000Y-86417000D01*
X180220000Y-87503000D02*
X180220000Y-91417000D01*
X180220000Y-92503000D02*
X180220000Y-94580000D01*
X181520000Y-48840000D02*
X181520000Y-50080000D01*
X181520000Y-53840000D02*
X181520000Y-55148000D01*
X181520000Y-58772000D02*
X181520000Y-60148000D01*
X181520000Y-63772000D02*
X181520000Y-65148000D01*
X181520000Y-68772000D02*
X181520000Y-70148000D01*
X181520000Y-73772000D02*
X181520000Y-75148000D01*
X181520000Y-78772000D02*
X181520000Y-80148000D01*
X181520000Y-83772000D02*
X181520000Y-85148000D01*
X181520000Y-88772000D02*
X181520000Y-90148000D01*
X181520000Y-93772000D02*
X181520000Y-94580000D01*
X182520000Y-48840000D02*
X182520000Y-50080000D01*
X182520000Y-53840000D02*
X182520000Y-55148000D01*
X182520000Y-58772000D02*
X182520000Y-60148000D01*
X182520000Y-63772000D02*
X182520000Y-65148000D01*
X182520000Y-68772000D02*
X182520000Y-70148000D01*
X182520000Y-73772000D02*
X182520000Y-75148000D01*
X182520000Y-78772000D02*
X182520000Y-80148000D01*
X182520000Y-83772000D02*
X182520000Y-85148000D01*
X182520000Y-88772000D02*
X182520000Y-90148000D01*
X182520000Y-93772000D02*
X182520000Y-94580000D01*
X186140000Y-48840000D02*
X186140000Y-94580000D01*
X186140000Y-94580000D02*
X178100000Y-94580000D01*
X178100000Y-51960000D02*
X177490000Y-52400000D01*
X177490000Y-51520000D01*
X178100000Y-51960000D01*
G36*
X178100000Y-51960000D02*
G01*
X177490000Y-52400000D01*
X177490000Y-51520000D01*
X178100000Y-51960000D01*
G37*
%TO.C,U15*%
X76350000Y-139030000D02*
X76350000Y-144230000D01*
X76350000Y-144230000D02*
X82820000Y-144230000D01*
X78585000Y-139030000D02*
X76350000Y-139030000D01*
X82820000Y-139030000D02*
X80585000Y-139030000D01*
X82820000Y-144230000D02*
X82820000Y-139030000D01*
X80585000Y-139030000D02*
G75*
G02*
X78585000Y-139030000I-1000000J0D01*
G01*
%TO.C,C7*%
X71950000Y-114283000D02*
X71950000Y-113717000D01*
X71990000Y-114517000D02*
X71990000Y-113483000D01*
X72030000Y-114677000D02*
X72030000Y-113323000D01*
X72070000Y-114805000D02*
X72070000Y-113195000D01*
X72110000Y-114914000D02*
X72110000Y-113086000D01*
X72150000Y-115011000D02*
X72150000Y-112989000D01*
X72190000Y-115098000D02*
X72190000Y-112902000D01*
X72230000Y-115177000D02*
X72230000Y-112823000D01*
X72270000Y-112960000D02*
X72270000Y-112749000D01*
X72270000Y-115251000D02*
X72270000Y-115040000D01*
X72310000Y-112960000D02*
X72310000Y-112681000D01*
X72310000Y-115319000D02*
X72310000Y-115040000D01*
X72350000Y-112960000D02*
X72350000Y-112617000D01*
X72350000Y-115383000D02*
X72350000Y-115040000D01*
X72390000Y-112960000D02*
X72390000Y-112557000D01*
X72390000Y-115443000D02*
X72390000Y-115040000D01*
X72430000Y-112960000D02*
X72430000Y-112501000D01*
X72430000Y-115499000D02*
X72430000Y-115040000D01*
X72470000Y-112960000D02*
X72470000Y-112447000D01*
X72470000Y-115553000D02*
X72470000Y-115040000D01*
X72510000Y-112960000D02*
X72510000Y-112396000D01*
X72510000Y-115604000D02*
X72510000Y-115040000D01*
X72550000Y-112960000D02*
X72550000Y-112348000D01*
X72550000Y-115652000D02*
X72550000Y-115040000D01*
X72590000Y-112960000D02*
X72590000Y-112301000D01*
X72590000Y-115699000D02*
X72590000Y-115040000D01*
X72630000Y-112960000D02*
X72630000Y-112257000D01*
X72630000Y-115743000D02*
X72630000Y-115040000D01*
X72670000Y-112960000D02*
X72670000Y-112215000D01*
X72670000Y-115785000D02*
X72670000Y-115040000D01*
X72710000Y-112960000D02*
X72710000Y-112175000D01*
X72710000Y-115825000D02*
X72710000Y-115040000D01*
X72750000Y-112960000D02*
X72750000Y-112136000D01*
X72750000Y-115864000D02*
X72750000Y-115040000D01*
X72790000Y-112960000D02*
X72790000Y-112099000D01*
X72790000Y-115901000D02*
X72790000Y-115040000D01*
X72830000Y-112960000D02*
X72830000Y-112064000D01*
X72830000Y-115936000D02*
X72830000Y-115040000D01*
X72870000Y-112960000D02*
X72870000Y-112030000D01*
X72870000Y-115970000D02*
X72870000Y-115040000D01*
X72910000Y-112960000D02*
X72910000Y-111997000D01*
X72910000Y-116003000D02*
X72910000Y-115040000D01*
X72950000Y-112960000D02*
X72950000Y-111965000D01*
X72950000Y-116035000D02*
X72950000Y-115040000D01*
X72990000Y-112960000D02*
X72990000Y-111935000D01*
X72990000Y-116065000D02*
X72990000Y-115040000D01*
X73030000Y-112960000D02*
X73030000Y-111906000D01*
X73030000Y-116094000D02*
X73030000Y-115040000D01*
X73070000Y-112960000D02*
X73070000Y-111878000D01*
X73070000Y-116122000D02*
X73070000Y-115040000D01*
X73110000Y-112960000D02*
X73110000Y-111851000D01*
X73110000Y-116149000D02*
X73110000Y-115040000D01*
X73150000Y-112960000D02*
X73150000Y-111825000D01*
X73150000Y-116175000D02*
X73150000Y-115040000D01*
X73190000Y-112960000D02*
X73190000Y-111801000D01*
X73190000Y-116199000D02*
X73190000Y-115040000D01*
X73230000Y-112960000D02*
X73230000Y-111777000D01*
X73230000Y-116223000D02*
X73230000Y-115040000D01*
X73270000Y-112960000D02*
X73270000Y-111754000D01*
X73270000Y-116246000D02*
X73270000Y-115040000D01*
X73310000Y-112960000D02*
X73310000Y-111732000D01*
X73310000Y-116268000D02*
X73310000Y-115040000D01*
X73350000Y-112960000D02*
X73350000Y-111711000D01*
X73350000Y-116289000D02*
X73350000Y-115040000D01*
X73390000Y-112960000D02*
X73390000Y-111691000D01*
X73390000Y-116309000D02*
X73390000Y-115040000D01*
X73430000Y-112960000D02*
X73430000Y-111671000D01*
X73430000Y-116329000D02*
X73430000Y-115040000D01*
X73470000Y-112960000D02*
X73470000Y-111653000D01*
X73470000Y-116347000D02*
X73470000Y-115040000D01*
X73510000Y-112960000D02*
X73510000Y-111635000D01*
X73510000Y-116365000D02*
X73510000Y-115040000D01*
X73550000Y-112960000D02*
X73550000Y-111618000D01*
X73550000Y-116382000D02*
X73550000Y-115040000D01*
X73590000Y-112960000D02*
X73590000Y-111602000D01*
X73590000Y-116398000D02*
X73590000Y-115040000D01*
X73630000Y-112960000D02*
X73630000Y-111587000D01*
X73630000Y-116413000D02*
X73630000Y-115040000D01*
X73670000Y-112960000D02*
X73670000Y-111572000D01*
X73670000Y-116428000D02*
X73670000Y-115040000D01*
X73710000Y-112960000D02*
X73710000Y-111558000D01*
X73710000Y-116442000D02*
X73710000Y-115040000D01*
X73750000Y-112960000D02*
X73750000Y-111545000D01*
X73750000Y-116455000D02*
X73750000Y-115040000D01*
X73790000Y-112960000D02*
X73790000Y-111533000D01*
X73790000Y-116467000D02*
X73790000Y-115040000D01*
X73830000Y-112960000D02*
X73830000Y-111521000D01*
X73830000Y-116479000D02*
X73830000Y-115040000D01*
X73870000Y-112960000D02*
X73870000Y-111510000D01*
X73870000Y-116490000D02*
X73870000Y-115040000D01*
X73910000Y-112960000D02*
X73910000Y-111499000D01*
X73910000Y-116501000D02*
X73910000Y-115040000D01*
X73950000Y-112960000D02*
X73950000Y-111490000D01*
X73950000Y-116510000D02*
X73950000Y-115040000D01*
X73990000Y-112960000D02*
X73990000Y-111481000D01*
X73990000Y-116519000D02*
X73990000Y-115040000D01*
X74030000Y-112960000D02*
X74030000Y-111472000D01*
X74030000Y-116528000D02*
X74030000Y-115040000D01*
X74070000Y-112960000D02*
X74070000Y-111464000D01*
X74070000Y-116536000D02*
X74070000Y-115040000D01*
X74110000Y-112960000D02*
X74110000Y-111457000D01*
X74110000Y-116543000D02*
X74110000Y-115040000D01*
X74150000Y-112960000D02*
X74150000Y-111451000D01*
X74150000Y-116549000D02*
X74150000Y-115040000D01*
X74190000Y-112960000D02*
X74190000Y-111445000D01*
X74190000Y-116555000D02*
X74190000Y-115040000D01*
X74230000Y-112960000D02*
X74230000Y-111440000D01*
X74230000Y-116560000D02*
X74230000Y-115040000D01*
X74270000Y-112960000D02*
X74270000Y-111435000D01*
X74270000Y-116565000D02*
X74270000Y-115040000D01*
X74310000Y-112960000D02*
X74310000Y-111431000D01*
X74310000Y-116569000D02*
X74310000Y-115040000D01*
X74350000Y-116572000D02*
X74350000Y-111428000D01*
X74390000Y-116575000D02*
X74390000Y-111425000D01*
X74430000Y-116577000D02*
X74430000Y-111423000D01*
X74470000Y-116579000D02*
X74470000Y-111421000D01*
X74510000Y-116580000D02*
X74510000Y-111420000D01*
X74550000Y-116580000D02*
X74550000Y-111420000D01*
X77104775Y-115725000D02*
X77104775Y-115225000D01*
X77354775Y-115475000D02*
X76854775Y-115475000D01*
X77170000Y-114000000D02*
G75*
G02*
X71930000Y-114000000I-2620000J0D01*
G01*
X71930000Y-114000000D02*
G75*
G02*
X77170000Y-114000000I2620000J0D01*
G01*
%TO.C,R8*%
X121335436Y-104490000D02*
X122789564Y-104490000D01*
X121335436Y-106310000D02*
X122789564Y-106310000D01*
%TO.C,J19*%
X62240000Y-111240000D02*
X63620000Y-111240000D01*
X62240000Y-112620000D02*
X62240000Y-111240000D01*
X62240000Y-113890000D02*
X62240000Y-121620000D01*
X62240000Y-113890000D02*
X65000000Y-113890000D01*
X62240000Y-121620000D02*
X65000000Y-121620000D01*
X65000000Y-113890000D02*
X65000000Y-121620000D01*
%TO.C,R12*%
X126910000Y-113832936D02*
X126910000Y-115287064D01*
X128730000Y-113832936D02*
X128730000Y-115287064D01*
%TO.C,R32*%
X80496252Y-135920000D02*
X79073748Y-135920000D01*
X80496252Y-137740000D02*
X79073748Y-137740000D01*
%TO.C,C20*%
X121488748Y-109490000D02*
X122911252Y-109490000D01*
X121488748Y-111310000D02*
X122911252Y-111310000D01*
%TO.C,C11*%
X75511252Y-126890000D02*
X74088748Y-126890000D01*
X75511252Y-128710000D02*
X74088748Y-128710000D01*
%TO.C,K6*%
X142970000Y-127210000D02*
X159070000Y-127210000D01*
X142970000Y-138310000D02*
X142970000Y-127210000D01*
X159070000Y-127210000D02*
X159070000Y-138310000D01*
X159070000Y-138310000D02*
X142970000Y-138310000D01*
%TO.C,C9*%
X75436252Y-121690000D02*
X74013748Y-121690000D01*
X75436252Y-123510000D02*
X74013748Y-123510000D01*
%TO.C,C13*%
X108490000Y-73711252D02*
X108490000Y-72288748D01*
X110310000Y-73711252D02*
X110310000Y-72288748D01*
%TO.C,C25*%
X127108748Y-109650000D02*
X128531252Y-109650000D01*
X127108748Y-111470000D02*
X128531252Y-111470000D01*
%TO.C,R9*%
X138292936Y-145250000D02*
X139747064Y-145250000D01*
X138292936Y-147070000D02*
X139747064Y-147070000D01*
%TO.C,D6*%
X131735000Y-148025000D02*
X131735000Y-150295000D01*
X131735000Y-150295000D02*
X135620000Y-150295000D01*
X135620000Y-148025000D02*
X131735000Y-148025000D01*
%TO.C,U12*%
X113027500Y-92140000D02*
X114847500Y-92140000D01*
X113027500Y-92190000D02*
X113027500Y-92140000D01*
X113027500Y-95260000D02*
X113027500Y-95210000D01*
X114847500Y-92140000D02*
X114847500Y-92190000D01*
X114847500Y-95210000D02*
X114847500Y-95260000D01*
X114847500Y-95260000D02*
X113027500Y-95260000D01*
X112487500Y-92190000D02*
X112247500Y-91860000D01*
X112727500Y-91860000D01*
X112487500Y-92190000D01*
G36*
X112487500Y-92190000D02*
G01*
X112247500Y-91860000D01*
X112727500Y-91860000D01*
X112487500Y-92190000D01*
G37*
%TO.C,J6*%
X135165000Y-123840000D02*
X136545000Y-123840000D01*
X135165000Y-125220000D02*
X135165000Y-123840000D01*
X135165000Y-126490000D02*
X135165000Y-131680000D01*
X135165000Y-126490000D02*
X137815000Y-126490000D01*
X135165000Y-131680000D02*
X140465000Y-131680000D01*
X137815000Y-123840000D02*
X140465000Y-123840000D01*
X137815000Y-126490000D02*
X137815000Y-123840000D01*
X140465000Y-123840000D02*
X140465000Y-131680000D01*
%TO.C,U11*%
X113027500Y-88290000D02*
X114847500Y-88290000D01*
X113027500Y-88340000D02*
X113027500Y-88290000D01*
X113027500Y-91410000D02*
X113027500Y-91360000D01*
X114847500Y-88290000D02*
X114847500Y-88340000D01*
X114847500Y-91360000D02*
X114847500Y-91410000D01*
X114847500Y-91410000D02*
X113027500Y-91410000D01*
X112487500Y-88340000D02*
X112247500Y-88010000D01*
X112727500Y-88010000D01*
X112487500Y-88340000D01*
G36*
X112487500Y-88340000D02*
G01*
X112247500Y-88010000D01*
X112727500Y-88010000D01*
X112487500Y-88340000D01*
G37*
%TO.C,C27*%
X119180000Y-114850000D02*
X117651000Y-114850000D01*
X119180000Y-114890000D02*
X117655000Y-114890000D01*
X119180000Y-114930000D02*
X117660000Y-114930000D01*
X119180000Y-114970000D02*
X117665000Y-114970000D01*
X119180000Y-115010000D02*
X117671000Y-115010000D01*
X119180000Y-115050000D02*
X117677000Y-115050000D01*
X119180000Y-115090000D02*
X117684000Y-115090000D01*
X119180000Y-115130000D02*
X117692000Y-115130000D01*
X119180000Y-115170000D02*
X117701000Y-115170000D01*
X119180000Y-115210000D02*
X117710000Y-115210000D01*
X119180000Y-115250000D02*
X117719000Y-115250000D01*
X119180000Y-115290000D02*
X117730000Y-115290000D01*
X119180000Y-115330000D02*
X117741000Y-115330000D01*
X119180000Y-115370000D02*
X117753000Y-115370000D01*
X119180000Y-115410000D02*
X117765000Y-115410000D01*
X119180000Y-115450000D02*
X117778000Y-115450000D01*
X119180000Y-115490000D02*
X117792000Y-115490000D01*
X119180000Y-115530000D02*
X117807000Y-115530000D01*
X119180000Y-115570000D02*
X117822000Y-115570000D01*
X119180000Y-115610000D02*
X117838000Y-115610000D01*
X119180000Y-115650000D02*
X117855000Y-115650000D01*
X119180000Y-115690000D02*
X117873000Y-115690000D01*
X119180000Y-115730000D02*
X117891000Y-115730000D01*
X119180000Y-115770000D02*
X117911000Y-115770000D01*
X119180000Y-115810000D02*
X117931000Y-115810000D01*
X119180000Y-115850000D02*
X117952000Y-115850000D01*
X119180000Y-115890000D02*
X117974000Y-115890000D01*
X119180000Y-115930000D02*
X117997000Y-115930000D01*
X119180000Y-115970000D02*
X118021000Y-115970000D01*
X119180000Y-116010000D02*
X118045000Y-116010000D01*
X119180000Y-116050000D02*
X118071000Y-116050000D01*
X119180000Y-116090000D02*
X118098000Y-116090000D01*
X119180000Y-116130000D02*
X118126000Y-116130000D01*
X119180000Y-116170000D02*
X118155000Y-116170000D01*
X119180000Y-116210000D02*
X118185000Y-116210000D01*
X119180000Y-116250000D02*
X118217000Y-116250000D01*
X119180000Y-116290000D02*
X118250000Y-116290000D01*
X119180000Y-116330000D02*
X118284000Y-116330000D01*
X119180000Y-116370000D02*
X118319000Y-116370000D01*
X119180000Y-116410000D02*
X118356000Y-116410000D01*
X119180000Y-116450000D02*
X118395000Y-116450000D01*
X119180000Y-116490000D02*
X118435000Y-116490000D01*
X119180000Y-116530000D02*
X118477000Y-116530000D01*
X119180000Y-116570000D02*
X118521000Y-116570000D01*
X119180000Y-116610000D02*
X118568000Y-116610000D01*
X119180000Y-116650000D02*
X118616000Y-116650000D01*
X119180000Y-116690000D02*
X118667000Y-116690000D01*
X119180000Y-116730000D02*
X118721000Y-116730000D01*
X119180000Y-116770000D02*
X118777000Y-116770000D01*
X119180000Y-116810000D02*
X118837000Y-116810000D01*
X119180000Y-116850000D02*
X118901000Y-116850000D01*
X119180000Y-116890000D02*
X118969000Y-116890000D01*
X120503000Y-117210000D02*
X119937000Y-117210000D01*
X120737000Y-117170000D02*
X119703000Y-117170000D01*
X120897000Y-117130000D02*
X119543000Y-117130000D01*
X121025000Y-117090000D02*
X119415000Y-117090000D01*
X121134000Y-117050000D02*
X119306000Y-117050000D01*
X121231000Y-117010000D02*
X119209000Y-117010000D01*
X121318000Y-116970000D02*
X119122000Y-116970000D01*
X121397000Y-116930000D02*
X119043000Y-116930000D01*
X121471000Y-116890000D02*
X121260000Y-116890000D01*
X121539000Y-116850000D02*
X121260000Y-116850000D01*
X121603000Y-116810000D02*
X121260000Y-116810000D01*
X121663000Y-116770000D02*
X121260000Y-116770000D01*
X121695000Y-111805225D02*
X121695000Y-112305225D01*
X121719000Y-116730000D02*
X121260000Y-116730000D01*
X121773000Y-116690000D02*
X121260000Y-116690000D01*
X121824000Y-116650000D02*
X121260000Y-116650000D01*
X121872000Y-116610000D02*
X121260000Y-116610000D01*
X121919000Y-116570000D02*
X121260000Y-116570000D01*
X121945000Y-112055225D02*
X121445000Y-112055225D01*
X121963000Y-116530000D02*
X121260000Y-116530000D01*
X122005000Y-116490000D02*
X121260000Y-116490000D01*
X122045000Y-116450000D02*
X121260000Y-116450000D01*
X122084000Y-116410000D02*
X121260000Y-116410000D01*
X122121000Y-116370000D02*
X121260000Y-116370000D01*
X122156000Y-116330000D02*
X121260000Y-116330000D01*
X122190000Y-116290000D02*
X121260000Y-116290000D01*
X122223000Y-116250000D02*
X121260000Y-116250000D01*
X122255000Y-116210000D02*
X121260000Y-116210000D01*
X122285000Y-116170000D02*
X121260000Y-116170000D01*
X122314000Y-116130000D02*
X121260000Y-116130000D01*
X122342000Y-116090000D02*
X121260000Y-116090000D01*
X122369000Y-116050000D02*
X121260000Y-116050000D01*
X122395000Y-116010000D02*
X121260000Y-116010000D01*
X122419000Y-115970000D02*
X121260000Y-115970000D01*
X122443000Y-115930000D02*
X121260000Y-115930000D01*
X122466000Y-115890000D02*
X121260000Y-115890000D01*
X122488000Y-115850000D02*
X121260000Y-115850000D01*
X122509000Y-115810000D02*
X121260000Y-115810000D01*
X122529000Y-115770000D02*
X121260000Y-115770000D01*
X122549000Y-115730000D02*
X121260000Y-115730000D01*
X122567000Y-115690000D02*
X121260000Y-115690000D01*
X122585000Y-115650000D02*
X121260000Y-115650000D01*
X122602000Y-115610000D02*
X121260000Y-115610000D01*
X122618000Y-115570000D02*
X121260000Y-115570000D01*
X122633000Y-115530000D02*
X121260000Y-115530000D01*
X122648000Y-115490000D02*
X121260000Y-115490000D01*
X122662000Y-115450000D02*
X121260000Y-115450000D01*
X122675000Y-115410000D02*
X121260000Y-115410000D01*
X122687000Y-115370000D02*
X121260000Y-115370000D01*
X122699000Y-115330000D02*
X121260000Y-115330000D01*
X122710000Y-115290000D02*
X121260000Y-115290000D01*
X122721000Y-115250000D02*
X121260000Y-115250000D01*
X122730000Y-115210000D02*
X121260000Y-115210000D01*
X122739000Y-115170000D02*
X121260000Y-115170000D01*
X122748000Y-115130000D02*
X121260000Y-115130000D01*
X122756000Y-115090000D02*
X121260000Y-115090000D01*
X122763000Y-115050000D02*
X121260000Y-115050000D01*
X122769000Y-115010000D02*
X121260000Y-115010000D01*
X122775000Y-114970000D02*
X121260000Y-114970000D01*
X122780000Y-114930000D02*
X121260000Y-114930000D01*
X122785000Y-114890000D02*
X121260000Y-114890000D01*
X122789000Y-114850000D02*
X121260000Y-114850000D01*
X122792000Y-114810000D02*
X117648000Y-114810000D01*
X122795000Y-114770000D02*
X117645000Y-114770000D01*
X122797000Y-114730000D02*
X117643000Y-114730000D01*
X122799000Y-114690000D02*
X117641000Y-114690000D01*
X122800000Y-114610000D02*
X117640000Y-114610000D01*
X122800000Y-114650000D02*
X117640000Y-114650000D01*
X122840000Y-114610000D02*
G75*
G02*
X117600000Y-114610000I-2620000J0D01*
G01*
X117600000Y-114610000D02*
G75*
G02*
X122840000Y-114610000I2620000J0D01*
G01*
%TO.C,C22*%
X127108748Y-101850000D02*
X128531252Y-101850000D01*
X127108748Y-103670000D02*
X128531252Y-103670000D01*
%TO.C,J4*%
X75590000Y-51550000D02*
X75590000Y-52550000D01*
X75970000Y-39620000D02*
X75970000Y-50070000D01*
X75970000Y-52570000D02*
X75970000Y-57070000D01*
X81120000Y-59120000D02*
X78120000Y-59120000D01*
X83270000Y-39620000D02*
X75970000Y-39620000D01*
X83270000Y-39620000D02*
X83270000Y-50070000D01*
X83270000Y-52570000D02*
X83270000Y-57070000D01*
%TO.C,K21*%
X143150000Y-69450000D02*
X159250000Y-69450000D01*
X143150000Y-80550000D02*
X143150000Y-69450000D01*
X159250000Y-69450000D02*
X159250000Y-80550000D01*
X159250000Y-80550000D02*
X143150000Y-80550000D01*
%TO.C,K9*%
X160370000Y-139410000D02*
X176470000Y-139410000D01*
X160370000Y-150510000D02*
X160370000Y-139410000D01*
X176470000Y-139410000D02*
X176470000Y-150510000D01*
X176470000Y-150510000D02*
X160370000Y-150510000D01*
%TO.C,R1*%
X79108748Y-132850000D02*
X80531252Y-132850000D01*
X79108748Y-134670000D02*
X80531252Y-134670000D01*
%TO.C,J20*%
X62240000Y-123980000D02*
X63620000Y-123980000D01*
X62240000Y-125360000D02*
X62240000Y-123980000D01*
X62240000Y-126630000D02*
X62240000Y-134360000D01*
X62240000Y-126630000D02*
X65000000Y-126630000D01*
X62240000Y-134360000D02*
X65000000Y-134360000D01*
X65000000Y-126630000D02*
X65000000Y-134360000D01*
%TD*%
M02*
