M48
; DRILL file KiCad 10.0.3 date 2026-06-11T12:14:30
; FORMAT={-:-/ absolute / metric / decimal}
; #@! TF.CreationDate,2026-06-11T12:14:30+08:00
; #@! TF.GenerationSoftware,Kicad,Pcbnew,10.0.3
; #@! TF.FileFunction,Plated,1,2,PTH
FMAT,2
METRIC
; #@! TA.AperFunction,Plated,PTH,ViaDrill
T1C0.300
; #@! TA.AperFunction,Plated,PTH,ComponentDrill
T2C0.800
; #@! TA.AperFunction,Plated,PTH,ComponentDrill
T3C0.810
; #@! TA.AperFunction,Plated,PTH,ComponentDrill
T4C0.920
; #@! TA.AperFunction,Plated,PTH,ComponentDrill
T5C1.000
; #@! TA.AperFunction,Plated,PTH,ComponentDrill
T6C1.050
; #@! TA.AperFunction,Plated,PTH,ComponentDrill
T7C1.100
; #@! TA.AperFunction,Plated,PTH,ComponentDrill
T8C1.300
; #@! TA.AperFunction,Plated,PTH,ComponentDrill
T9C1.500
; #@! TA.AperFunction,Plated,PTH,ComponentDrill
T10C3.200
%
G90
G05
T1
X74.82Y-142.9
X75.0Y-93.4
X78.1Y-94.2
X78.3Y-132.0
X78.31Y-136.83
X85.2Y-63.7
X85.4Y-85.2
X85.8Y-92.904
X86.6Y-58.6
X86.8Y-74.4
X87.5Y-136.8
X87.525Y-87.35
X87.525Y-89.233
X87.525Y-91.133
X87.525Y-93.017
X87.525Y-94.917
X87.525Y-96.8
X87.525Y-98.7
X88.7Y-84.8
X88.821Y-76.821
X89.8Y-82.0
X90.415Y-82.65
X91.93Y-81.95
X91.996Y-84.8
X92.8Y-84.8
X93.597Y-84.872
X94.359Y-85.114
X94.6Y-101.8
X95.196Y-85.196
X95.249Y-102.674
X95.996Y-85.165
X96.657Y-104.81
X96.794Y-85.211
X98.0Y-70.2
X100.4Y-80.26
X100.74Y-85.06
X101.6Y-80.2
X101.6Y-85.0
X102.3Y-81.9
X102.4Y-95.0
X102.4Y-96.2
X103.8Y-92.4
X103.8Y-93.8
X104.305Y-68.35
X105.4Y-91.2
X105.5Y-79.1
X105.6Y-80.4
X105.8Y-90.0
X106.6Y-88.6
X107.12Y-148.16
X107.2Y-108.9
X107.4Y-87.8
X107.983Y-116.36
X108.557Y-79.457
X108.6Y-126.15
X109.0Y-69.6
X109.8Y-69.6
X110.064Y-112.436
X110.2Y-77.4
X110.883Y-111.417
X110.9Y-106.4
X111.0Y-108.6
X111.06Y-77.46
X111.313Y-103.35
X111.6Y-139.9
X112.7Y-107.75
X112.733Y-72.15
X112.8Y-85.05
X112.8Y-86.95
X112.8Y-88.9
X112.8Y-90.8
X112.8Y-92.75
X112.8Y-94.65
X112.8Y-96.6
X112.8Y-98.5
X113.383Y-71.2
X113.4Y-106.1
X113.9Y-105.2
X114.183Y-71.194
X114.8Y-103.3
X115.0Y-71.2
X115.5Y-106.3
X115.8Y-71.4
X115.981Y-82.891
X116.05Y-76.325
X116.1Y-74.7
X116.755Y-83.093
X116.8Y-75.4
X116.8Y-111.9
X117.533Y-83.28
X118.3Y-110.0
X118.322Y-83.145
X118.6Y-103.289
X118.687Y-107.508
X118.8Y-108.3
X119.6Y-105.3
X119.975Y-68.55
X119.975Y-76.3
X121.2Y-74.8
X122.6Y-80.8
X122.6Y-81.6
X122.6Y-107.8
X123.6Y-113.3
X123.762Y-110.4
X123.8Y-70.4
X124.8Y-77.2
X125.22Y-116.322
X127.3Y-90.5
X127.4Y-97.0
X127.8Y-107.7
X129.382Y-103.289
X129.382Y-110.4
X129.5Y-98.5
X130.277Y-101.39
X130.4Y-99.0
X130.4Y-99.8
X130.4Y-100.6
X130.545Y-102.939
X130.559Y-102.139
X130.6Y-104.0
X130.64Y-104.96
X131.2Y-107.7
X131.33Y-102.782
X131.4Y-119.181
X131.4Y-122.5
X132.2Y-127.864
X132.6Y-79.0
X132.6Y-79.0
X132.6Y-95.6
X132.62Y-146.16
X133.2Y-85.0
X133.2Y-86.0
X133.2Y-87.0
X133.2Y-88.6
X133.3Y-119.2
X133.353Y-94.559
X133.506Y-84.261
X133.75Y-93.85
X134.15Y-99.681
X134.2Y-56.1
X134.4Y-93.2
X134.4Y-121.0
X134.437Y-117.363
X134.5Y-52.42
X134.7Y-76.7
X135.1Y-107.8
X135.2Y-57.0
X135.392Y-105.55
X135.4Y-77.4
X135.5Y-54.1
X136.192Y-105.55
X136.545Y-118.56
X136.55Y-109.8
X136.6Y-116.8
X136.8Y-107.9
X137.6Y-51.1
X137.8Y-99.4
X138.3Y-116.0
X138.7Y-87.4
X138.9Y-121.7
X139.1Y-114.9
X139.6Y-103.4
X139.8Y-88.4
X140.5Y-61.0
X140.55Y-116.0
X140.8Y-133.0
X140.981Y-109.419
X141.6Y-95.0
X141.8Y-99.2
X141.8Y-106.8
X141.8Y-107.6
X141.8Y-108.4
X141.8Y-109.2
X142.8Y-122.3
X143.5Y-119.6
X143.5Y-122.5
X143.8Y-64.6
X144.2Y-93.8
X144.8Y-99.2
X146.4Y-129.8
X147.0Y-47.4
X147.8Y-65.1
X149.6Y-102.2
X149.8Y-92.2
X150.25Y-124.1
X152.2Y-114.4
X157.0Y-145.4
X158.6Y-132.2
X161.8Y-146.6
X163.6Y-133.6
X163.671Y-143.471
X164.6Y-130.8
T2
X72.525Y-68.56
X72.525Y-81.96
X73.3Y-114.0
X75.025Y-68.56
X75.025Y-81.96
X75.8Y-114.0
X103.82Y-105.71
X103.82Y-110.61
X114.22Y-113.36
X114.22Y-115.86
X120.22Y-113.36
X120.22Y-115.86
X135.42Y-138.96
X137.92Y-138.96
T3
X97.41Y-121.21
X97.41Y-133.91
X105.03Y-121.21
X105.03Y-133.91
X116.81Y-121.21
X116.81Y-133.91
X124.43Y-121.21
X124.43Y-133.91
T4
X79.62Y-52.05
X79.62Y-54.05
X79.62Y-56.05
X79.62Y-58.05
T5
X63.545Y-99.65
X63.545Y-102.19
X63.545Y-104.73
X63.545Y-107.27
X63.62Y-112.62
X63.62Y-115.16
X63.62Y-117.7
X63.62Y-120.24
X63.62Y-125.36
X63.62Y-127.9
X63.62Y-130.44
X63.62Y-132.98
X66.945Y-149.36
X69.485Y-149.36
X73.745Y-149.36
X76.285Y-149.36
X80.345Y-149.36
X82.885Y-149.36
X91.93Y-51.77
X91.93Y-54.31
X91.93Y-56.85
X91.93Y-59.39
X91.93Y-61.93
X91.93Y-64.47
X91.93Y-67.01
X91.93Y-69.55
X91.93Y-72.09
X91.93Y-74.63
X91.93Y-77.17
X91.93Y-79.71
X94.47Y-51.77
X94.47Y-54.31
X94.47Y-56.85
X94.47Y-59.39
X94.47Y-61.93
X94.47Y-64.47
X94.47Y-67.01
X94.47Y-69.55
X94.47Y-72.09
X94.47Y-74.63
X94.47Y-77.17
X94.47Y-79.71
X127.33Y-51.77
X127.33Y-54.31
X127.33Y-56.85
X127.33Y-59.39
X127.33Y-61.93
X127.33Y-64.47
X127.33Y-67.01
X127.33Y-69.55
X127.33Y-72.09
X127.33Y-74.63
X127.33Y-77.17
X127.33Y-79.71
X129.87Y-51.77
X129.87Y-54.31
X129.87Y-56.85
X129.87Y-59.39
X129.87Y-61.93
X129.87Y-64.47
X129.87Y-67.01
X129.87Y-69.55
X129.87Y-72.09
X129.87Y-74.63
X129.87Y-77.17
X129.87Y-79.71
X136.545Y-66.82
X136.545Y-69.36
X136.545Y-71.9
X136.545Y-125.22
X136.545Y-127.76
X136.545Y-130.3
X137.42Y-47.36
X139.085Y-66.82
X139.085Y-69.36
X139.085Y-71.9
X139.085Y-125.22
X139.085Y-127.76
X139.085Y-130.3
X139.96Y-47.36
T6
X133.39Y-91.2
X133.39Y-101.36
X133.39Y-103.9
X141.01Y-91.2
X141.01Y-101.36
X141.01Y-103.9
X144.52Y-104.77
X144.52Y-112.39
X144.52Y-116.77
X144.52Y-124.39
X144.52Y-128.95
X144.52Y-136.57
X144.52Y-141.17
X144.52Y-148.79
X144.7Y-71.19
X144.7Y-78.81
X144.72Y-47.56
X144.72Y-55.18
X144.72Y-59.357
X144.72Y-66.977
X144.72Y-82.95
X144.72Y-90.57
X154.68Y-104.77
X154.68Y-112.39
X154.68Y-116.77
X154.68Y-124.39
X154.68Y-128.95
X154.68Y-136.57
X154.68Y-141.17
X154.68Y-148.79
X154.86Y-71.19
X154.86Y-78.81
X154.88Y-47.56
X154.88Y-55.18
X154.88Y-59.357
X154.88Y-66.977
X154.88Y-82.95
X154.88Y-90.57
X157.22Y-104.77
X157.22Y-112.39
X157.22Y-116.77
X157.22Y-124.39
X157.22Y-128.95
X157.22Y-136.57
X157.22Y-141.17
X157.22Y-148.79
X157.4Y-71.19
X157.4Y-78.81
X157.42Y-47.56
X157.42Y-55.18
X157.42Y-59.357
X157.42Y-66.977
X157.42Y-82.95
X157.42Y-90.57
X161.7Y-71.39
X161.7Y-79.01
X161.72Y-47.55
X161.72Y-55.17
X161.72Y-59.417
X161.72Y-67.037
X161.72Y-83.15
X161.72Y-90.77
X161.92Y-104.77
X161.92Y-112.39
X161.92Y-116.77
X161.92Y-124.39
X161.92Y-129.15
X161.92Y-136.77
X161.92Y-141.15
X161.92Y-148.77
X171.86Y-71.39
X171.86Y-79.01
X171.88Y-47.55
X171.88Y-55.17
X171.88Y-59.417
X171.88Y-67.037
X171.88Y-83.15
X171.88Y-90.77
X172.08Y-104.77
X172.08Y-112.39
X172.08Y-116.77
X172.08Y-124.39
X172.08Y-129.15
X172.08Y-136.77
X172.08Y-141.15
X172.08Y-148.77
X174.4Y-71.39
X174.4Y-79.01
X174.42Y-47.55
X174.42Y-55.17
X174.42Y-59.417
X174.42Y-67.037
X174.42Y-83.15
X174.42Y-90.77
X174.62Y-104.77
X174.62Y-112.39
X174.62Y-116.77
X174.62Y-124.39
X174.62Y-129.15
X174.62Y-136.77
X174.62Y-141.15
X174.62Y-148.77
T7
X70.74Y-62.16
X71.06Y-76.56
X80.9Y-62.16
X81.22Y-76.56
X82.66Y-113.35
X85.2Y-113.35
X87.74Y-113.35
T8
X64.22Y-66.16
X64.22Y-71.16
X64.42Y-83.16
X64.42Y-88.16
X182.02Y-51.96
X182.02Y-56.96
X182.02Y-61.96
X182.02Y-66.96
X182.02Y-71.96
X182.02Y-76.96
X182.02Y-81.96
X182.02Y-86.96
X182.02Y-91.96
X182.22Y-102.16
X182.22Y-107.16
X182.22Y-112.16
X182.22Y-117.16
X182.22Y-122.16
X182.22Y-127.16
X182.22Y-132.16
X182.22Y-137.16
X182.22Y-142.16
T9
X76.9Y-51.32
X76.9Y-58.32
X82.34Y-51.32
X82.34Y-58.32
T10
X65.464Y-51.26
X65.464Y-142.76
X196.964Y-51.26
X196.964Y-142.76
M30
