%TF.GenerationSoftware,KiCad,Pcbnew,10.0.3*%
%TF.CreationDate,2026-06-11T12:14:28+08:00*%
%TF.ProjectId,nano-server,6e616e6f-2d73-4657-9276-65722e6b6963,rev?*%
%TF.SameCoordinates,Original*%
%TF.FileFunction,Soldermask,Bot*%
%TF.FilePolarity,Negative*%
%FSLAX46Y46*%
G04 Gerber Fmt 4.6, Leading zero omitted, Abs format (unit mm)*
G04 Created by KiCad (PCBNEW 10.0.3) date 2026-06-11 12:14:28*
%MOMM*%
%LPD*%
G01*
G04 APERTURE LIST*
G04 Aperture macros list*
%AMRoundRect*
0 Rectangle with rounded corners*
0 $1 Rounding radius*
0 $2 $3 $4 $5 $6 $7 $8 $9 X,Y pos of 4 corners*
0 Add a 4 corners polygon primitive as box body*
4,1,4,$2,$3,$4,$5,$6,$7,$8,$9,$2,$3,0*
0 Add four circle primitives for the rounded corners*
1,1,$1+$1,$2,$3*
1,1,$1+$1,$4,$5*
1,1,$1+$1,$6,$7*
1,1,$1+$1,$8,$9*
0 Add four rect primitives between the rounded corners*
20,1,$1+$1,$2,$3,$4,$5,0*
20,1,$1+$1,$4,$5,$6,$7,0*
20,1,$1+$1,$6,$7,$8,$9,0*
20,1,$1+$1,$8,$9,$2,$3,0*%
G04 Aperture macros list end*
%ADD10C,5.600000*%
%ADD11C,1.900000*%
%ADD12RoundRect,0.250000X-0.700000X0.700000X-0.700000X-0.700000X0.700000X-0.700000X0.700000X0.700000X0*%
%ADD13R,1.700000X1.700000*%
%ADD14C,1.700000*%
%ADD15RoundRect,0.250000X-0.550000X-0.550000X0.550000X-0.550000X0.550000X0.550000X-0.550000X0.550000X0*%
%ADD16C,1.600000*%
%ADD17R,1.905000X2.000000*%
%ADD18O,1.905000X2.000000*%
%ADD19RoundRect,0.250000X-0.550000X0.550000X-0.550000X-0.550000X0.550000X-0.550000X0.550000X0.550000X0*%
%ADD20C,1.500000*%
%ADD21R,1.520000X1.520000*%
%ADD22C,1.520000*%
%ADD23RoundRect,0.250001X-1.149999X1.149999X-1.149999X-1.149999X1.149999X-1.149999X1.149999X1.149999X0*%
%ADD24C,2.800000*%
%ADD25RoundRect,0.249999X0.850001X0.850001X-0.850001X0.850001X-0.850001X-0.850001X0.850001X-0.850001X0*%
%ADD26C,2.200000*%
%ADD27RoundRect,0.250000X0.550000X0.550000X-0.550000X0.550000X-0.550000X-0.550000X0.550000X-0.550000X0*%
%ADD28RoundRect,0.250000X0.700000X0.700000X-0.700000X0.700000X-0.700000X-0.700000X0.700000X-0.700000X0*%
%ADD29R,1.600000X1.600000*%
%ADD30C,2.150000*%
G04 APERTURE END LIST*
D10*
%TO.C,J13*%
X196964336Y-51260000D03*
%TD*%
D11*
%TO.C,K23*%
X161720000Y-83150000D03*
X161720000Y-90770000D03*
X174420000Y-83150000D03*
X174420000Y-90770000D03*
D12*
X171880000Y-83150000D03*
D11*
X171880000Y-90770000D03*
%TD*%
%TO.C,K22*%
X144720000Y-82950000D03*
X144720000Y-90570000D03*
X157420000Y-82950000D03*
X157420000Y-90570000D03*
D12*
X154880000Y-82950000D03*
D11*
X154880000Y-90570000D03*
%TD*%
%TO.C,K4*%
X144520000Y-116770000D03*
X144520000Y-124390000D03*
X157220000Y-116770000D03*
X157220000Y-124390000D03*
D12*
X154680000Y-116770000D03*
D11*
X154680000Y-124390000D03*
%TD*%
%TO.C,K18*%
X161720000Y-59416667D03*
X161720000Y-67036667D03*
X174420000Y-59416667D03*
X174420000Y-67036667D03*
D12*
X171880000Y-59416667D03*
D11*
X171880000Y-67036667D03*
%TD*%
D13*
%TO.C,J11*%
X136545000Y-66820000D03*
D14*
X139085000Y-66820000D03*
X136545000Y-69360000D03*
X139085000Y-69360000D03*
X136545000Y-71900000D03*
X139085000Y-71900000D03*
%TD*%
D13*
%TO.C,D3*%
X66945000Y-149360000D03*
D14*
X69485000Y-149360000D03*
%TD*%
D13*
%TO.C,D4*%
X80345000Y-149360000D03*
D14*
X82885000Y-149360000D03*
%TD*%
D15*
%TO.C,C29*%
X135420000Y-138960000D03*
D16*
X137920000Y-138960000D03*
%TD*%
D13*
%TO.C,J17*%
X63545000Y-99650000D03*
D14*
X63545000Y-102190000D03*
X63545000Y-104730000D03*
X63545000Y-107270000D03*
%TD*%
D11*
%TO.C,K3*%
X161920000Y-104770000D03*
X161920000Y-112390000D03*
X174620000Y-104770000D03*
X174620000Y-112390000D03*
D12*
X172080000Y-104770000D03*
D11*
X172080000Y-112390000D03*
%TD*%
D17*
%TO.C,U1*%
X82660000Y-113350000D03*
D18*
X85200000Y-113350000D03*
X87740000Y-113350000D03*
%TD*%
D11*
%TO.C,K2*%
X161720000Y-47550000D03*
X161720000Y-55170000D03*
X174420000Y-47550000D03*
X174420000Y-55170000D03*
D12*
X171880000Y-47550000D03*
D11*
X171880000Y-55170000D03*
%TD*%
D13*
%TO.C,J3*%
X127330000Y-79710000D03*
D14*
X129870000Y-79710000D03*
X127330000Y-77170000D03*
X129870000Y-77170000D03*
X127330000Y-74630000D03*
X129870000Y-74630000D03*
X127330000Y-72090000D03*
X129870000Y-72090000D03*
X127330000Y-69550000D03*
X129870000Y-69550000D03*
X127330000Y-67010000D03*
X129870000Y-67010000D03*
X127330000Y-64470000D03*
X129870000Y-64470000D03*
X127330000Y-61930000D03*
X129870000Y-61930000D03*
X127330000Y-59390000D03*
X129870000Y-59390000D03*
X127330000Y-56850000D03*
X129870000Y-56850000D03*
X127330000Y-54310000D03*
X129870000Y-54310000D03*
X127330000Y-51770000D03*
X129870000Y-51770000D03*
%TD*%
D10*
%TO.C,J15*%
X196964336Y-142760000D03*
%TD*%
D19*
%TO.C,C28*%
X114220000Y-113360000D03*
D16*
X114220000Y-115860000D03*
%TD*%
D20*
%TO.C,Y1*%
X103820000Y-110610000D03*
X103820000Y-105710000D03*
%TD*%
D14*
%TO.C,J8*%
X123500000Y-149400000D03*
X123500000Y-142400000D03*
%TD*%
D21*
%TO.C,T1*%
X116810000Y-121210000D03*
D22*
X124430000Y-121210000D03*
X124430000Y-133910000D03*
X116810000Y-133910000D03*
%TD*%
D11*
%TO.C,K24*%
X161700000Y-71390000D03*
X161700000Y-79010000D03*
X174400000Y-71390000D03*
X174400000Y-79010000D03*
D12*
X171860000Y-71390000D03*
D11*
X171860000Y-79010000D03*
%TD*%
D13*
%TO.C,J5*%
X137420000Y-47360000D03*
D14*
X139960000Y-47360000D03*
%TD*%
%TO.C,J18*%
X97200000Y-149400000D03*
X97200000Y-142400000D03*
%TD*%
D23*
%TO.C,J12*%
X182220000Y-102160000D03*
D24*
X182220000Y-107160000D03*
X182220000Y-112160000D03*
X182220000Y-117160000D03*
X182220000Y-122160000D03*
X182220000Y-127160000D03*
X182220000Y-132160000D03*
X182220000Y-137160000D03*
X182220000Y-142160000D03*
%TD*%
D23*
%TO.C,J10*%
X64420000Y-83160000D03*
D24*
X64420000Y-88160000D03*
%TD*%
D13*
%TO.C,D2*%
X73745000Y-149360000D03*
D14*
X76285000Y-149360000D03*
%TD*%
D10*
%TO.C,J16*%
X65464336Y-142760000D03*
%TD*%
D25*
%TO.C,D8*%
X81220000Y-76560000D03*
D26*
X71060000Y-76560000D03*
%TD*%
D14*
%TO.C,J9*%
X110300000Y-149400000D03*
X110300000Y-142400000D03*
%TD*%
D23*
%TO.C,J1*%
X64220000Y-66160000D03*
D24*
X64220000Y-71160000D03*
%TD*%
D11*
%TO.C,K19*%
X144720000Y-47560000D03*
X144720000Y-55180000D03*
X157420000Y-47560000D03*
X157420000Y-55180000D03*
D12*
X154880000Y-47560000D03*
D11*
X154880000Y-55180000D03*
%TD*%
%TO.C,K7*%
X161920000Y-129150000D03*
X161920000Y-136770000D03*
X174620000Y-129150000D03*
X174620000Y-136770000D03*
D12*
X172080000Y-129150000D03*
D11*
X172080000Y-136770000D03*
%TD*%
D21*
%TO.C,T2*%
X97410000Y-121210000D03*
D22*
X105030000Y-121210000D03*
X105030000Y-133910000D03*
X97410000Y-133910000D03*
%TD*%
D11*
%TO.C,K5*%
X161920000Y-116770000D03*
X161920000Y-124390000D03*
X174620000Y-116770000D03*
X174620000Y-124390000D03*
D12*
X172080000Y-116770000D03*
D11*
X172080000Y-124390000D03*
%TD*%
D25*
%TO.C,D1*%
X80900000Y-62160000D03*
D26*
X70740000Y-62160000D03*
%TD*%
D27*
%TO.C,C1*%
X75025113Y-68560000D03*
D16*
X72525113Y-68560000D03*
%TD*%
D13*
%TO.C,J2*%
X91930000Y-79710000D03*
D14*
X94470000Y-79710000D03*
X91930000Y-77170000D03*
X94470000Y-77170000D03*
X91930000Y-74630000D03*
X94470000Y-74630000D03*
X91930000Y-72090000D03*
X94470000Y-72090000D03*
X91930000Y-69550000D03*
X94470000Y-69550000D03*
X91930000Y-67010000D03*
X94470000Y-67010000D03*
X91930000Y-64470000D03*
X94470000Y-64470000D03*
X91930000Y-61930000D03*
X94470000Y-61930000D03*
X91930000Y-59390000D03*
X94470000Y-59390000D03*
X91930000Y-56850000D03*
X94470000Y-56850000D03*
X91930000Y-54310000D03*
X94470000Y-54310000D03*
X91930000Y-51770000D03*
X94470000Y-51770000D03*
%TD*%
D11*
%TO.C,K10*%
X144520000Y-104770000D03*
X144520000Y-112390000D03*
X157220000Y-104770000D03*
X157220000Y-112390000D03*
D12*
X154680000Y-104770000D03*
D11*
X154680000Y-112390000D03*
%TD*%
%TO.C,K20*%
X144720000Y-59356667D03*
X144720000Y-66976667D03*
X157420000Y-59356667D03*
X157420000Y-66976667D03*
D12*
X154880000Y-59356667D03*
D11*
X154880000Y-66976667D03*
%TD*%
D27*
%TO.C,C3*%
X75025113Y-81960000D03*
D16*
X72525113Y-81960000D03*
%TD*%
D11*
%TO.C,K1*%
X141010000Y-91200000D03*
X133390000Y-91200000D03*
X141010000Y-103900000D03*
X133390000Y-103900000D03*
D28*
X141010000Y-101360000D03*
D11*
X133390000Y-101360000D03*
%TD*%
%TO.C,K8*%
X144520000Y-141170000D03*
X144520000Y-148790000D03*
X157220000Y-141170000D03*
X157220000Y-148790000D03*
D12*
X154680000Y-141170000D03*
D11*
X154680000Y-148790000D03*
%TD*%
D23*
%TO.C,J7*%
X182020000Y-51960000D03*
D24*
X182020000Y-56960000D03*
X182020000Y-61960000D03*
X182020000Y-66960000D03*
X182020000Y-71960000D03*
X182020000Y-76960000D03*
X182020000Y-81960000D03*
X182020000Y-86960000D03*
X182020000Y-91960000D03*
%TD*%
D27*
%TO.C,C7*%
X75800000Y-114000000D03*
D16*
X73300000Y-114000000D03*
%TD*%
D13*
%TO.C,J19*%
X63620000Y-112620000D03*
D14*
X63620000Y-115160000D03*
X63620000Y-117700000D03*
X63620000Y-120240000D03*
%TD*%
D10*
%TO.C,J14*%
X65464336Y-51260000D03*
%TD*%
D11*
%TO.C,K6*%
X144520000Y-128950000D03*
X144520000Y-136570000D03*
X157220000Y-128950000D03*
X157220000Y-136570000D03*
D12*
X154680000Y-128950000D03*
D11*
X154680000Y-136570000D03*
%TD*%
D13*
%TO.C,J6*%
X136545000Y-125220000D03*
D14*
X139085000Y-125220000D03*
X136545000Y-127760000D03*
X139085000Y-127760000D03*
X136545000Y-130300000D03*
X139085000Y-130300000D03*
%TD*%
D19*
%TO.C,C27*%
X120220000Y-113360000D03*
D16*
X120220000Y-115860000D03*
%TD*%
D29*
%TO.C,J4*%
X79620000Y-52050000D03*
D16*
X79620000Y-54050000D03*
X79620000Y-56050000D03*
X79620000Y-58050000D03*
D30*
X82340000Y-51320000D03*
X76900000Y-51320000D03*
X82340000Y-58320000D03*
X76900000Y-58320000D03*
%TD*%
D11*
%TO.C,K21*%
X144700000Y-71190000D03*
X144700000Y-78810000D03*
X157400000Y-71190000D03*
X157400000Y-78810000D03*
D12*
X154860000Y-71190000D03*
D11*
X154860000Y-78810000D03*
%TD*%
%TO.C,K9*%
X161920000Y-141150000D03*
X161920000Y-148770000D03*
X174620000Y-141150000D03*
X174620000Y-148770000D03*
D12*
X172080000Y-141150000D03*
D11*
X172080000Y-148770000D03*
%TD*%
D13*
%TO.C,J20*%
X63620000Y-125360000D03*
D14*
X63620000Y-127900000D03*
X63620000Y-130440000D03*
X63620000Y-132980000D03*
%TD*%
M02*
