%TF.GenerationSoftware,KiCad,Pcbnew,10.0.3*%
%TF.CreationDate,2026-06-11T12:14:28+08:00*%
%TF.ProjectId,nano-server,6e616e6f-2d73-4657-9276-65722e6b6963,rev?*%
%TF.SameCoordinates,Original*%
%TF.FileFunction,Soldermask,Top*%
%TF.FilePolarity,Negative*%
%FSLAX46Y46*%
G04 Gerber Fmt 4.6, Leading zero omitted, Abs format (unit mm)*
G04 Created by KiCad (PCBNEW 10.0.3) date 2026-06-11 12:14:28*
%MOMM*%
%LPD*%
G01*
G04 APERTURE LIST*
G04 Aperture macros list*
%AMRoundRect*
0 Rectangle with rounded corners*
0 $1 Rounding radius*
0 $2 $3 $4 $5 $6 $7 $8 $9 X,Y pos of 4 corners*
0 Add a 4 corners polygon primitive as box body*
4,1,4,$2,$3,$4,$5,$6,$7,$8,$9,$2,$3,0*
0 Add four circle primitives for the rounded corners*
1,1,$1+$1,$2,$3*
1,1,$1+$1,$4,$5*
1,1,$1+$1,$6,$7*
1,1,$1+$1,$8,$9*
0 Add four rect primitives between the rounded corners*
20,1,$1+$1,$2,$3,$4,$5,0*
20,1,$1+$1,$4,$5,$6,$7,0*
20,1,$1+$1,$6,$7,$8,$9,0*
20,1,$1+$1,$8,$9,$2,$3,0*%
G04 Aperture macros list end*
%ADD10RoundRect,0.150000X-0.875000X-0.150000X0.875000X-0.150000X0.875000X0.150000X-0.875000X0.150000X0*%
%ADD11C,5.600000*%
%ADD12RoundRect,0.250000X0.325000X0.650000X-0.325000X0.650000X-0.325000X-0.650000X0.325000X-0.650000X0*%
%ADD13RoundRect,0.150000X-0.512500X-0.150000X0.512500X-0.150000X0.512500X0.150000X-0.512500X0.150000X0*%
%ADD14RoundRect,0.250000X0.625000X-0.312500X0.625000X0.312500X-0.625000X0.312500X-0.625000X-0.312500X0*%
%ADD15RoundRect,0.250000X-0.412500X-0.650000X0.412500X-0.650000X0.412500X0.650000X-0.412500X0.650000X0*%
%ADD16RoundRect,0.150000X0.150000X-0.587500X0.150000X0.587500X-0.150000X0.587500X-0.150000X-0.587500X0*%
%ADD17C,1.900000*%
%ADD18RoundRect,0.250000X-0.700000X0.700000X-0.700000X-0.700000X0.700000X-0.700000X0.700000X0.700000X0*%
%ADD19R,1.700000X1.700000*%
%ADD20C,1.700000*%
%ADD21RoundRect,0.250000X-0.325000X-0.650000X0.325000X-0.650000X0.325000X0.650000X-0.325000X0.650000X0*%
%ADD22RoundRect,0.250000X-0.312500X-0.625000X0.312500X-0.625000X0.312500X0.625000X-0.312500X0.625000X0*%
%ADD23RoundRect,0.250000X-0.550000X-0.550000X0.550000X-0.550000X0.550000X0.550000X-0.550000X0.550000X0*%
%ADD24C,1.600000*%
%ADD25R,1.905000X2.000000*%
%ADD26O,1.905000X2.000000*%
%ADD27RoundRect,0.250000X-0.550000X0.550000X-0.550000X-0.550000X0.550000X-0.550000X0.550000X0.550000X0*%
%ADD28RoundRect,0.250000X0.412500X0.650000X-0.412500X0.650000X-0.412500X-0.650000X0.412500X-0.650000X0*%
%ADD29C,1.500000*%
%ADD30R,2.800000X2.200000*%
%ADD31R,2.800000X2.800000*%
%ADD32RoundRect,0.150000X-0.150000X0.875000X-0.150000X-0.875000X0.150000X-0.875000X0.150000X0.875000X0*%
%ADD33R,1.520000X1.520000*%
%ADD34C,1.520000*%
%ADD35RoundRect,0.250000X-0.625000X0.312500X-0.625000X-0.312500X0.625000X-0.312500X0.625000X0.312500X0*%
%ADD36RoundRect,0.075000X-0.662500X-0.075000X0.662500X-0.075000X0.662500X0.075000X-0.662500X0.075000X0*%
%ADD37RoundRect,0.075000X-0.075000X-0.662500X0.075000X-0.662500X0.075000X0.662500X-0.075000X0.662500X0*%
%ADD38RoundRect,0.250001X-1.149999X1.149999X-1.149999X-1.149999X1.149999X-1.149999X1.149999X1.149999X0*%
%ADD39C,2.800000*%
%ADD40RoundRect,0.250000X0.375000X0.625000X-0.375000X0.625000X-0.375000X-0.625000X0.375000X-0.625000X0*%
%ADD41RoundRect,0.249999X0.850001X0.850001X-0.850001X0.850001X-0.850001X-0.850001X0.850001X-0.850001X0*%
%ADD42C,2.200000*%
%ADD43RoundRect,0.250000X0.650000X-0.412500X0.650000X0.412500X-0.650000X0.412500X-0.650000X-0.412500X0*%
%ADD44RoundRect,0.250000X0.400000X0.600000X-0.400000X0.600000X-0.400000X-0.600000X0.400000X-0.600000X0*%
%ADD45RoundRect,0.250000X0.550000X0.550000X-0.550000X0.550000X-0.550000X-0.550000X0.550000X-0.550000X0*%
%ADD46RoundRect,0.250000X0.700000X0.700000X-0.700000X0.700000X-0.700000X-0.700000X0.700000X-0.700000X0*%
%ADD47RoundRect,0.250000X0.312500X0.625000X-0.312500X0.625000X-0.312500X-0.625000X0.312500X-0.625000X0*%
%ADD48RoundRect,0.250000X-0.375000X-0.625000X0.375000X-0.625000X0.375000X0.625000X-0.375000X0.625000X0*%
%ADD49RoundRect,0.250000X-0.650000X0.325000X-0.650000X-0.325000X0.650000X-0.325000X0.650000X0.325000X0*%
%ADD50RoundRect,0.249999X-0.750001X-0.640001X0.750001X-0.640001X0.750001X0.640001X-0.750001X0.640001X0*%
%ADD51RoundRect,0.250000X0.650000X-0.325000X0.650000X0.325000X-0.650000X0.325000X-0.650000X-0.325000X0*%
%ADD52R,1.600000X1.600000*%
%ADD53C,2.150000*%
G04 APERTURE END LIST*
D10*
%TO.C,U7*%
X94550000Y-87320000D03*
X94550000Y-88590000D03*
X94550000Y-89860000D03*
X94550000Y-91130000D03*
X94550000Y-92400000D03*
X94550000Y-93670000D03*
X94550000Y-94940000D03*
X94550000Y-96210000D03*
X94550000Y-97480000D03*
X103850000Y-97480000D03*
X103850000Y-96210000D03*
X103850000Y-94940000D03*
X103850000Y-93670000D03*
X103850000Y-92400000D03*
X103850000Y-91130000D03*
X103850000Y-89860000D03*
X103850000Y-88590000D03*
X103850000Y-87320000D03*
%TD*%
D11*
%TO.C,J13*%
X196964336Y-51260000D03*
%TD*%
D12*
%TO.C,C5*%
X75295000Y-89160000D03*
X72345000Y-89160000D03*
%TD*%
D13*
%TO.C,U13*%
X112800000Y-96600000D03*
X112800000Y-97550000D03*
X112800000Y-98500000D03*
X115075000Y-98500000D03*
X115075000Y-97550000D03*
X115075000Y-96600000D03*
%TD*%
D12*
%TO.C,C6*%
X75295000Y-91760000D03*
X72345000Y-91760000D03*
%TD*%
%TO.C,C2*%
X75295000Y-73160000D03*
X72345000Y-73160000D03*
%TD*%
D14*
%TO.C,R5*%
X99420000Y-109935000D03*
X99420000Y-107010000D03*
%TD*%
D15*
%TO.C,C18*%
X96657500Y-104810000D03*
X99782500Y-104810000D03*
%TD*%
D13*
%TO.C,U5*%
X87525000Y-93016667D03*
X87525000Y-93966667D03*
X87525000Y-94916667D03*
X89800000Y-94916667D03*
X89800000Y-93966667D03*
X89800000Y-93016667D03*
%TD*%
D16*
%TO.C,Q1*%
X138595000Y-112497500D03*
X140495000Y-112497500D03*
X139545000Y-110622500D03*
%TD*%
D17*
%TO.C,K23*%
X161720000Y-83150000D03*
X161720000Y-90770000D03*
X174420000Y-83150000D03*
X174420000Y-90770000D03*
D18*
X171880000Y-83150000D03*
D17*
X171880000Y-90770000D03*
%TD*%
D12*
%TO.C,R3*%
X136075000Y-114800000D03*
X133125000Y-114800000D03*
%TD*%
D17*
%TO.C,K22*%
X144720000Y-82950000D03*
X144720000Y-90570000D03*
X157420000Y-82950000D03*
X157420000Y-90570000D03*
D18*
X154880000Y-82950000D03*
D17*
X154880000Y-90570000D03*
%TD*%
%TO.C,K4*%
X144520000Y-116770000D03*
X144520000Y-124390000D03*
X157220000Y-116770000D03*
X157220000Y-124390000D03*
D18*
X154680000Y-116770000D03*
D17*
X154680000Y-124390000D03*
%TD*%
%TO.C,K18*%
X161720000Y-59416667D03*
X161720000Y-67036667D03*
X174420000Y-59416667D03*
X174420000Y-67036667D03*
D18*
X171880000Y-59416667D03*
D17*
X171880000Y-67036667D03*
%TD*%
D12*
%TO.C,C8*%
X76000000Y-118400000D03*
X73050000Y-118400000D03*
%TD*%
D19*
%TO.C,J11*%
X136545000Y-66820000D03*
D20*
X139085000Y-66820000D03*
X136545000Y-69360000D03*
X139085000Y-69360000D03*
X136545000Y-71900000D03*
X139085000Y-71900000D03*
%TD*%
D21*
%TO.C,R4*%
X133125000Y-112200000D03*
X136075000Y-112200000D03*
%TD*%
D12*
%TO.C,C4*%
X75170000Y-86560000D03*
X72220000Y-86560000D03*
%TD*%
D19*
%TO.C,D3*%
X66945000Y-149360000D03*
D20*
X69485000Y-149360000D03*
%TD*%
D12*
%TO.C,R33*%
X76260000Y-136830000D03*
X73310000Y-136830000D03*
%TD*%
D22*
%TO.C,R15*%
X67757500Y-94760000D03*
X70682500Y-94760000D03*
%TD*%
D19*
%TO.C,D4*%
X80345000Y-149360000D03*
D20*
X82885000Y-149360000D03*
%TD*%
D23*
%TO.C,C29*%
X135420000Y-138960000D03*
D24*
X137920000Y-138960000D03*
%TD*%
D19*
%TO.C,J17*%
X63545000Y-99650000D03*
D20*
X63545000Y-102190000D03*
X63545000Y-104730000D03*
X63545000Y-107270000D03*
%TD*%
D17*
%TO.C,K3*%
X161920000Y-104770000D03*
X161920000Y-112390000D03*
X174620000Y-104770000D03*
X174620000Y-112390000D03*
D18*
X172080000Y-104770000D03*
D17*
X172080000Y-112390000D03*
%TD*%
D12*
%TO.C,C14*%
X90075000Y-102000000D03*
X87125000Y-102000000D03*
%TD*%
D25*
%TO.C,U1*%
X82660000Y-113350000D03*
D26*
X85200000Y-113350000D03*
X87740000Y-113350000D03*
%TD*%
D17*
%TO.C,K2*%
X161720000Y-47550000D03*
X161720000Y-55170000D03*
X174420000Y-47550000D03*
X174420000Y-55170000D03*
D18*
X171880000Y-47550000D03*
D17*
X171880000Y-55170000D03*
%TD*%
D19*
%TO.C,J3*%
X127330000Y-79710000D03*
D20*
X129870000Y-79710000D03*
X127330000Y-77170000D03*
X129870000Y-77170000D03*
X127330000Y-74630000D03*
X129870000Y-74630000D03*
X127330000Y-72090000D03*
X129870000Y-72090000D03*
X127330000Y-69550000D03*
X129870000Y-69550000D03*
X127330000Y-67010000D03*
X129870000Y-67010000D03*
X127330000Y-64470000D03*
X129870000Y-64470000D03*
X127330000Y-61930000D03*
X129870000Y-61930000D03*
X127330000Y-59390000D03*
X129870000Y-59390000D03*
X127330000Y-56850000D03*
X129870000Y-56850000D03*
X127330000Y-54310000D03*
X129870000Y-54310000D03*
X127330000Y-51770000D03*
X129870000Y-51770000D03*
%TD*%
D22*
%TO.C,R6*%
X137557500Y-149160000D03*
X140482500Y-149160000D03*
%TD*%
D11*
%TO.C,J15*%
X196964336Y-142760000D03*
%TD*%
D27*
%TO.C,C28*%
X114220000Y-113360000D03*
D24*
X114220000Y-115860000D03*
%TD*%
D28*
%TO.C,C26*%
X107982500Y-116360000D03*
X104857500Y-116360000D03*
%TD*%
D29*
%TO.C,Y1*%
X103820000Y-110610000D03*
X103820000Y-105710000D03*
%TD*%
D20*
%TO.C,J8*%
X123500000Y-149400000D03*
X123500000Y-142400000D03*
D30*
X119800000Y-148500000D03*
X127200000Y-150500000D03*
D31*
X127200000Y-141100000D03*
%TD*%
D32*
%TO.C,U9*%
X121245000Y-68550000D03*
X119975000Y-68550000D03*
X118705000Y-68550000D03*
X117435000Y-68550000D03*
X116165000Y-68550000D03*
X114895000Y-68550000D03*
X113625000Y-68550000D03*
X112355000Y-68550000D03*
X112355000Y-77850000D03*
X113625000Y-77850000D03*
X114895000Y-77850000D03*
X116165000Y-77850000D03*
X117435000Y-77850000D03*
X118705000Y-77850000D03*
X119975000Y-77850000D03*
X121245000Y-77850000D03*
%TD*%
D12*
%TO.C,C12*%
X76275000Y-130400000D03*
X73325000Y-130400000D03*
%TD*%
D22*
%TO.C,R11*%
X95157500Y-116360000D03*
X98082500Y-116360000D03*
%TD*%
D33*
%TO.C,T1*%
X116810000Y-121210000D03*
D34*
X124430000Y-121210000D03*
X124430000Y-133910000D03*
X116810000Y-133910000D03*
%TD*%
D13*
%TO.C,U4*%
X87525000Y-89233333D03*
X87525000Y-90183333D03*
X87525000Y-91133333D03*
X89800000Y-91133333D03*
X89800000Y-90183333D03*
X89800000Y-89233333D03*
%TD*%
D22*
%TO.C,R14*%
X62557500Y-94760000D03*
X65482500Y-94760000D03*
%TD*%
D12*
%TO.C,C10*%
X76275000Y-125200000D03*
X73325000Y-125200000D03*
%TD*%
D35*
%TO.C,R13*%
X130420000Y-113097500D03*
X130420000Y-116022500D03*
%TD*%
D13*
%TO.C,U3*%
X87525000Y-85450000D03*
X87525000Y-86400000D03*
X87525000Y-87350000D03*
X89800000Y-87350000D03*
X89800000Y-86400000D03*
X89800000Y-85450000D03*
%TD*%
D17*
%TO.C,K24*%
X161700000Y-71390000D03*
X161700000Y-79010000D03*
X174400000Y-71390000D03*
X174400000Y-79010000D03*
D18*
X171860000Y-71390000D03*
D17*
X171860000Y-79010000D03*
%TD*%
D36*
%TO.C,U8*%
X108637500Y-103250000D03*
X108637500Y-103750000D03*
X108637500Y-104250000D03*
X108637500Y-104750000D03*
X108637500Y-105250000D03*
X108637500Y-105750000D03*
X108637500Y-106250000D03*
X108637500Y-106750000D03*
X108637500Y-107250000D03*
X108637500Y-107750000D03*
X108637500Y-108250000D03*
X108637500Y-108750000D03*
D37*
X110050000Y-110162500D03*
X110550000Y-110162500D03*
X111050000Y-110162500D03*
X111550000Y-110162500D03*
X112050000Y-110162500D03*
X112550000Y-110162500D03*
X113050000Y-110162500D03*
X113550000Y-110162500D03*
X114050000Y-110162500D03*
X114550000Y-110162500D03*
X115050000Y-110162500D03*
X115550000Y-110162500D03*
D36*
X116962500Y-108750000D03*
X116962500Y-108250000D03*
X116962500Y-107750000D03*
X116962500Y-107250000D03*
X116962500Y-106750000D03*
X116962500Y-106250000D03*
X116962500Y-105750000D03*
X116962500Y-105250000D03*
X116962500Y-104750000D03*
X116962500Y-104250000D03*
X116962500Y-103750000D03*
X116962500Y-103250000D03*
D37*
X115550000Y-101837500D03*
X115050000Y-101837500D03*
X114550000Y-101837500D03*
X114050000Y-101837500D03*
X113550000Y-101837500D03*
X113050000Y-101837500D03*
X112550000Y-101837500D03*
X112050000Y-101837500D03*
X111550000Y-101837500D03*
X111050000Y-101837500D03*
X110550000Y-101837500D03*
X110050000Y-101837500D03*
%TD*%
D19*
%TO.C,J5*%
X137420000Y-47360000D03*
D20*
X139960000Y-47360000D03*
%TD*%
D22*
%TO.C,R7*%
X120600000Y-103000000D03*
X123525000Y-103000000D03*
%TD*%
D20*
%TO.C,J18*%
X97200000Y-149400000D03*
X97200000Y-142400000D03*
D30*
X93500000Y-148500000D03*
X100900000Y-150500000D03*
D31*
X100900000Y-141100000D03*
%TD*%
D12*
%TO.C,C30*%
X139495000Y-118560000D03*
X136545000Y-118560000D03*
%TD*%
D38*
%TO.C,J12*%
X182220000Y-102160000D03*
D39*
X182220000Y-107160000D03*
X182220000Y-112160000D03*
X182220000Y-117160000D03*
X182220000Y-122160000D03*
X182220000Y-127160000D03*
X182220000Y-132160000D03*
X182220000Y-137160000D03*
X182220000Y-142160000D03*
%TD*%
D38*
%TO.C,J10*%
X64420000Y-83160000D03*
D39*
X64420000Y-88160000D03*
%TD*%
D15*
%TO.C,C23*%
X126257500Y-105360000D03*
X129382500Y-105360000D03*
%TD*%
D13*
%TO.C,U6*%
X87525000Y-96800000D03*
X87525000Y-97750000D03*
X87525000Y-98700000D03*
X89800000Y-98700000D03*
X89800000Y-97750000D03*
X89800000Y-96800000D03*
%TD*%
D19*
%TO.C,D2*%
X73745000Y-149360000D03*
D20*
X76285000Y-149360000D03*
%TD*%
D11*
%TO.C,J16*%
X65464336Y-142760000D03*
%TD*%
D22*
%TO.C,L4*%
X120537500Y-107800000D03*
X123462500Y-107800000D03*
%TD*%
D21*
%TO.C,R2*%
X73345000Y-133760000D03*
X76295000Y-133760000D03*
%TD*%
D40*
%TO.C,D25*%
X86185000Y-136830000D03*
X83385000Y-136830000D03*
%TD*%
D32*
%TO.C,U2*%
X106845000Y-68350000D03*
X105575000Y-68350000D03*
X104305000Y-68350000D03*
X103035000Y-68350000D03*
X101765000Y-68350000D03*
X100495000Y-68350000D03*
X99225000Y-68350000D03*
X97955000Y-68350000D03*
X97955000Y-77650000D03*
X99225000Y-77650000D03*
X100495000Y-77650000D03*
X101765000Y-77650000D03*
X103035000Y-77650000D03*
X104305000Y-77650000D03*
X105575000Y-77650000D03*
X106845000Y-77650000D03*
%TD*%
D41*
%TO.C,D8*%
X81220000Y-76560000D03*
D42*
X71060000Y-76560000D03*
%TD*%
D20*
%TO.C,J9*%
X110300000Y-149400000D03*
X110300000Y-142400000D03*
D30*
X106600000Y-148500000D03*
X114000000Y-150500000D03*
D31*
X114000000Y-141100000D03*
%TD*%
D38*
%TO.C,J1*%
X64220000Y-66160000D03*
D39*
X64220000Y-71160000D03*
%TD*%
D17*
%TO.C,K19*%
X144720000Y-47560000D03*
X144720000Y-55180000D03*
X157420000Y-47560000D03*
X157420000Y-55180000D03*
D18*
X154880000Y-47560000D03*
D17*
X154880000Y-55180000D03*
%TD*%
%TO.C,K7*%
X161920000Y-129150000D03*
X161920000Y-136770000D03*
X174620000Y-129150000D03*
X174620000Y-136770000D03*
D18*
X172080000Y-129150000D03*
D17*
X172080000Y-136770000D03*
%TD*%
D33*
%TO.C,T2*%
X97410000Y-121210000D03*
D34*
X105030000Y-121210000D03*
X105030000Y-133910000D03*
X97410000Y-133910000D03*
%TD*%
D15*
%TO.C,C24*%
X126257500Y-107960000D03*
X129382500Y-107960000D03*
%TD*%
%TO.C,C19*%
X96695000Y-112210000D03*
X99820000Y-112210000D03*
%TD*%
D12*
%TO.C,C32*%
X113350000Y-82600000D03*
X110400000Y-82600000D03*
%TD*%
D17*
%TO.C,K5*%
X161920000Y-116770000D03*
X161920000Y-124390000D03*
X174620000Y-116770000D03*
X174620000Y-124390000D03*
D18*
X172080000Y-116770000D03*
D17*
X172080000Y-124390000D03*
%TD*%
D43*
%TO.C,C21*%
X125220000Y-116322500D03*
X125220000Y-113197500D03*
%TD*%
D41*
%TO.C,D1*%
X80900000Y-62160000D03*
D42*
X70740000Y-62160000D03*
%TD*%
D44*
%TO.C,D5*%
X136550000Y-109800000D03*
X133050000Y-109800000D03*
%TD*%
D45*
%TO.C,C1*%
X75025113Y-68560000D03*
D24*
X72525113Y-68560000D03*
%TD*%
D19*
%TO.C,J2*%
X91930000Y-79710000D03*
D20*
X94470000Y-79710000D03*
X91930000Y-77170000D03*
X94470000Y-77170000D03*
X91930000Y-74630000D03*
X94470000Y-74630000D03*
X91930000Y-72090000D03*
X94470000Y-72090000D03*
X91930000Y-69550000D03*
X94470000Y-69550000D03*
X91930000Y-67010000D03*
X94470000Y-67010000D03*
X91930000Y-64470000D03*
X94470000Y-64470000D03*
X91930000Y-61930000D03*
X94470000Y-61930000D03*
X91930000Y-59390000D03*
X94470000Y-59390000D03*
X91930000Y-56850000D03*
X94470000Y-56850000D03*
X91930000Y-54310000D03*
X94470000Y-54310000D03*
X91930000Y-51770000D03*
X94470000Y-51770000D03*
%TD*%
D13*
%TO.C,U10*%
X112800000Y-85050000D03*
X112800000Y-86000000D03*
X112800000Y-86950000D03*
X115075000Y-86950000D03*
X115075000Y-86000000D03*
X115075000Y-85050000D03*
%TD*%
D10*
%TO.C,U14*%
X120150000Y-87320000D03*
X120150000Y-88590000D03*
X120150000Y-89860000D03*
X120150000Y-91130000D03*
X120150000Y-92400000D03*
X120150000Y-93670000D03*
X120150000Y-94940000D03*
X120150000Y-96210000D03*
X120150000Y-97480000D03*
X129450000Y-97480000D03*
X129450000Y-96210000D03*
X129450000Y-94940000D03*
X129450000Y-93670000D03*
X129450000Y-92400000D03*
X129450000Y-91130000D03*
X129450000Y-89860000D03*
X129450000Y-88590000D03*
X129450000Y-87320000D03*
%TD*%
D17*
%TO.C,K10*%
X144520000Y-104770000D03*
X144520000Y-112390000D03*
X157220000Y-104770000D03*
X157220000Y-112390000D03*
D18*
X154680000Y-104770000D03*
D17*
X154680000Y-112390000D03*
%TD*%
%TO.C,K20*%
X144720000Y-59356667D03*
X144720000Y-66976667D03*
X157420000Y-59356667D03*
X157420000Y-66976667D03*
D18*
X154880000Y-59356667D03*
D17*
X154880000Y-66976667D03*
%TD*%
D45*
%TO.C,C3*%
X75025113Y-81960000D03*
D24*
X72525113Y-81960000D03*
%TD*%
D17*
%TO.C,K1*%
X141010000Y-91200000D03*
X133390000Y-91200000D03*
X141010000Y-103900000D03*
X133390000Y-103900000D03*
D46*
X141010000Y-101360000D03*
D17*
X133390000Y-101360000D03*
%TD*%
%TO.C,K8*%
X144520000Y-141170000D03*
X144520000Y-148790000D03*
X157220000Y-141170000D03*
X157220000Y-148790000D03*
D18*
X154680000Y-141170000D03*
D17*
X154680000Y-148790000D03*
%TD*%
D47*
%TO.C,R10*%
X102882500Y-116360000D03*
X99957500Y-116360000D03*
%TD*%
D48*
%TO.C,D7*%
X132620000Y-146160000D03*
X135420000Y-146160000D03*
%TD*%
D49*
%TO.C,C31*%
X123600000Y-71725000D03*
X123600000Y-74675000D03*
%TD*%
D38*
%TO.C,J7*%
X182020000Y-51960000D03*
D39*
X182020000Y-56960000D03*
X182020000Y-61960000D03*
X182020000Y-66960000D03*
X182020000Y-71960000D03*
X182020000Y-76960000D03*
X182020000Y-81960000D03*
X182020000Y-86960000D03*
X182020000Y-91960000D03*
%TD*%
D50*
%TO.C,U15*%
X74820000Y-140360000D03*
X74820000Y-142900000D03*
X84350000Y-142900000D03*
X84350000Y-140360000D03*
%TD*%
D45*
%TO.C,C7*%
X75800000Y-114000000D03*
D24*
X73300000Y-114000000D03*
%TD*%
D22*
%TO.C,R8*%
X120600000Y-105400000D03*
X123525000Y-105400000D03*
%TD*%
D19*
%TO.C,J19*%
X63620000Y-112620000D03*
D20*
X63620000Y-115160000D03*
X63620000Y-117700000D03*
X63620000Y-120240000D03*
%TD*%
D35*
%TO.C,R12*%
X127820000Y-113097500D03*
X127820000Y-116022500D03*
%TD*%
D12*
%TO.C,R32*%
X81260000Y-136830000D03*
X78310000Y-136830000D03*
%TD*%
D11*
%TO.C,J14*%
X65464336Y-51260000D03*
%TD*%
D15*
%TO.C,C20*%
X120637500Y-110400000D03*
X123762500Y-110400000D03*
%TD*%
D12*
%TO.C,C11*%
X76275000Y-127800000D03*
X73325000Y-127800000D03*
%TD*%
D17*
%TO.C,K6*%
X144520000Y-128950000D03*
X144520000Y-136570000D03*
X157220000Y-128950000D03*
X157220000Y-136570000D03*
D18*
X154680000Y-128950000D03*
D17*
X154680000Y-136570000D03*
%TD*%
D12*
%TO.C,C9*%
X76200000Y-122600000D03*
X73250000Y-122600000D03*
%TD*%
D51*
%TO.C,C13*%
X109400000Y-74475000D03*
X109400000Y-71525000D03*
%TD*%
D15*
%TO.C,C25*%
X126257500Y-110560000D03*
X129382500Y-110560000D03*
%TD*%
D22*
%TO.C,R9*%
X137557500Y-146160000D03*
X140482500Y-146160000D03*
%TD*%
D48*
%TO.C,D6*%
X132620000Y-149160000D03*
X135420000Y-149160000D03*
%TD*%
D13*
%TO.C,U12*%
X112800000Y-92750000D03*
X112800000Y-93700000D03*
X112800000Y-94650000D03*
X115075000Y-94650000D03*
X115075000Y-93700000D03*
X115075000Y-92750000D03*
%TD*%
D19*
%TO.C,J6*%
X136545000Y-125220000D03*
D20*
X139085000Y-125220000D03*
X136545000Y-127760000D03*
X139085000Y-127760000D03*
X136545000Y-130300000D03*
X139085000Y-130300000D03*
%TD*%
D13*
%TO.C,U11*%
X112800000Y-88900000D03*
X112800000Y-89850000D03*
X112800000Y-90800000D03*
X115075000Y-90800000D03*
X115075000Y-89850000D03*
X115075000Y-88900000D03*
%TD*%
D27*
%TO.C,C27*%
X120220000Y-113360000D03*
D24*
X120220000Y-115860000D03*
%TD*%
D15*
%TO.C,C22*%
X126257500Y-102760000D03*
X129382500Y-102760000D03*
%TD*%
D52*
%TO.C,J4*%
X79620000Y-52050000D03*
D24*
X79620000Y-54050000D03*
X79620000Y-56050000D03*
X79620000Y-58050000D03*
D53*
X82340000Y-51320000D03*
X76900000Y-51320000D03*
X82340000Y-58320000D03*
X76900000Y-58320000D03*
%TD*%
D17*
%TO.C,K21*%
X144700000Y-71190000D03*
X144700000Y-78810000D03*
X157400000Y-71190000D03*
X157400000Y-78810000D03*
D18*
X154860000Y-71190000D03*
D17*
X154860000Y-78810000D03*
%TD*%
%TO.C,K9*%
X161920000Y-141150000D03*
X161920000Y-148770000D03*
X174620000Y-141150000D03*
X174620000Y-148770000D03*
D18*
X172080000Y-141150000D03*
D17*
X172080000Y-148770000D03*
%TD*%
D21*
%TO.C,R1*%
X78345000Y-133760000D03*
X81295000Y-133760000D03*
%TD*%
D19*
%TO.C,J20*%
X63620000Y-125360000D03*
D20*
X63620000Y-127900000D03*
X63620000Y-130440000D03*
X63620000Y-132980000D03*
%TD*%
M02*
